<svg width="266" height="116" viewBox="0 0 266 116" fill="none" xmlns="http://www.w3.org/2000/svg">
<path d="M33.7231 36.0113L254.999 1.73142L252.492 36.0113L230.888 41.231L230.888 57.2879L226.888 74.2879L10.9921 112.731L12.4922 76.731L35.4922 70.231L33.7231 36.0113Z" fill="white"/>
<path d="M4.99219 43.731L14.4922 55.731L27.4922 46.231L30.4922 55.731L35.9922 83.231L20.9922 61.731L8.99219 69.231L4.99219 43.731Z" fill="#F8B62A"/>
<path d="M4.49219 42.731L14.4922 50.9309L26.4922 43.9309L28.4922 47.4309L13.9922 60.231L4.49219 42.731Z" fill="#FF9302"/>
<path fill-rule="evenodd" clip-rule="evenodd" d="M248.086 1.35036C243.961 2.02736 232.036 3.77636 221.586 5.23536C211.136 6.69536 200.111 8.33736 197.086 8.88336C194.061 9.43036 183.486 11.0214 173.586 12.4194C155.913 14.9164 135.879 17.8344 81.0859 25.8954C65.9609 28.1204 49.5359 30.4424 44.5859 31.0554C39.6359 31.6674 35.1579 32.5534 34.6359 33.0244C34.1129 33.4954 33.4339 38.7184 33.1259 44.6304L32.5649 55.3804L30.7269 47.3804C29.7159 42.9804 28.5779 39.0474 28.1969 38.6394C27.8159 38.2324 24.8369 40.5954 21.5769 43.8894C18.3159 47.1844 15.1849 49.8674 14.6169 49.8504C14.0499 49.8344 11.3359 46.7324 8.58592 42.9564C5.83592 39.1804 3.32492 36.5094 3.00492 37.0214C2.48492 37.8534 6.94792 71.8384 7.69792 72.7574C7.86792 72.9644 10.3279 71.1894 13.1669 68.8124C18.0799 64.6984 18.3949 64.5814 19.7069 66.3774C21.7529 69.1754 21.4749 69.5644 17.0029 70.1644C14.7579 70.4654 12.7239 70.9084 12.4839 71.1494C11.9739 71.6584 7.21692 115.225 7.61892 115.699C7.76792 115.874 10.5219 115.502 13.7379 114.872C16.9539 114.242 26.7859 112.43 35.5859 110.845C69.3399 104.766 74.8249 103.766 82.5859 102.281C86.9859 101.438 98.0109 99.4104 107.086 97.7734C142.153 91.4494 163.211 87.6404 179.086 84.7484C188.161 83.0954 203.011 80.4264 212.086 78.8184C221.161 77.2104 229.088 75.7034 229.703 75.4694C230.388 75.2094 231.079 70.2874 231.493 62.7134C231.863 55.9304 232.419 48.5004 232.729 46.2034L233.291 42.0264L240.439 40.9104C244.37 40.2964 249.26 39.5504 251.306 39.2544C254.566 38.7814 255.086 38.3224 255.503 35.5474C256.396 29.6154 257.095 -0.119638 256.339 0.000362185C255.925 0.0653622 252.211 0.673361 248.086 1.35036ZM251.56 7.13036C251.173 9.46736 250.787 11.4644 250.701 11.5674C250.616 11.6704 244.03 12.7974 236.066 14.0734L221.586 16.3924L221.29 23.1364L220.995 29.8804L223.79 29.8734C225.328 29.8694 229.623 29.5794 233.336 29.2284C239.165 28.6784 240.086 28.3224 240.086 26.6244C240.086 24.9574 239.591 24.7434 236.836 25.2184C235.048 25.5274 231.449 26.0784 228.836 26.4434L224.086 27.1074V23.0134C224.086 19.5774 224.448 18.8404 226.336 18.4324C229.669 17.7124 248.62 14.8804 250.106 14.8804C251.107 14.8804 251.241 17.1054 250.719 25.0644C250.352 30.6654 249.925 35.3744 249.771 35.5284C249.616 35.6834 240.962 36.8464 230.538 38.1134L211.586 40.4174L211.309 25.5094C211.157 17.3094 211.214 10.4184 211.437 10.1964C211.791 9.84236 247.418 3.36136 250.924 3.01336C251.95 2.91136 252.098 3.87136 251.56 7.13036ZM207.516 19.6304C207.136 24.9924 206.633 29.7174 206.397 30.1304C206.161 30.5434 204.221 30.8804 202.086 30.8804C196.629 30.8804 196.497 32.1124 201.723 34.2734C205.594 35.8744 206.154 36.4774 205.891 38.7524C205.608 41.1934 205.195 41.4004 200.086 41.6634C195.699 41.8904 192.866 41.2504 186.086 38.5024L177.586 35.0574L176.815 40.1724C175.936 46.0024 175.062 46.8434 169.861 46.8654C166.354 46.8794 166.162 46.7194 166.579 44.1304C166.823 42.6174 167.306 35.6634 167.652 28.6774L168.282 15.9734L172.934 15.2814C175.493 14.9004 183.661 13.5774 191.086 12.3424C198.511 11.1084 205.401 10.0484 206.396 9.98936C208.071 9.88836 208.155 10.6104 207.516 19.6304ZM164.252 27.1294C164.068 32.7674 163.618 39.8284 163.252 42.8214L162.586 48.2614L144.586 51.0314C134.686 52.5544 125.756 53.8184 124.741 53.8404C122.995 53.8784 122.934 53.0544 123.612 38.6304C124.006 30.2424 124.438 23.2544 124.572 23.0994C124.705 22.9444 127.013 22.5574 129.7 22.2384L134.586 21.6584L134.244 32.9014L133.902 44.1434L136.286 43.5454C137.597 43.2164 141.19 42.6504 144.271 42.2884C147.352 41.9264 150.431 41.2854 151.114 40.8634C151.911 40.3704 152.575 36.2114 152.97 29.2454L153.586 18.3944L156.586 17.7554C158.236 17.4044 160.711 17.0634 162.086 16.9974L164.586 16.8784L164.252 27.1294ZM195.086 20.5104C194.261 20.6544 190.324 21.2874 186.336 21.9164C181.306 22.7104 179.086 23.4924 179.086 24.4704C179.086 26.1694 179.067 26.1684 188.628 24.7464C193.421 24.0334 196.452 23.0894 196.792 22.2034C197.439 20.5174 197.081 20.1624 195.086 20.5104ZM120.531 39.1304C120.145 47.5184 119.748 54.4814 119.649 54.6054C119.326 55.0104 80.8419 60.9694 80.5339 60.6614C80.0419 60.1704 82.1569 30.4764 82.7239 29.9054C83.3349 29.2904 114.259 24.1714 118.41 23.9984L121.235 23.8804L120.531 39.1304ZM77.4559 35.6304C77.2709 38.2424 76.8439 45.2184 76.5069 51.1304C76.1689 57.0424 75.5989 61.8824 75.2399 61.8854C74.8799 61.8884 66.0749 63.2394 55.6719 64.8874C45.2689 66.5364 36.5629 67.6904 36.3249 67.4524C36.0869 67.2144 36.2729 60.1454 36.7389 51.7434L37.5859 36.4674L54.0859 33.8034C63.1609 32.3384 72.2069 31.0814 74.1889 31.0104L77.7919 30.8804L77.4559 35.6304ZM97.9429 34.1534C91.3359 35.1634 91.2979 35.1874 90.7039 38.7744C89.6359 45.2344 89.9789 52.8824 91.3359 52.8604C95.9929 52.7864 106.915 50.5674 108.845 49.3024C110.977 47.9054 111.147 47.1754 110.879 40.5794L110.586 33.3804L107.586 33.2594C105.936 33.1924 101.597 33.5944 97.9429 34.1534ZM59.5859 41.0514C56.8359 41.5084 53.1229 42.1264 51.3359 42.4264C49.3679 42.7564 48.0859 43.5584 48.0859 44.4604C48.0859 45.6704 49.0699 45.8304 53.3359 45.3174C60.6069 44.4434 66.0859 42.9744 66.0859 41.9004C66.0859 40.3644 64.7669 40.1924 59.5859 41.0514ZM13.9499 57.8804C14.3869 57.8804 17.4989 55.3884 20.8639 52.3434L26.9829 46.8054L28.0699 50.5934C30.0419 57.4684 35.9349 82.3644 35.6559 82.6434C35.5059 82.7934 32.1049 77.9584 28.0979 71.8984C24.0909 65.8384 20.3579 60.8804 19.8019 60.8804C19.2469 60.8804 16.8079 62.5054 14.3839 64.4924C11.9599 66.4784 9.76092 67.8884 9.49792 67.6254C9.10292 67.2304 5.08392 45.5054 5.10592 43.8804C5.10892 43.6054 6.92192 46.6434 9.13292 50.6304C11.3449 54.6174 13.5119 57.8804 13.9499 57.8804ZM226.784 47.6304C226.478 49.6934 225.662 56.4854 224.973 62.7244C223.814 73.2094 223.539 74.1384 221.338 74.9744C220.028 75.4734 217.888 75.8804 216.584 75.8804C214.478 75.8804 214.265 75.5164 214.683 72.6304C214.942 70.8434 215.503 65.8934 215.93 61.6304C216.824 52.6914 217.413 53.0774 206.086 55.1814L199.586 56.3884L198.586 67.8654L197.586 79.3414L192.713 80.1544C190.033 80.6024 187.583 80.7104 187.268 80.3954C186.57 79.6984 190.053 50.6584 190.949 49.6964C191.456 49.1534 220.326 44.4494 225.964 43.9924C226.999 43.9084 227.203 44.8144 226.784 47.6304ZM187.1 50.6304C187.182 54.9244 183.535 79.6514 182.694 80.5054C181.61 81.6064 147.093 88.2204 146.343 87.4714C145.764 86.8914 149.198 57.4804 149.938 56.6814C150.294 56.2974 152.573 55.6654 155.002 55.2774C158.694 54.6874 159.324 54.8174 158.843 56.0704C158.527 56.8944 157.949 62.0734 157.559 67.5784L156.849 77.5884L165.718 75.9654L174.586 74.3424L175.971 62.6634C177.221 52.1244 177.563 50.9434 179.471 50.5684C183.231 49.8294 187.086 49.8604 187.1 50.6304ZM53.3359 54.0754C49.8409 54.7134 48.0859 55.5204 48.0859 56.4914C48.0859 57.6634 49.1139 57.8254 53.3359 57.3174C60.7369 56.4274 66.0859 54.9694 66.0859 53.8414C66.0859 52.6754 60.4479 52.7784 53.3359 54.0754ZM146.069 57.6304C146.02 59.7264 143.101 76.0464 142.643 76.7884C142.35 77.2624 139.968 77.9874 137.348 78.3994L132.586 79.1494L137.304 81.1264C141.585 82.9204 144.213 86.0874 142.687 87.6124C142.367 87.9324 139.963 88.5424 137.346 88.9684C133.128 89.6534 131.749 89.3514 125.232 86.3114C121.188 84.4244 117.517 82.8804 117.076 82.8804C116.635 82.8804 115.97 85.0874 115.599 87.7844C114.885 92.9804 113.805 93.8364 107.931 93.8664C105.442 93.8794 105.307 93.6454 105.759 90.1304C106.024 88.0684 106.769 80.9854 107.414 74.3914L108.586 62.4024L126.086 59.7584C147.001 56.5984 146.09 56.6954 146.069 57.6304ZM93.0859 68.8264C93.0859 71.9234 91.0199 97.2674 90.7449 97.5364C90.6579 97.6234 88.4479 98.0114 85.8359 98.4004L81.0859 99.1074V93.4264C81.0859 88.4954 80.8549 87.8104 79.3359 88.2384C78.3729 88.5104 74.3779 89.2464 70.4569 89.8764L63.3289 91.0204L62.6709 96.8284L62.0139 102.636L57.9169 103.291C55.6629 103.651 53.6109 103.739 53.3579 103.485C52.7259 102.854 55.3069 74.1404 56.1119 72.8374C56.6039 72.0424 74.3619 68.6864 92.3359 65.9924C92.7479 65.9314 93.0859 67.2054 93.0859 68.8264ZM123.665 69.2394C120.324 69.8834 117.543 70.9874 117.284 71.7744C116.906 72.9174 117.972 73.0384 123.205 72.4484C132.861 71.3574 135.086 70.7594 135.086 69.2554C135.086 67.6264 132.059 67.6214 123.665 69.2394ZM70.6649 78.2394C67.2969 78.8884 64.5439 79.9864 64.2799 80.7854C63.8989 81.9394 65.1309 82.0874 71.2009 81.6164C79.7069 80.9564 82.0859 80.2254 82.0859 78.2734C82.0859 76.6244 79.0939 76.6154 70.6649 78.2394ZM24.7639 80.1304C24.4679 81.3674 23.9169 86.4644 23.5409 91.4554L22.8549 100.53L35.7209 98.2524C52.5699 95.2684 51.4629 95.1724 50.7519 99.5494C50.0509 103.873 49.2509 104.486 43.1709 105.366C40.6489 105.731 32.7989 107.146 25.7269 108.512C18.6539 109.877 12.6809 110.809 12.4539 110.582C12.0389 110.167 13.7539 88.1594 14.6659 82.1934C15.1639 78.9334 16.0939 78.4654 22.9439 78.0304C24.9099 77.9054 25.2129 78.2554 24.7639 80.1304Z" fill="#040404"/>
</svg>
