<svg width="232" height="107" viewBox="0 0 232 107" fill="none" xmlns="http://www.w3.org/2000/svg">
<path fill-rule="evenodd" clip-rule="evenodd" d="M66.2167 0.312816C65.685 0.529142 65.1195 0.80866 64.96 0.934075C64.8005 1.05949 64.259 1.36925 63.7567 1.6224C62.5426 2.23455 60.4646 4.34858 59.5409 5.91112C58.4507 7.75571 57.3481 11.454 57.367 13.2022C57.3951 15.7724 58.5112 18.8232 59.8966 20.1161C60.2641 20.4592 60.7747 20.9363 61.0313 21.1761C61.4274 21.5467 61.7118 21.6122 62.9227 21.6122C63.8592 21.6122 64.3742 21.6919 64.425 21.8448C64.5266 22.1499 65.6962 22.1426 66.444 21.832C66.769 21.6971 67.1553 21.36 67.3024 21.0832C67.4495 20.8062 67.8091 20.4337 68.1013 20.2551C68.3934 20.0766 69.3334 19.1611 70.19 18.2208C71.3454 16.9529 71.9687 16.0558 72.6029 14.7487C73.5314 12.8347 74.24 10.3941 74.24 9.10949C74.24 8.06702 73.5616 5.40384 73.1324 4.76068C72.9499 4.48717 72.6143 3.87095 72.3863 3.3912C71.886 2.33709 70.5313 0.769311 69.7879 0.383762C68.856 -0.0992886 67.3059 -0.130109 66.2167 0.312816ZM105.865 14.077C105.66 14.2015 104.964 14.3663 104.318 14.443C103.032 14.596 93.0734 17.4386 85.7433 19.7451C67.7904 25.3936 52.7628 31.4959 36.0567 39.9214C26.4204 44.7812 21.1429 47.7121 20.0724 48.7983C19.5735 49.3047 19.1077 49.7191 19.0373 49.7191C18.7506 49.7191 17.7867 50.5394 17.7867 50.7835C17.7867 50.9277 18.0912 51.1467 18.4633 51.2698C18.8355 51.3929 19.14 51.5784 19.14 51.6817C19.14 51.7852 19.3641 52.0781 19.638 52.3326C20.0421 52.7081 20.1612 53.0448 20.2691 54.1164C20.3959 55.3781 20.4233 55.4351 20.8825 55.385C21.147 55.3562 21.7113 55.0745 22.1367 54.7589C22.562 54.4436 23.5596 53.8221 24.3534 53.3782C25.1473 52.9341 25.9146 52.4526 26.0588 52.308C26.4314 51.9345 27.023 51.9826 27.5939 52.4329C28.2402 52.9427 28.7701 52.9219 29.7973 52.347C31.6589 51.3049 41.0277 47.0443 47.1733 44.4447C65.1325 36.8485 81.8189 31.3335 102.273 26.2336C106.58 25.1599 110.221 24.186 110.365 24.0695C110.54 23.9274 110.593 23.6078 110.526 23.1023C110.469 22.6741 110.545 22.0051 110.703 21.557C110.892 21.0202 110.918 20.7035 110.784 20.5692C110.675 20.4606 110.587 20.1861 110.587 19.9595C110.587 19.7329 110.369 19.3427 110.103 19.0923C109.777 18.785 109.62 18.4292 109.62 17.9971C109.62 17.6451 109.446 17.0715 109.234 16.7224C109.022 16.3733 108.848 15.94 108.847 15.7594C108.847 15.5787 108.561 15.1184 108.212 14.7363C107.515 13.9733 106.503 13.6892 105.865 14.077ZM114.84 27.9359C104.689 31.0408 85.9881 37.178 79.4749 39.5415C75.7439 40.8955 72.5702 42.2052 72.2552 42.521C71.9679 42.8091 72.2402 43.0928 73.7545 44.0839C74.5256 44.5885 75.9775 45.8231 76.9811 46.8272C77.9847 47.8313 80.2621 50.0447 82.0418 51.7459C83.8216 53.447 85.4555 55.1272 85.6728 55.4798C85.8901 55.8322 86.2137 56.199 86.3918 56.2945C86.6334 56.4242 88.4359 55.6304 93.4796 53.1737C102.575 48.7433 104.658 47.7706 114.453 43.3817C119.079 41.3091 123.059 39.4864 123.298 39.3312C123.866 38.9631 123.857 38.3649 123.253 36.2764C122.256 32.827 120.014 28.5546 118.714 27.6261C117.973 27.0973 117.443 27.1396 114.84 27.9359ZM129.92 46.9235C120.054 49.1081 115.447 50.2079 109.523 51.7934C101.15 54.0346 88.6864 57.8645 88.434 58.274C88.3709 58.3764 88.9726 59.1455 89.7709 59.9833C91.2535 61.5393 92.5601 63.5508 93.514 65.7464L94.0489 66.9773L95.9861 66.8804C97.0516 66.8271 101.273 66.7344 105.367 66.6747L112.81 66.5662L117.247 65.1127C124.178 62.8431 131.037 60.8595 139.056 58.8063C139.983 58.5687 140.288 58.0827 140.552 56.4217C140.918 54.1115 140.176 49.8443 138.931 47.0991C138.331 45.7785 137.965 45.4511 137.108 45.472C136.717 45.4817 133.482 46.1348 129.92 46.9235ZM56.3567 48.2438C52.9327 49.6823 37.1788 57.301 29.9667 61.006C19.8654 66.1953 9.05071 71.9718 6.08188 73.7635C4.15976 74.9236 3.84482 75.2653 3.73037 76.3158C3.54573 78.0093 4.99438 83.1961 6.01518 84.4974C6.61819 85.2659 7.45377 85.1562 10.5436 83.9029C13.4945 82.7057 26.1383 78.1875 26.2433 78.2925C26.279 78.3284 21.8461 80.7148 16.3925 83.5956C4.95571 89.6371 0.711273 92.0137 0.29522 92.6092C0.10788 92.8773 0 93.4691 0 94.2282C0 96.3571 1.21046 99.4419 2.95742 101.765C3.96778 103.109 4.82889 103.699 5.52585 103.523C5.93166 103.421 13.6721 99.8304 23.9399 94.9812C25.4632 94.2617 30.5442 92.0005 35.2307 89.9565L43.7517 86.24L43.9916 85.3768C44.4456 83.7437 49.328 71.2276 53.4027 61.2526C54.5784 58.3741 55.7542 55.3647 56.0156 54.5651C56.2768 53.7655 56.5794 53.0027 56.688 52.8702C56.9771 52.5172 58.3919 47.946 58.2722 47.752C58.1245 47.5124 58.0553 47.53 56.3567 48.2438ZM69.9671 65.3733C69.7521 65.8788 69.4434 66.5541 69.281 66.874C69.1188 67.1938 68.7776 68.0861 68.5229 68.8566C67.936 70.6333 65.8124 74.8901 62.5499 80.8305C61.1448 83.3892 58.9263 87.5145 57.6199 89.998C56.3137 92.4813 55.082 94.7056 54.8827 94.9409C54.5297 95.3575 54.5128 95.359 54.2371 95.0018C54.0813 94.8002 53.9201 94.5385 53.8785 94.4203C53.8315 94.2863 53.649 94.3425 53.3938 94.5697C53.1686 94.77 52.6557 95.0061 52.2539 95.0941C51.852 95.1823 51.2832 95.3121 50.9899 95.3829C50.5149 95.4972 50.4619 95.4616 50.5066 95.0576C50.5387 94.7665 50.4528 94.5984 50.2667 94.5879C50.1072 94.5792 49.7323 94.4679 49.4336 94.3408C48.5845 93.9791 47.4334 93.8436 47.283 94.0876C47.0566 94.4548 46.6233 94.3235 46.5585 93.8682C46.5232 93.6203 46.3335 93.4028 46.1162 93.3613C45.907 93.3212 45.4637 93.0804 45.1313 92.8263C44.7988 92.572 44.3499 92.364 44.1337 92.364C43.615 92.364 43.313 91.9724 43.1754 91.1213C43.1133 90.7386 42.9799 90.4256 42.879 90.4256C42.4993 90.4256 35.0243 94.729 34.5835 95.2014C34.162 95.6531 34.126 95.8434 34.156 97.47C34.2277 101.362 35.897 105.246 37.8494 106.064C38.6365 106.394 36.6206 107.31 55.1967 98.1835C63.4907 94.1088 71.8427 90.0309 73.7567 89.1218C75.6707 88.2127 78.3075 86.9605 79.6164 86.3389C81.7984 85.3026 81.9789 85.177 81.7914 84.8254C81.6787 84.6147 81.5867 84.1153 81.5867 83.7162C81.5867 83.3169 81.5064 82.7224 81.4084 82.395C80.0052 77.7066 79.3979 76.0306 78.2731 73.7415C76.7421 70.6258 75.033 68.2669 73.3406 66.9333C72.6657 66.4014 72.1133 65.8931 72.1133 65.804C72.1133 65.7146 71.7185 65.3742 71.2358 65.0476L70.3583 64.4539L69.9671 65.3733Z" fill="#EE342A"/>
<path fill-rule="evenodd" clip-rule="evenodd" d="M150.664 70.5325C146.75 71.6145 144.13 75.2318 143.604 80.2808C143.352 82.6951 144.505 84.6821 146.503 85.2768C147.504 85.575 149.788 85.6542 151.319 85.4437L152.198 85.3228L152.722 83.8837C153.01 83.0922 153.208 82.4076 153.163 82.3622C153.118 82.3171 152.738 82.3756 152.319 82.4927C150.996 82.862 148.714 82.7835 147.962 82.3427C146.434 81.4481 146.06 79.8373 146.812 77.3953C147.494 75.1826 148.648 73.7819 150.388 73.053C151.326 72.6597 153.789 72.6549 154.889 73.0441L155.69 73.3277L155.908 72.2255C156.028 71.6194 156.165 70.983 156.214 70.8113C156.282 70.5672 156.105 70.4721 155.4 70.3751C153.998 70.1825 151.648 70.2606 150.664 70.5325ZM179.105 70.4191C177.18 71.0584 176.012 72.4188 175.722 74.3584C175.529 75.648 175.845 76.4088 177.481 78.5862C179.247 80.9367 179.375 81.243 178.948 82.1013C178.342 83.3183 176.728 83.4871 174.678 82.5483C174.104 82.2853 173.594 82.11 173.545 82.1589C173.496 82.2079 173.349 82.8203 173.218 83.5198C173.046 84.4385 173.038 84.8397 173.191 84.9644C173.9 85.5422 177.242 85.7597 178.465 85.3076C180.407 84.5897 181.813 82.7257 181.813 80.8683C181.813 79.5897 181.519 78.9741 179.806 76.6672C178.996 75.5753 178.333 74.553 178.333 74.3954C178.333 74.2378 178.46 73.861 178.617 73.558C179.108 72.6064 180.789 72.3007 182.398 72.8702C182.854 73.0313 183.248 73.1403 183.275 73.1125C183.455 72.9253 183.716 70.7252 183.575 70.5835C183.343 70.3507 179.713 70.2172 179.105 70.4191ZM95.5214 70.5905C95.4735 70.6705 94.7786 72.9166 93.9777 75.5819C93.1765 78.2472 92.1667 81.4239 91.7334 82.6412C91.3004 83.8585 90.946 84.9748 90.946 85.1219C90.946 85.3266 91.2254 85.3759 92.1364 85.3317L93.3267 85.2739L94.3226 81.9786C95.8706 76.8572 96.9975 73.3465 97.0704 73.4196C97.1253 73.4744 96.6822 82.2705 96.5074 84.5955L96.4564 85.2739L98.0332 85.3299L99.61 85.386L102.673 79.4843C104.358 76.2382 105.755 73.601 105.779 73.6237C105.873 73.7138 103.819 81.5619 102.794 85.0316C102.706 85.3303 102.845 85.3708 103.958 85.3708H105.222L105.54 83.9655C105.716 83.1925 106.592 79.8888 107.489 76.6238C108.386 73.3587 109.119 70.6329 109.119 70.5663C109.119 70.4996 108.215 70.4451 107.11 70.4451C105.373 70.4451 105.084 70.4912 104.974 70.7843C104.715 71.4787 99.1903 81.877 99.1188 81.8053C99.0778 81.7644 99.1797 79.4699 99.3452 76.7065C99.5107 73.9432 99.646 71.404 99.646 71.0637V70.4451H97.6274C96.5171 70.4451 95.5696 70.5104 95.5214 70.5905ZM111.53 70.6874C111.481 70.8208 110.916 72.8487 110.276 75.1942C109.636 77.5397 108.722 80.6937 108.246 82.2033C107.769 83.7127 107.379 85.0429 107.379 85.1594C107.379 85.4457 116.197 85.4563 116.374 85.1702C116.441 85.0599 116.66 84.3991 116.859 83.7019L117.22 82.434L114.141 82.5724C111.47 82.6923 111.046 82.6712 110.947 82.4142C110.885 82.2512 111.066 81.3552 111.35 80.4232L111.865 78.7289L114.749 78.8217L117.633 78.9144L117.932 77.8297C118.098 77.233 118.267 76.636 118.31 76.5026C118.369 76.3162 117.721 76.2603 115.493 76.2603C113.298 76.2603 112.603 76.2018 112.616 76.018C112.625 75.8849 112.821 75.2087 113.051 74.5158L113.469 73.2558L116.695 73.2027L119.921 73.1496L120.224 72.1067C120.747 70.3017 121.105 70.4451 116.073 70.4451C112.688 70.4451 111.599 70.5033 111.53 70.6874ZM122.072 71.2689C121.406 73.8986 119.467 80.7702 118.819 82.7955C118.403 84.0975 118.11 85.2096 118.167 85.2669C118.359 85.4594 123.73 85.373 124.889 85.1588C127.481 84.6794 129.741 82.8174 131.041 80.09C132.391 77.2572 132.74 74.0672 131.884 72.3874C131.029 70.7091 130.256 70.4823 125.319 70.4593L122.281 70.4451L122.072 71.2689ZM135.723 70.7843C135.667 70.9708 135.223 72.6064 134.737 74.4188C133.985 77.2247 131.899 84.3408 131.6 85.1227C131.524 85.32 132.437 85.3708 136.061 85.3708H140.616L141.011 84.0415C141.228 83.3103 141.406 82.6493 141.406 82.5726C141.406 82.496 140.026 82.495 138.34 82.5708C136.246 82.6648 135.234 82.6433 135.147 82.503C135.077 82.3899 135.266 81.5279 135.565 80.5872L136.11 78.8772H138.988H141.866L142.213 77.7141C142.404 77.0745 142.562 76.4639 142.564 76.3573C142.566 76.234 141.512 76.1845 139.669 76.2216C137.359 76.2679 136.787 76.2285 136.85 76.0277C136.893 75.8891 137.116 75.189 137.345 74.472L137.761 73.1682L140.974 73.1151L144.187 73.062L144.534 71.8989C144.725 71.2592 144.882 70.6705 144.883 70.5905C144.885 70.5104 142.847 70.4451 140.356 70.4451C136.209 70.4451 135.817 70.4738 135.723 70.7843ZM158.329 70.6874C158.286 70.8208 157.766 72.7415 157.173 74.9562C156.579 77.1706 155.693 80.2672 155.203 81.8375C154.713 83.4076 154.269 84.8451 154.216 85.0316C154.132 85.333 154.283 85.3708 155.572 85.3708H157.023L157.157 84.6439C157.312 83.8017 160.379 73.0872 160.826 71.826C161.308 70.4639 161.294 70.4451 159.767 70.4451C158.849 70.4451 158.382 70.524 158.329 70.6874ZM163.58 70.5839C163.53 70.6675 162.744 73.3527 161.832 76.5511C160.92 79.7495 159.953 83.0139 159.683 83.8056C159.413 84.5972 159.193 85.2731 159.193 85.3078C159.193 85.3425 159.756 85.3708 160.444 85.3708H161.695L161.977 84.3532C163.745 77.9747 165.058 73.4235 165.164 73.3085C165.261 73.2029 166.339 81.8788 166.602 84.8862C166.633 85.2441 166.796 85.2782 168.718 85.329C170.282 85.3703 170.819 85.3222 170.877 85.1351C170.92 84.9983 171.449 83.0981 172.054 80.9125C172.658 78.727 173.578 75.5179 174.099 73.7811C174.62 72.0445 175.046 70.5792 175.046 70.5252C175.046 70.4709 174.506 70.4527 173.847 70.4843L172.648 70.542L170.959 76.5226C170.03 79.8121 169.237 82.5371 169.196 82.5784C169.155 82.6195 168.779 79.9282 168.362 76.5976L167.603 70.542L165.636 70.487C164.555 70.4567 163.63 70.5004 163.58 70.5839ZM128.525 73.3434C129.205 73.6028 129.483 74.2366 129.471 75.5065C129.452 77.4393 128.631 79.6717 127.438 81.0348C126.451 82.1616 125.184 82.653 123.26 82.6551L121.644 82.6571L121.77 82.124C121.839 81.8309 122.424 79.6936 123.07 77.3749L124.244 73.1589H126.143C127.187 73.1589 128.259 73.2418 128.525 73.3434ZM79.926 89.3517C78.0862 89.9243 76.8089 91.6555 76.7915 93.5999C76.7805 94.8302 77.1654 95.6105 78.8395 97.7518C80.3059 99.6276 80.4333 99.9242 80.1097 100.708C79.6097 101.918 77.7168 102.211 75.8952 101.361C75.3264 101.095 74.7924 100.878 74.7087 100.878C74.625 100.878 74.4471 101.459 74.3135 102.169C74.0282 103.685 74.1243 103.822 75.7034 104.162C79.0902 104.89 81.9067 103.449 82.7456 100.559C83.1866 99.0393 82.9 98.2446 80.9675 95.6293C79.1861 93.2185 79.1061 92.9116 80.0173 91.9831C80.6222 91.3667 82.0753 91.219 83.3275 91.6468C83.8321 91.8193 84.2737 91.9314 84.3089 91.8963C84.457 91.7476 84.8046 89.6159 84.6979 89.5091C84.241 89.0511 81.2126 88.9511 79.926 89.3517ZM115.156 89.3388C113.267 89.9298 112.025 91.6458 112.021 93.6672C112.019 94.9086 112.279 95.4476 113.896 97.5551C115.494 99.6369 115.622 99.9199 115.306 100.685C114.797 101.917 112.919 102.218 111.082 101.361C110.513 101.095 109.979 100.878 109.895 100.878C109.812 100.878 109.634 101.459 109.5 102.169C109.215 103.685 109.311 103.822 110.89 104.162C114.388 104.914 117.365 103.283 118.046 100.242C118.341 98.9279 117.945 97.9596 116.13 95.5612C114.367 93.2303 114.286 92.9186 115.204 91.9831C115.809 91.3667 117.262 91.219 118.514 91.6468C119.019 91.8193 119.46 91.9314 119.496 91.8963C119.644 91.7476 119.991 89.6159 119.885 89.5091C119.435 89.0585 116.4 88.9491 115.156 89.3388ZM152.861 89.3409C151.266 89.791 150.303 90.3711 149.029 91.6489C147.126 93.5567 145.862 96.6607 145.856 99.4439C145.849 102.323 147.376 103.953 150.384 104.276C154.989 104.771 159.098 101.376 160.266 96.1127C161.002 92.7928 160.163 90.5061 157.839 89.5014C156.862 89.079 154.104 88.9902 152.861 89.3409ZM226.511 89.4215C224.82 90.0069 223.696 91.3933 223.45 93.1966C223.279 94.4408 223.626 95.2369 225.332 97.5237C227.06 99.8397 227.23 100.461 226.36 101.28C225.632 101.966 223.688 101.952 222.274 101.25L221.266 100.75L221.067 101.735C220.691 103.601 220.693 103.61 221.543 103.937C222.021 104.122 222.979 104.239 224.056 104.246C225.571 104.256 225.921 104.191 226.763 103.749C228.475 102.848 229.553 101.236 229.562 99.5635C229.568 98.3985 229.254 97.7625 227.566 95.5155C225.946 93.3594 225.788 92.824 226.548 92.0624C227.325 91.2832 228.65 91.2207 230.678 91.8678C231.1 92.0027 231.113 91.9686 231.113 90.6542V89.3017L230.098 89.1794C228.473 88.9838 227.606 89.0424 226.511 89.4215ZM90.297 90.1436C90.1133 90.5297 88.0963 93.7571 85.8146 97.3159C83.5328 100.874 81.666 103.829 81.666 103.883C81.666 103.936 82.2671 103.98 83.0015 103.98H84.3371L85.0134 102.746C85.3853 102.068 86.1743 100.759 86.7669 99.8383L87.844 98.1643H89.9501H92.0563L92.1947 100.672C92.2707 102.051 92.2761 103.36 92.2065 103.58C92.0857 103.961 92.152 103.98 93.655 103.98H95.2301L95.1299 103.446C95.0748 103.153 94.8769 99.8821 94.6901 96.1774L94.3506 89.4415H92.4907H90.6309L90.297 90.1436ZM99.745 89.6838C99.6999 89.8171 98.9657 92.3685 98.1133 95.3536C97.2609 98.3388 96.3437 101.429 96.0748 102.22C95.806 103.012 95.586 103.732 95.586 103.82C95.586 103.908 96.131 103.98 96.797 103.98H98.0083L99.7315 97.8757C100.679 94.5184 101.475 91.7926 101.5 91.8182C101.538 91.8563 102.423 99.1845 102.846 102.962L102.961 103.98H105.07H107.179L107.3 103.446C107.531 102.429 109.148 96.6917 110.194 93.1778C110.773 91.2347 111.246 89.5993 111.246 89.5432C111.246 89.4872 110.681 89.4415 109.989 89.4415C109.112 89.4415 108.733 89.5148 108.734 89.6838C108.734 89.8171 108.019 92.4848 107.144 95.6118C106.099 99.3467 105.506 101.176 105.416 100.942C105.34 100.747 105.008 98.3194 104.678 95.5475C104.348 92.7755 104.031 90.2676 103.973 89.9745L103.869 89.4415H101.848C100.404 89.4415 99.8038 89.5107 99.745 89.6838ZM127.024 92.9777C126.175 96.1499 124.24 102.756 123.898 103.649C123.776 103.968 123.886 103.993 125.179 103.94L126.593 103.883L126.853 102.816C126.996 102.23 127.383 100.808 127.714 99.6575L128.315 97.5644L130.848 97.595L133.381 97.6256L133.599 96.8731C133.718 96.4593 133.873 95.8609 133.943 95.5432L134.069 94.9659L131.533 95.0301C129.148 95.0906 129.003 95.0731 129.107 94.7393C129.167 94.5441 129.374 93.861 129.567 93.2214L129.918 92.0583L132.784 91.9614L135.65 91.8645L136.012 90.7014C136.211 90.0618 136.375 89.5165 136.376 89.4899C136.378 89.4634 134.487 89.4419 132.174 89.4425L127.969 89.4434L127.024 92.9777ZM137.733 89.5252C137.733 89.8092 135.969 96.1631 134.918 99.6614C134.233 101.944 133.673 103.854 133.673 103.904C133.673 103.955 134.299 103.971 135.064 103.94L136.455 103.883L137.834 98.8427C138.592 96.0708 139.365 93.3448 139.552 92.7852L139.89 91.7676H141.421C143.693 91.7676 144.082 92.2981 143.212 94.2073C142.816 95.0751 141.688 95.6444 140.365 95.6444C139.076 95.6444 139.151 95.1966 139.664 99.8298C139.876 101.739 140.05 103.454 140.051 103.64C140.052 103.933 140.251 103.98 141.503 103.98C142.551 103.98 142.953 103.911 142.953 103.732C142.953 103.595 142.78 102.265 142.569 100.776C142.358 99.2861 142.184 97.928 142.182 97.7576C142.181 97.5805 142.522 97.2932 142.978 97.0866C144.915 96.2112 146.239 94.0415 146.239 91.7455C146.239 90.71 146.174 90.5093 145.674 90.0081L145.109 89.4415H141.421C139.392 89.4415 137.733 89.4791 137.733 89.5252ZM162.896 93.6575C162.246 95.9762 161.291 99.2473 160.773 100.927L159.831 103.98H161.065C161.882 103.98 162.324 103.898 162.375 103.737C162.417 103.604 163.175 100.903 164.058 97.7353C164.941 94.5676 165.717 92.038 165.783 92.114C165.918 92.2717 167.123 102.391 167.121 103.35L167.119 103.98H169.343C171.391 103.98 171.566 103.951 171.566 103.615C171.566 103.215 174.593 92.5606 175.23 90.7195C175.448 90.0899 175.626 89.5446 175.626 89.508C175.626 89.4715 175.064 89.4415 174.377 89.4415H173.128L172.916 90.2653C172.8 90.7183 172.037 93.4443 171.221 96.3228L169.738 101.557L169.41 99.1335C169.23 97.8009 168.884 95.0751 168.641 93.076L168.2 89.4415H166.139H164.078L162.896 93.6575ZM176.418 90.2653C176.288 90.7183 176.138 91.2419 176.084 91.4284C175.996 91.7337 176.162 91.7676 177.74 91.7676C178.704 91.7676 179.493 91.8236 179.493 91.892C179.493 92.3489 176.484 102.228 175.915 103.64C175.792 103.946 175.925 103.98 177.245 103.98C178.689 103.98 178.714 103.971 178.825 103.446C178.886 103.153 179.645 100.406 180.511 97.3405L182.085 91.7676H183.938H185.791L186.101 90.6045L186.412 89.4415H181.533H176.654L176.418 90.2653ZM187.517 89.6838C187.471 89.8171 186.948 91.7143 186.355 93.8998C185.458 97.2046 183.841 102.614 183.424 103.702C183.338 103.928 183.59 103.98 184.785 103.98C186.227 103.98 186.254 103.971 186.372 103.446C186.743 101.808 187.17 100.27 188.593 95.4505C189.458 92.5187 190.211 89.9672 190.266 89.7807C190.353 89.4801 190.207 89.4415 188.982 89.4415C188.05 89.4415 187.573 89.5204 187.517 89.6838ZM192.55 89.6838C192.508 89.8171 192.027 91.5834 191.481 93.6091C190.557 97.0375 188.638 103.5 188.444 103.838C188.397 103.92 190.423 103.963 192.947 103.935L197.534 103.883L197.889 102.623C198.085 101.93 198.245 101.319 198.245 101.266C198.246 101.212 196.807 101.198 195.048 101.234L191.85 101.299L191.987 100.75C192.063 100.447 192.306 99.6327 192.528 98.9397L192.931 97.6797L195.829 97.6462L198.726 97.6126L199.063 96.4831C199.249 95.8619 199.402 95.2664 199.404 95.1598C199.405 95.0365 198.386 94.9888 196.603 95.0287C193.398 95.1005 193.58 95.2346 194.192 93.2464L194.585 91.9707L197.809 91.9176L201.033 91.8645L201.278 91.0135C201.413 90.5454 201.575 90.0003 201.638 89.802C201.747 89.4576 201.549 89.4415 197.19 89.4415C193.71 89.4415 192.609 89.4991 192.55 89.6838ZM202.404 92.8822C201.893 94.7744 200.998 97.8929 200.416 99.812C199.834 101.731 199.314 103.458 199.261 103.649C199.172 103.965 199.295 103.992 200.579 103.94L201.996 103.883L203.374 98.8427C204.132 96.0708 204.905 93.3448 205.092 92.7852L205.43 91.7676H206.961C208.251 91.7676 208.556 91.8308 208.892 92.1679C209.203 92.4797 209.262 92.7044 209.16 93.1855C208.819 94.7831 207.679 95.6444 205.905 95.6444C204.616 95.6444 204.691 95.1966 205.204 99.8298C205.416 101.739 205.59 103.454 205.591 103.64C205.592 103.933 205.791 103.98 207.043 103.98C208.091 103.98 208.493 103.911 208.493 103.732C208.493 103.595 208.32 102.265 208.109 100.776C207.898 99.2861 207.724 97.928 207.722 97.7576C207.721 97.5805 208.062 97.2932 208.518 97.0866C210.455 96.2112 211.779 94.0415 211.779 91.7455C211.779 90.71 211.714 90.5093 211.214 90.0081L210.649 89.4415H206.992H203.335L202.404 92.8822ZM214.197 89.6838C214.151 89.8171 213.628 91.7143 213.035 93.8998C212.137 97.2096 210.521 102.614 210.103 103.705C210.01 103.947 210.637 103.979 214.589 103.935L219.183 103.883L219.535 102.623C219.728 101.93 219.889 101.319 219.893 101.266C219.897 101.212 218.456 101.198 216.691 101.234C213.652 101.296 213.488 101.281 213.587 100.944C213.644 100.748 213.885 99.9075 214.121 99.0767L214.55 97.5659L217.466 97.5936L220.382 97.6214L220.599 96.871C220.718 96.4583 220.873 95.8609 220.943 95.5432L221.069 94.9659L218.165 95.0284C215.824 95.0786 215.277 95.041 215.342 94.8345C215.386 94.6936 215.61 93.9915 215.838 93.2745L216.254 91.9707L219.461 91.9176L222.668 91.8645L223.008 90.653L223.349 89.4415H218.815C215.361 89.4415 214.261 89.4992 214.197 89.6838ZM91.9805 93.7544L92.1023 95.8382H90.6473C89.199 95.8382 89.1934 95.8363 89.4233 95.4021C89.8827 94.5341 91.7597 91.5499 91.8087 91.6094C91.8363 91.6431 91.9136 92.6083 91.9805 93.7544ZM156.389 92.1287C157.649 92.8465 157.957 94.5841 157.24 96.9324C156.259 100.147 154.543 101.648 151.846 101.651C149.731 101.653 148.751 100.719 148.755 98.7071C148.76 96.6002 149.714 94.2964 151.12 92.9969C151.887 92.2878 152.464 91.9955 153.683 91.6986C154.316 91.5441 155.768 91.7749 156.389 92.1287Z" fill="white"/>
</svg>
