<svg width="218" height="241" viewBox="0 0 218 241" fill="none" xmlns="http://www.w3.org/2000/svg">
<path fill-rule="evenodd" clip-rule="evenodd" d="M160.331 68.7486C162.61 72.9156 163.539 77.1784 163.262 82.2019C162.722 92.0232 156.768 99.9519 147.873 102.696C145.059 103.564 143.212 103.682 132.414 103.682H120.15V115.804V127.926L122.664 130.384C124.046 131.736 125.183 132.626 125.19 132.362C125.198 132.098 125.254 126.716 125.316 120.402L125.429 108.923L133.085 108.785C140.055 108.66 140.787 108.561 141.26 107.684C141.574 107.102 142.524 106.608 143.658 106.439C152.317 105.148 157.314 102.383 161.374 96.6364C163.3 93.9103 163.685 93 165.5 93C167.331 93 167.51 92.7528 168 91C168.738 88.3612 168.527 82.4469 167.71 79.4009C166.73 75.745 165.679 71.4248 162.5 68L158.5 65L160.331 68.7486ZM120.15 80.2244V87.5H122.5H125.316L125.429 82.8452V77.4794H136.363C142.377 77.4794 147.297 77.3281 147.297 77.1435C147.297 76.9583 146.686 76.0859 145.938 75.2039C143.625 72.4749 142.413 72.2388 130.723 72.2388H120.15V80.2244ZM32.524 84.4723C33.8351 87.2528 33.9326 87.8966 33.9225 93.7002C33.9024 105.028 30.9163 112.009 20.7307 124.54C17.0362 129.086 16.9673 129.221 17.2674 131.393C17.6942 134.484 18.8193 136.936 20.1309 137.633C21.2339 138.219 21.8509 137.787 21.5 135L20.7307 132.5L24.2774 128C34.4288 115.51 37.427 108.493 37.4436 97.1834C37.4521 91.1553 38.5489 90.6239 37 87.5C37.153 85.3045 34.3597 83.3175 33.5 82.5L30.5 80.5L32.524 84.4723ZM102.052 92.2029V100.189H90.4735C77.5305 100.189 76.1495 100.454 74.4156 103.278C72.5144 106.374 73.3303 111.514 76.0198 113.384C77.7999 114.623 80.5 113.991 80.5 112C80.5 109.765 79.7203 107.337 81.129 106.535C81.8383 106.131 85.9787 105.845 93.5059 105.679L104.817 105.429L104.954 96.1083C105.089 86.8879 105.228 84.7712 104.041 83.5C103.381 82.7933 102.676 82.8452 102.5 82.8452C102.325 82.8452 102.052 87.8108 102.052 92.2029ZM23.7088 88.5529C21.9613 91.9922 20.4919 96.7217 19.1572 103.201C18.1552 108.065 16.8049 119.534 17.189 119.916C17.3081 120.034 18.2633 119.014 19.3125 117.648C21.0147 115.432 24.1434 110.016 25 105C26.2005 97.9731 25.2743 95.8872 27.1192 92.2538C28.3831 89.7643 28.4766 89.2662 27.9683 87.711C27.5777 86.5141 27.0494 85.9147 26.2902 85.8079C25.3854 85.6796 24.9128 86.1827 23.7088 88.5529ZM189.27 107.7C192.476 113.779 192.542 114.416 192.542 139.498C192.542 164.545 192.632 163.811 189.253 166.369C187.375 167.791 184.059 168.238 181.482 167.416C180.534 167.114 178.822 168.427 181 170.5C185.274 174.566 191.266 174.15 195.056 170.751C196.606 169.361 197.127 168.435 197.582 166.257C198.364 162.519 197.959 122.336 197.108 119.168C196.001 115.05 195.548 109.272 192.542 106.134L187.545 104.431L189.27 107.7ZM161.708 111.87C158.827 112.656 157.009 113.904 155.466 116.155C154.492 117.575 154.335 118.454 154.335 122.472V126.835H156.785H159.235L159.479 124.608C159.793 121.372 161.006 119.744 164.379 118.031C166.477 116.966 167.788 116.659 170.228 116.659C171.958 116.659 173.953 116.878 174.663 117.146C176.3 117.763 176.306 117.153 174.684 115.239C172.048 112.13 166.262 110.627 161.708 111.87ZM107.582 115.898C108.829 117.179 111.368 118.971 113.239 119.89L116.633 121.558L115.645 120.18C114.464 118.533 110.129 115.511 107.331 114.384L105.32 113.574L107.582 115.898ZM49.0152 123.247C47.8142 127.004 47.6724 133.083 48.7282 135.569L49.446 137.26L50.362 136.138C50.8758 135.507 51.2774 134.211 51.2774 133.183C51.2774 132.175 51.6288 130.122 52.0587 128.621C52.4885 127.121 52.9636 125.408 53.1139 124.816C53.3084 124.051 53.1955 122.292 52 121L50.362 119.251L49.0152 123.247ZM40.0869 124.021C38.3083 125.864 37.1998 128.646 37.2088 131.242C37.2335 138.05 41.4473 133.626 42.0807 126.126C42.2566 124.039 42.1817 122.648 41.8927 122.648C41.6277 122.648 40.8153 123.266 40.0869 124.021ZM115.496 125.144C117.712 129.084 118.642 132.71 118.642 137.41C118.642 147.086 113.436 155.344 104.578 159.72L101.323 161.329L83.8311 161.488C69.7062 161.617 65.8629 161.509 63.8646 160.927L61.3902 160.207L64.1722 162.764C65.7025 164.17 67.6686 165.589 68.5419 165.917C69.6529 166.334 75.2723 166.521 87.2561 166.541C101.483 166.564 104.846 166.435 107.114 165.777C117.725 162.696 125.439 150.242 123.689 139.014C122.829 133.499 121.642 130.148 116.633 124.608L113.952 122.399L115.496 125.144ZM70.1294 129.892C75.2778 134.692 76.1606 134.94 90.9923 135.766C98.043 136.159 103.915 136.391 104.041 136.282C104.557 135.837 102.366 132.703 101.125 132.111C100.304 131.719 94.4551 131.157 85.9209 130.65C72.4631 129.85 71.9785 129.784 69.5825 128.452L67.1131 127.079L70.1294 129.892ZM57.3056 134.154C57.2985 135.99 54.4672 140.525 52.6378 141.633C51.7515 142.17 50.1564 142.609 49.0931 142.61L47.1607 142.612L49.2666 144.359C52.8967 147.37 56.5007 146.346 59.2943 141.51C61.2982 138.04 61.6858 136.104 59.5 134C57.7621 132.328 57.3101 132.949 57.3056 134.154ZM9.04645 136.731C7.25073 138.361 4.48024 140.722 2.89064 141.976C0.631416 143.759 0 144.556 0 145.627C0 147.053 0.754583 147.603 2.70815 147.603C3.74175 147.603 7.72982 144.621 12.1321 140.555L13.959 138.869L13.1351 136.318L12.3111 133.766L9.04645 136.731ZM31.1485 138.89C30.488 139.589 28.5324 140.851 26.8025 141.696C24.0798 143.027 23.2523 143.204 20.6271 143.016L17.5957 142.798L18.7268 144C22.3725 147.877 28.9632 147.316 34.284 142.678C35.2703 141.818 36.2069 141.115 36.3658 141.115C36.5241 141.115 37.5125 141.697 38.5616 142.408C40.109 143.457 40.8822 143.656 42.6573 143.462C43.8608 143.33 45.1729 142.898 45.5726 142.5C46.207 141.871 46.1266 141.516 44.9417 139.719L43.5838 137.66L42.1134 138.888C40.1467 140.531 37.4436 140.524 34.9868 138.869C32.7004 137.329 32.626 137.329 31.1485 138.89ZM154.335 150.519C154.335 160.937 154.284 161.518 153.177 163.594C151.155 167.391 146.836 168.868 142.499 167.247C141.958 167.045 142.76 168.037 144.281 169.451C145.801 170.865 147.807 172.281 148.738 172.597C152.41 173.847 156.839 171.947 158.537 168.393C159.225 166.955 159.362 164.829 159.362 155.638V144.609H167.908H176.583V142.113V139.618H165.395H154.335V150.519ZM141.264 203.253C141.264 203.39 141.377 203.503 141.516 203.503C141.654 203.503 141.767 203.39 141.767 203.253C141.767 203.116 141.654 203.004 141.516 203.004C141.377 203.004 141.264 203.116 141.264 203.253ZM77.9216 204.75C77.9216 204.888 78.0347 205 78.173 205C78.3112 205 78.4243 204.888 78.4243 204.75C78.4243 204.613 78.3112 204.501 78.173 204.501C78.0347 204.501 77.9216 204.613 77.9216 204.75Z" fill="#6F614F"/>
<path fill-rule="evenodd" clip-rule="evenodd" d="M101.343 0.451311C101.343 0.699532 101.052 0.902622 100.697 0.902622C99.4323 0.902622 94.2661 3.41462 87.8306 7.15779C84.2385 9.24736 79.7794 11.8176 77.9215 12.8696C76.0635 13.922 72.7192 15.855 70.4897 17.1652C68.2601 18.4758 65.1185 20.2891 63.5083 21.1954C61.898 22.1016 56.4255 25.2576 51.3471 28.2096C46.2687 31.1612 40.8975 34.259 39.4112 35.0939C37.9248 35.9284 35.9993 37.031 35.1322 37.5437C34.2652 38.0568 31.6303 39.5953 29.2769 40.9632C26.9235 42.3312 23.8832 44.1003 22.5207 44.8951C21.1582 45.6894 18.6246 47.12 16.8905 48.0736C14.8335 49.2046 12.4066 51.1516 9.90909 53.6749C6.79989 56.8155 5.67881 58.3477 3.94157 61.8296C2.76509 64.1877 1.55212 67.1325 1.24674 68.3736C0.940913 69.6147 0.526083 70.7493 0.325198 70.8951C0.123864 71.0408 0.0193678 72.6863 0.0923347 74.5525L0.225207 77.945L10.3766 72.031C15.9599 68.7784 23.2566 64.5113 26.5915 62.5481C29.9264 60.5853 35.0872 57.5656 38.0599 55.8371C50.1247 48.8233 57.516 44.4848 59.0893 43.4937C60.0031 42.9179 62.334 41.559 64.269 40.4736C66.204 39.3886 71.3342 36.4063 75.6694 33.8461C94.3359 22.8237 100.458 19.4068 102.306 18.9799C105.1 18.3341 111.102 18.3986 113.815 19.104C115.085 19.4339 117.612 20.5816 119.431 21.6543C121.249 22.7267 124.156 24.4168 125.89 25.4097C127.625 26.4026 130.361 27.9759 131.971 28.9056C135.901 31.1743 147.463 37.7711 149.988 39.1846C151.102 39.8088 154.196 41.605 156.862 43.1765C159.528 44.7479 161.806 46.0337 161.922 46.0337C162.401 46.0337 166.919 48.9329 167.441 49.5751C168.269 50.5933 168.129 51.7753 167.056 52.8503C165.495 54.415 164.674 54.0589 149.762 45.3545C140.836 40.1437 117.168 26.6756 114.63 25.3628C109.602 22.7619 105.07 22.9875 99.6454 26.1097C96.2902 28.0404 85.0092 34.5871 78.3719 38.4553C70.8086 42.8623 57.5538 50.5938 53.1488 53.1671C50.7954 54.5423 47.7551 56.3092 46.3926 57.0935C36.2421 62.9398 29.0769 67.2137 21.3946 72.0048C6.75575 81.1344 2.15658 87.9591 1.06613 102.169C0.902178 104.308 0.594996 106.058 0.383752 106.058C0.172959 106.058 0 112.982 0 121.445V136.831L2.13946 135.03C3.31594 134.039 5.95131 131.567 7.99483 129.537L11.7107 125.845L11.7193 120.352C11.7346 110.236 13.8556 97.8799 17.0968 89.0175C19.2439 83.1477 22.0734 79.3477 24.7335 78.7623C26.8703 78.2921 29.4854 79.261 31.1222 81.1295C31.9343 82.0569 33.0171 83.0186 33.5279 83.2669C34.0386 83.5151 35.0647 84.9367 35.8079 86.426C37.1402 89.0964 37.1591 89.2341 37.1591 96.3549C37.1591 104.421 36.5871 107.471 34.0283 113.053C32.1843 117.077 27.2896 124.288 23.5206 128.535L20.5956 131.83L20.8834 134.591C21.042 136.109 21.273 137.453 21.3969 137.577C21.9378 138.119 26.3375 135.482 28.7634 133.162C31.0294 130.995 31.4866 130.279 31.9311 128.201C33.795 119.493 39.9922 114.32 44.9395 117.343C45.7507 117.838 46.9146 118.243 47.5258 118.243C48.1492 118.243 48.8838 118.64 49.1995 119.146C49.509 119.643 49.9995 120.049 50.2895 120.049C51.1323 120.049 53.1488 122.729 53.1488 123.849C53.1488 124.412 52.7731 125.97 52.3137 127.312C51.3219 130.209 50.6913 134.041 51.207 134.037C51.4079 134.035 51.9178 133.426 52.3394 132.683C53.537 130.574 55.4882 130.802 58.4488 133.398C61.3323 135.925 61.4656 137.102 59.3127 141.035C58.1263 143.202 57.4079 143.955 55.7116 144.808C52.7803 146.281 50.8183 145.881 48.4194 143.322L46.6178 141.401L45.2665 142.231C43.2545 143.467 40.1485 143.328 38.0626 141.91L36.3637 140.754L34.6282 142.152C31.6528 144.548 27.5752 146.226 24.7727 146.208C23.4102 146.2 21.8734 145.946 21.3572 145.645C20.0056 144.855 18.0165 143.209 18.0165 142.88C18.0165 142.726 17.0918 141.711 15.9613 140.626L13.9061 138.653L11.3446 140.972C4.99598 146.72 4.16452 147.257 1.99353 147.012L0 146.787V158.466C0 165.951 0.161698 170.144 0.450413 170.144C0.698141 170.144 0.900826 170.541 0.900826 171.027C0.900826 172.669 3.04795 177.848 5.24551 181.505C7.87412 185.88 12.7809 190.662 17.0581 193.017C18.6998 193.921 21.1582 195.312 22.5207 196.11C23.8832 196.907 27.1261 198.793 29.7273 200.302C32.3284 201.811 35.3687 203.575 36.4835 204.222C37.5982 204.869 40.6385 206.627 43.2397 208.128C45.8408 209.63 49.2865 211.62 50.8967 212.549C52.5069 213.48 56.0539 215.52 58.7789 217.084C61.5039 218.647 65.5576 220.989 67.7872 222.286C70.0167 223.584 73.5637 225.618 75.6694 226.804C77.7751 227.992 80.2073 229.414 81.0744 229.965C82.9148 231.135 92.0694 236.355 95.0903 237.957C96.2344 238.564 98.1095 239.338 99.2567 239.677C100.404 240.017 101.343 240.453 101.343 240.647C101.343 240.841 104.789 241 109 241C113.805 241 116.657 240.832 116.657 240.549C116.657 240.3 116.948 240.097 117.303 240.097C118.568 240.097 123.734 237.585 130.169 233.842C133.761 231.753 138.221 229.182 140.079 228.13C141.936 227.078 145.281 225.145 147.51 223.835C149.74 222.524 152.882 220.708 154.492 219.799C158.697 217.424 166.164 213.124 171.382 210.073C173.86 208.624 177.204 206.697 178.814 205.791C180.424 204.884 183.566 203.065 185.795 201.749C190.927 198.718 195.146 196.3 199.907 193.661C204.999 190.839 209.984 186.123 212.754 181.508C214.953 177.846 217.099 172.667 217.099 171.027C217.099 170.541 217.302 170.144 217.55 170.144C217.847 170.144 218 153.295 218 120.5C218 87.7046 217.847 70.8558 217.55 70.8558C217.302 70.8558 217.099 70.4587 217.099 69.9735C217.099 68.3325 214.953 63.1537 212.754 59.4918C209.984 54.8767 204.999 50.1609 199.907 47.3389C195.146 44.6996 190.927 42.2824 185.795 39.2514C183.566 37.9349 180.424 36.1157 178.814 35.2095C177.204 34.3028 173.86 32.3779 171.382 30.9324C168.905 29.4864 164.04 26.6824 160.572 24.7016C157.104 22.7203 152.442 20.0319 150.213 18.7267C147.983 17.422 144.436 15.3825 142.331 14.1955C140.225 13.0081 137.793 11.5856 136.926 11.0346C135.085 9.86475 125.931 4.64489 122.91 3.04319C121.766 2.43618 119.891 1.66218 118.743 1.32279C117.596 0.983406 116.657 0.546989 116.657 0.352925C116.657 0.158861 113.211 0 109 0C104.195 0 101.343 0.168339 101.343 0.451311ZM190.8 53.0538C191.075 53.4126 191.531 53.706 191.813 53.706C192.095 53.706 192.34 53.9601 192.358 54.2701C192.375 54.5806 192.467 55.4341 192.562 56.1674C192.799 57.9944 191.576 61.5308 190.287 62.7439C188.639 64.2951 186.349 63.6863 184.844 61.2979C183.855 59.7278 183.729 59.1488 183.992 57.3711C184.31 55.2143 185.264 53.706 186.312 53.706C186.643 53.706 187.169 53.2921 187.481 52.7858C188.116 51.7541 189.914 51.8994 190.8 53.0538ZM178.015 56.5335C178.22 56.8399 178.286 57.6491 178.162 58.3319C177.977 59.3487 178.099 59.573 178.839 59.573C180.09 59.573 180.369 60.616 179.732 62.8983C179.172 64.9012 177.523 66.3427 175.793 66.3427C174.579 66.3427 172.209 63.6863 171.836 61.9072C171.308 59.3948 171.93 57.3837 173.546 56.3746C175.079 55.4178 177.323 55.4977 178.015 56.5335ZM203.492 56.7031C204.06 56.8552 204.82 57.5534 205.181 58.2539C206.342 60.5041 205.788 65.4401 204.374 65.4401C204.051 65.4401 203.452 65.7953 203.043 66.2299C201.37 68.0058 200.887 68.2035 198.942 67.9115C197.372 67.6754 196.908 67.3753 196.426 66.2827C195.565 64.3353 196.13 61.4523 197.743 59.5618C198.479 58.6993 199.081 57.8409 199.082 57.655C199.082 57.469 199.476 57.3165 199.957 57.3165C200.438 57.3165 200.956 57.1134 201.11 56.8652C201.428 56.3493 202.023 56.3087 203.492 56.7031ZM147.679 57.7154C151.667 58.9588 153.865 60.4156 157.883 64.4765C159.858 66.4718 162.135 68.7455 162.944 69.5294C165.171 71.6876 167.483 76.9092 168.105 81.1859C168.619 84.7192 168.252 89.9345 167.331 92.1802C167.067 92.8238 167.245 92.97 168.295 92.97C169.004 92.97 170.944 93.36 172.608 93.8366C178.052 95.3967 182.816 98.5361 186.504 102.993C187.797 104.554 189.173 105.906 189.563 105.998C191.321 106.406 195.03 112.347 196.646 117.341C197.361 119.55 197.469 122.275 197.631 142.163C197.757 157.705 197.657 165.203 197.304 166.804C196.266 171.511 190.874 174.179 186.344 172.228C184.725 171.531 181.066 168.497 181.066 167.852C181.066 167.624 180.247 166.616 179.246 165.613C178.246 164.61 177.232 163.277 176.994 162.65C176.757 162.023 176.562 157.559 176.562 152.729V143.949L167.892 144.071L159.221 144.194L158.996 155.928C158.783 167.006 158.717 167.738 157.806 169.016C156.288 171.145 155.311 171.854 153.061 172.457C149.541 173.4 147.774 172.573 142.937 167.712C139.73 164.489 138.699 163.141 138.297 161.644C137.93 160.281 137.822 153.239 137.926 137.514C138.084 113.738 138.001 114.715 140.386 108.487C140.584 107.971 139.293 107.863 132.92 107.863H125.215V119.597C125.215 128.689 125.088 131.329 124.652 131.321C123.561 131.301 119.81 127.268 119.81 126.117C119.81 125.51 119.632 125.013 119.414 125.013C119.196 125.013 118.756 124.377 118.434 123.599C117.61 121.607 115.822 119.597 114.872 119.597C112.544 119.597 106.3 115.397 106.298 113.829C106.298 113.511 105.993 113.134 105.622 112.991C105.091 112.787 104.946 111.869 104.946 108.718V104.704H93.9778C83.3431 104.704 82.9639 104.735 81.5243 105.72C79.4457 107.142 78.3174 109.434 78.4714 111.925L78.5971 113.956L89.8574 114.516C106.045 115.32 107.262 115.738 114.659 123.023C121.998 130.251 123.583 133.611 123.585 141.937C123.586 146.76 123.452 147.699 122.36 150.512C119.971 156.666 115.501 161.677 109.99 164.378L106.973 165.857L88.7314 165.994C78.6985 166.069 69.8816 166.017 69.1384 165.879C67.6133 165.595 62.6074 161.725 62.6074 160.83C62.6074 160.51 62.1958 160.026 61.6926 159.756C61.1891 159.486 60.1757 158.434 59.4406 157.416C58.3168 155.862 58.1033 155.141 58.1033 152.897C58.1033 151.429 58.3308 149.784 58.6087 149.241C59.2627 147.966 61.2328 145.841 62.3822 145.17C63.0088 144.805 68.8515 144.577 81.5608 144.419L99.8386 144.194L101.539 142.893C103.393 141.476 104.496 139.357 104.496 137.213C104.496 136.211 104.285 135.845 103.708 135.844C103.274 135.843 97.4469 135.534 90.7583 135.156C82.3378 134.68 77.9044 134.242 76.345 133.731C74.4641 133.114 73.1129 132.014 68.1439 127.054C62.7624 121.683 62.0102 120.732 60.2626 117.085C58.4001 113.199 58.3245 112.871 58.17 108.028C58.0497 104.26 58.1997 102.346 58.7704 100.379C60.7806 93.4511 65.1734 87.9645 71.0838 85.0017L74.5434 83.2669H88.5823H102.621L103.755 84.3342L104.889 85.4016L105.031 73.9541C105.192 60.8665 105.286 60.4824 108.888 58.1934L110.978 56.8652H127.966C143.339 56.8652 145.212 56.946 147.679 57.7154ZM191.652 66.7954C192.179 67.2909 193.054 67.6966 193.598 67.6966C194.142 67.6966 195.217 68.2996 195.987 69.037C196.756 69.774 197.747 70.4916 198.188 70.632C198.951 70.8748 200.434 74.4406 200.434 76.0328C200.434 76.429 200.928 77.7306 201.533 78.9257C202.522 80.8826 202.578 81.2788 202.096 82.9139C201.549 84.7661 198.316 88.0056 197.013 88.0056C196.665 88.0056 196.38 88.2719 196.38 88.5977C196.38 89.4611 193.734 91.283 192.93 90.9739C192.503 90.8096 192.164 91.0136 192.033 91.5137C191.894 92.048 191.049 92.502 189.515 92.8671C187.505 93.3455 186.999 93.3148 185.6 92.6293C184.31 91.997 183.998 91.5899 184.015 90.5641C184.033 89.4173 183.976 89.3672 183.459 90.0767C182.939 90.788 182.803 90.7983 182.087 90.1782C181.649 89.8 180.177 89.1131 178.814 88.6523C175.233 87.4415 173.732 86.3191 173.977 85.0346C174.087 84.4597 173.948 83.901 173.668 83.7935C173.388 83.6861 172.785 82.1521 172.328 80.3848C171.257 76.2458 171.493 72.4056 172.889 71.2728C173.423 70.8396 173.86 70.3079 173.86 70.0908C173.86 69.5177 176.325 68.1479 177.357 68.1479C177.842 68.1479 178.963 67.6551 179.849 67.0522C181.848 65.6937 183.098 65.469 187.344 65.7068C189.897 65.8494 190.923 66.1089 191.652 66.7954ZM212.396 71.5102C213.019 74.089 211.798 76.7996 209.953 76.9359C209.466 76.9715 208.748 77.2662 208.358 77.5903C207.394 78.3922 204.731 77.8498 203.585 76.6168C202.16 75.0841 202.425 73.1295 204.324 71.1704C205.463 69.9952 206.215 69.561 206.792 69.7442C207.249 69.8896 207.968 69.8142 208.391 69.5768C209.429 68.9951 212.1 70.2844 212.396 71.5102ZM125.515 76.5726C125.35 76.7377 125.215 79.2764 125.215 82.214V87.5543H133.293C137.922 87.5543 141.913 87.349 142.639 87.0728C145.52 85.9792 147.708 82.5416 147.726 79.081C147.734 77.421 147.574 77.0902 146.58 76.7116C145.298 76.2233 125.991 76.0955 125.515 76.5726ZM26.5802 92.6316C24.4439 97.4006 20.9361 112.293 21.7559 113.114C22.1369 113.496 25.9884 106.341 27.1604 103.074C27.7936 101.308 28.4945 98.4647 28.7179 96.7552C29.148 93.4588 28.967 89.3596 28.3909 89.3596C28.2013 89.3596 27.3865 90.8317 26.5802 92.6316ZM165.358 116.727C161.651 118.095 159.006 121.779 158.999 125.587L158.996 126.838L167.666 126.715L176.337 126.593V121.989C176.337 119.073 176.144 117.192 175.809 116.857C174.928 115.975 167.642 115.884 165.358 116.727Z" fill="#EB641A"/>
</svg>
