<svg width="2457" height="403" viewBox="0 0 2457 403" fill="none" xmlns="http://www.w3.org/2000/svg">
<path fill-rule="evenodd" clip-rule="evenodd" d="M1761.27 2.00094C1773.5 5.9325 1771.84 14.762 1733.74 148.51C1718.72 201.234 1706.92 244.935 1707.51 245.623C1708.1 246.31 1719.05 245.407 1731.84 243.618C1763.45 239.189 1772.33 242.591 1781.37 262.603C1784.94 270.509 1788.56 280.443 1789.41 284.679L1790.96 292.381L1777.69 290.788C1770.39 289.911 1756.79 290.739 1747.47 292.626C1732.69 295.617 1730.16 295.479 1727.69 291.55C1724.19 285.988 1701.23 285.292 1697.59 290.638C1693.26 297.018 1687.06 341.119 1687.06 365.554C1687.06 383.072 1688.14 391.099 1691.19 396.152L1695.31 403L1682.63 401.254C1663.57 398.631 1650.5 393.305 1643.7 385.393C1638.32 379.149 1637.6 375.827 1637.67 357.835C1637.72 346.581 1639.22 329.465 1641.01 319.796L1644.25 302.217L1621.35 300.627C1594.33 298.755 1579.31 292.128 1570.14 278.038C1551.48 249.37 1556.46 205.272 1583.39 160.693C1590.23 149.355 1615.86 117.172 1640.33 89.1741C1664.81 61.1729 1688.86 31.469 1693.78 23.1658C1698.7 14.8627 1703.38 8.00909 1704.17 7.94007C1704.96 7.87104 1711.18 6.01595 1717.98 3.81865C1731.16 -0.435027 1751.1 -1.27201 1761.27 2.00094ZM1678 106.833C1628.12 166.879 1585.64 231.608 1585.64 247.555C1585.64 256.695 1590.63 264.351 1599.36 268.594C1610.03 273.773 1616.57 273.71 1637.3 268.228L1654.06 263.796L1658.45 247.377C1665.54 220.843 1679.09 179.358 1695.78 133.068C1711.62 89.1568 1716.92 68.4636 1712.35 68.4636C1710.98 68.4636 1695.53 85.7286 1678 106.833ZM140.147 84.2531C152.934 88.6678 173.159 103.678 173.159 108.754C173.159 111.587 155.808 131.121 149.518 135.372C147.581 136.681 142.663 134.722 137.347 130.529C110.715 109.516 69.2635 126.016 69.2635 157.633C69.2635 172.209 76.2048 178.487 99.559 185.041C144.657 197.702 161.159 219.635 157.389 261.912C154.656 292.597 139.061 316.33 114.089 327.817C102.532 333.132 95.1706 334.237 70.5004 334.355C43.4901 334.487 39.589 333.822 27.2106 326.995C13.4816 319.422 0 306.931 0 301.783C0 300.247 6.02101 293.011 13.3803 285.703L26.7605 272.413L38.1567 281.752C47.49 289.402 52.4449 291.306 65.5406 292.275C87.9103 293.932 97.4587 291.168 107.534 280.118C114.339 272.658 116.264 268.294 116.264 260.336C116.264 240.751 112.031 236.497 84.1725 228.104C41.6916 215.306 24.1756 192.056 28.277 153.908C31.6684 122.332 52.7887 94.6788 81.3104 84.4688C96.489 79.036 124.734 78.9324 140.147 84.2531ZM322.266 85.8925C334.426 89.8183 348.408 104.27 354.073 118.769C364.455 145.338 357.405 186.307 338.518 209.157C321.927 229.232 310.973 233.543 272.216 235.249L238.927 236.713L233.265 269.787C230.148 287.978 226.403 309.658 224.941 317.961L222.281 333.06H201.792H181.305L202.089 211.547C213.522 144.713 223.343 88.4177 223.914 86.4389C225.235 81.8603 308.349 81.4001 322.266 85.8925ZM540.745 92.191C539.86 97.3334 538.465 106.393 537.648 112.323L536.159 123.109H488.694H441.226L436.714 151.15C434.23 166.574 431.683 180.811 431.047 182.787C430.154 185.571 439.081 186.382 470.656 186.382H511.417L509.297 200.043C504.696 229.701 509.883 226.646 464.117 226.646H423.695L418.399 257.564C415.487 274.57 413.105 289.451 413.105 290.638C413.108 291.826 434.258 292.796 460.108 292.796C497.624 292.796 507.108 293.569 507.108 296.629C507.108 298.737 505.841 307.797 504.293 316.762L501.478 333.06H432.291C378.001 333.06 363.342 332.287 364.21 329.465C364.818 327.489 374.661 271.191 386.082 204.357L406.849 82.8438H474.604H542.358L540.745 92.191ZM716.378 92.191C715.492 97.3334 714.097 106.393 713.281 112.323L711.792 123.109H664.326H616.859L612.347 151.15C609.863 166.574 607.315 180.811 606.679 182.787C605.786 185.571 614.714 186.382 646.288 186.382H687.05L684.93 200.043C680.329 229.701 685.516 226.646 639.75 226.646H599.327L594.031 257.564C591.12 274.57 588.738 289.451 588.738 290.638C588.74 291.826 609.89 292.796 635.74 292.796C673.256 292.796 682.741 293.569 682.741 296.629C682.741 298.737 681.474 307.797 679.926 316.762L677.11 333.06H607.924C553.633 333.06 538.974 332.287 539.842 329.465C540.451 327.489 550.294 271.191 561.715 204.357L582.481 82.8438H650.236H717.991L716.378 92.191ZM859.023 87.3708C872.958 92.8899 889.064 112.188 892.804 127.84C894.259 133.937 895.456 144.932 895.464 152.272C895.488 175.473 881.109 255.565 872.946 277.711C866.509 295.168 848.073 316.88 832.929 324.838C820.958 331.125 816.36 331.68 769.028 332.54L718.025 333.469L738.846 211.751C750.3 144.806 760.135 88.4177 760.706 86.4389C762.361 80.6983 844.139 81.4749 859.023 87.3708ZM1060.53 89.3466C1079.04 101.115 1088.32 121.018 1088.32 148.993C1088.32 179.727 1073.66 207.526 1050.08 221.493C1044.64 224.717 1039.96 227.567 1039.69 227.828C1039.41 228.087 1045.71 251.547 1053.7 279.963L1068.21 331.622L1047 332.459C1035.34 332.919 1024.98 332.272 1023.98 331.021C1022.98 329.77 1016.88 307.066 1010.42 280.572L998.684 232.399H984.235C971.278 232.399 969.65 233.069 968.497 238.87C965.999 251.444 952.374 329.531 952.374 331.283C952.374 332.261 942.793 333.06 931.082 333.06C915.11 333.06 910.068 332.163 910.897 329.465C911.506 327.489 921.363 271.099 932.804 204.153L953.606 82.4355L1003.08 83.3587C1044.63 84.1352 1053.83 85.0929 1060.53 89.3466ZM1179.03 87.877C1178.34 90.6438 1171.48 129.767 1163.77 174.814C1148.42 264.61 1147.95 275.358 1158.91 286.319C1167.95 295.358 1188.27 295.358 1200 286.322C1213.78 275.7 1218.45 259.965 1233.08 174.837C1240.55 131.36 1247.26 92.8756 1247.99 89.315C1249.22 83.2725 1250.62 82.8438 1269.05 82.8438C1283.58 82.8438 1288.8 83.8304 1288.8 86.5742C1288.8 88.6277 1282.12 129.007 1273.95 176.31C1257.78 270.017 1252.24 289.088 1235.53 308.525C1215.21 332.137 1177.86 342.278 1150.34 331.648C1132.17 324.633 1117.27 307.288 1112.18 287.239C1110 278.648 1108.22 269.126 1108.22 266.08C1108.22 263.034 1115.04 220.561 1123.39 171.694L1138.56 82.8438H1159.42C1178.12 82.8438 1180.16 83.3673 1179.03 87.877ZM1399.04 157.552C1413.76 198.639 1426.42 231.547 1427.18 230.676C1427.94 229.804 1434.17 196.511 1441.03 156.686L1453.49 84.2819L1473.8 83.4478C1484.97 82.9876 1494.11 83.678 1494.11 84.9809C1494.11 86.2837 1484.65 142.269 1473.09 209.39C1461.52 276.511 1452.06 331.855 1452.06 332.37C1452.06 332.888 1444 332.931 1434.15 332.468L1416.24 331.622L1389.14 255.669C1374.23 213.897 1361.77 180.894 1361.45 182.329C1361.13 183.767 1355.05 218.268 1347.94 259.002L1335.01 333.06H1314.11C1298.45 333.06 1293.49 332.16 1294.32 329.465C1294.93 327.489 1304.77 271.191 1316.19 204.357L1336.96 82.8438H1354.62H1372.29L1399.04 157.552ZM1930.52 93.6291C1929.61 99.5624 1921.77 145.772 1913.1 196.321C1904.42 246.871 1897.33 289.258 1897.33 290.512C1897.33 291.769 1917.92 292.796 1943.09 292.796C1979.57 292.796 1988.85 293.572 1988.85 296.629C1988.85 298.737 1987.59 307.797 1986.04 316.762L1983.22 333.06H1915.27C1861.97 333.06 1847.56 332.287 1848.43 329.465C1849.04 327.489 1858.88 271.191 1870.3 204.357L1891.07 82.8438H1911.62H1932.18L1930.52 93.6291ZM2099.38 89.315C2098.65 92.8756 2088.9 149.174 2077.72 214.423L2057.39 333.06H2036.46C2020.78 333.06 2015.81 332.16 2016.64 329.465C2017.25 327.489 2027.09 271.191 2038.51 204.357L2059.28 82.8438H2079.99C2100.22 82.8438 2100.67 82.9964 2099.38 89.315ZM2284.7 92.191C2283.82 97.3334 2282.42 106.393 2281.6 112.323L2280.12 123.109H2232.68H2185.23L2180.89 149.712C2178.5 164.343 2175.94 179.226 2175.2 182.787L2173.84 189.258H2213.69C2245.25 189.258 2253.54 190.054 2253.54 193.092C2253.54 195.2 2252.27 204.259 2250.72 213.224L2247.91 229.522H2207.6C2171.34 229.522 2167.17 230.029 2166.03 234.556C2165.34 237.322 2161.21 260.621 2156.85 286.324L2148.93 333.06H2128C2112.31 333.06 2107.34 332.16 2108.17 329.465C2108.78 327.489 2118.62 271.191 2130.04 204.357L2150.81 82.8438H2218.56H2286.31L2284.7 92.191ZM2455.39 92.191C2454.5 97.3334 2453.11 106.393 2452.29 112.323L2450.8 123.109H2403.34H2355.87L2351.36 151.15C2348.87 166.574 2346.32 180.811 2345.69 182.787C2344.8 185.571 2353.72 186.382 2385.3 186.382H2426.06L2423.94 200.043C2419.34 229.701 2424.53 226.646 2378.76 226.646H2338.34L2333.04 257.564C2330.13 274.57 2327.75 289.451 2327.75 290.638C2327.75 291.826 2348.9 292.796 2374.75 292.796C2412.27 292.796 2421.75 293.569 2421.75 296.629C2421.75 298.737 2420.48 307.797 2418.94 316.762L2416.12 333.06H2346.93C2292.64 333.06 2277.98 332.287 2278.85 329.465C2279.46 327.489 2289.3 271.191 2300.72 204.357L2321.49 82.8438H2389.25H2457L2455.39 92.191ZM781.79 201.481C774.428 244.587 767.893 282.957 767.267 286.747L766.131 293.641L788.766 292.14C814.811 290.414 824.761 284.659 833.713 266.137C840.3 252.514 853.426 180.446 853.426 157.909C853.426 131.035 843.405 123.221 808.84 123.14L795.177 123.109L781.79 201.481ZM252.661 156.902C249.749 173.908 247.367 189.439 247.367 191.415C247.37 195.985 283.454 196.405 293.591 191.95C311.347 184.15 322.019 160.771 316.574 141.593C315.028 136.149 311.698 130.408 309.178 128.838C306.654 127.27 294.098 125.985 281.274 125.985H257.957L252.661 156.902ZM982.402 156.902C979.49 173.908 977.108 188.907 977.108 190.238C977.111 191.57 988.73 192.217 1002.93 191.677C1027.63 190.739 1029.08 190.331 1036.36 182.206C1045.87 171.607 1050.2 154.759 1046.54 142.574C1042.28 128.349 1037.66 126.177 1011.47 126.077L987.698 125.985L982.402 156.902Z" fill="#F2F0FE"/>
<path fill-rule="evenodd" clip-rule="evenodd" d="M1761.31 2.00094C1773.54 5.93249 1771.88 14.762 1733.77 148.51C1718.75 201.234 1706.94 244.935 1707.54 245.623C1708.13 246.31 1719.08 245.407 1731.87 243.618C1763.49 239.189 1772.37 242.591 1781.41 262.603C1784.98 270.509 1788.6 280.444 1789.45 284.679L1791 292.381L1777.72 290.788C1770.42 289.91 1756.82 290.738 1747.5 292.625C1732.73 295.616 1730.2 295.48 1727.73 291.55C1724.23 285.988 1701.25 285.291 1697.62 290.638C1693.29 297.017 1687.09 341.119 1687.09 365.554C1687.09 383.072 1688.17 391.099 1691.22 396.152L1695.34 403L1682.65 401.255C1663.6 398.631 1650.52 393.306 1643.72 385.393C1638.35 379.148 1637.62 375.827 1637.7 357.833C1637.74 346.58 1639.24 329.465 1641.03 319.796L1644.28 302.217L1621.37 300.627C1594.35 298.754 1579.32 292.128 1570.15 278.039C1551.49 249.37 1556.47 205.272 1583.4 160.693C1590.25 149.355 1615.88 117.172 1640.36 89.1742C1664.83 61.1729 1688.88 31.469 1693.8 23.1658C1698.73 14.8627 1703.41 8.00908 1704.2 7.94007C1704.99 7.87103 1711.21 6.01595 1718.01 3.81866C1731.19 -0.435027 1751.13 -1.27201 1761.31 2.00094ZM1678.02 106.833C1628.14 166.879 1585.66 231.607 1585.66 247.555C1585.66 256.695 1590.65 264.351 1599.38 268.594C1610.05 273.773 1616.59 273.71 1637.32 268.228L1654.09 263.796L1658.48 247.377C1665.57 220.843 1679.12 179.358 1695.81 133.068C1711.64 89.1569 1716.95 68.4636 1712.38 68.4636C1711.01 68.4636 1695.56 85.7287 1678.02 106.833Z" fill="#ECBB00"/>
</svg>
