<svg width="367" height="120" viewBox="0 0 367 120" fill="none" xmlns="http://www.w3.org/2000/svg">
<path fill-rule="evenodd" clip-rule="evenodd" d="M43.2342 92.2252V93.9689H44.9733H46.7123V92.2252V90.4814H44.9733H43.2342V92.2252ZM163.833 90.6756C162.121 91.0809 161.431 92.2128 161.328 94.7875L161.252 96.6814H159.922H158.592V97.5533V98.4252H159.945H161.297V105.594V112.763H162.263H163.23V105.594V98.4252H164.775H166.321V97.5533V96.6814H164.756H163.191L163.259 94.9208C163.322 93.2711 163.36 93.1308 163.868 92.6927C164.31 92.312 164.623 92.2252 165.559 92.2252H166.708V91.4729C166.708 90.8563 166.629 90.6992 166.273 90.6035C165.705 90.451 164.65 90.482 163.833 90.6756ZM238.009 92.0314V93.5814H238.975H239.942V92.0314V90.4814H238.975H238.009V92.0314ZM5.12963 96.6679C1.54291 97.8178 -0.576432 101.978 0.137937 106.466C0.775207 110.47 3.37047 112.88 7.28626 113.104C11.2328 113.33 13.9577 111.406 14.9306 107.709L15.181 106.756H13.3627C11.7871 106.756 11.5446 106.8 11.5446 107.083C11.5446 107.745 10.6989 109.132 9.97485 109.658C8.99962 110.366 7.86401 110.53 6.58058 110.147C5.34952 109.78 4.32637 108.676 3.90764 107.263C3.53027 105.988 3.54321 103.413 3.93354 102.095C4.70394 99.493 7.50886 98.2919 9.93871 99.523C10.4879 99.8014 10.8171 100.179 11.2341 101.008L11.7929 102.121L13.4563 102.065L15.1194 102.01L15.0531 101.428C14.8237 99.4164 12.9886 97.3522 10.8372 96.6859C9.2029 96.1798 6.677 96.1717 5.12963 96.6679ZM22.8205 96.5743C22.0602 96.906 20.6788 98.1417 20.2098 98.9096L19.8548 99.4908L19.8543 98.0861L19.8535 96.6814H18.211H16.5686V104.722V112.763H18.2955H20.0222L20.0829 107.953L20.1433 103.143L20.7255 102.003C21.1143 101.241 21.5848 100.667 22.1429 100.273C22.8914 99.7458 23.1272 99.6846 24.4108 99.6846H25.843L25.8434 97.9893L25.8436 96.2939L24.6359 96.3015C23.9718 96.3058 23.1548 96.4284 22.8205 96.5743ZM30.8359 96.6658C28.8307 97.3088 27.4808 98.461 26.5307 100.341C25.1343 103.104 25.3509 107.392 27.014 109.909C29.5774 113.79 36.1678 114.315 39.4757 110.902C41.1031 109.223 41.7952 107.033 41.6399 104.055C41.4378 100.179 39.5575 97.5593 36.2911 96.6016C34.8697 96.1849 32.2391 96.2157 30.8359 96.6658ZM81.8801 96.7702C80.9182 97.2772 79.9617 98.2128 79.495 99.1033C79.1936 99.6784 79.1903 99.6685 79.1826 98.183L79.1749 96.6814H77.5324H75.89V104.722V112.763H77.6141H79.3383L79.4015 107.967C79.4595 103.571 79.4987 103.098 79.8732 102.287C80.7213 100.449 82.3483 99.4627 84.2798 99.6168L85.165 99.6873V97.9906V96.2939L83.9573 96.3031C83.0742 96.3096 82.516 96.4352 81.8801 96.7702ZM90.672 96.5555C87.1318 97.7273 85.157 100.684 85.1679 104.797C85.1746 107.36 86.127 109.67 87.8143 111.216C89.3642 112.637 90.5634 113.036 93.2806 113.036C96.1502 113.036 97.3223 112.618 98.8935 111.036C100.178 109.743 100.728 108.665 101.146 106.628C101.994 102.49 100.21 98.5011 96.8008 96.9155C95.8503 96.4734 95.3991 96.3945 93.5704 96.3507C92.1973 96.3178 91.1713 96.3902 90.672 96.5555ZM122.774 96.7706C120.39 97.7533 118.824 99.9374 118.37 102.915C117.945 105.695 118.746 108.887 120.321 110.685C120.664 111.077 121.513 111.678 122.206 112.021C123.32 112.57 123.659 112.644 125.136 112.654C127.171 112.668 128.106 112.292 129.485 110.901L130.426 109.953L130.325 111.939C130.24 113.61 130.145 114.06 129.729 114.772C129.014 115.996 128.19 116.347 126.033 116.347C123.987 116.347 123.202 116.004 122.603 114.846L122.227 114.119H120.492H118.756L118.892 114.749C119.24 116.367 120.202 117.499 121.878 118.262C124.111 119.279 127.057 119.385 129.606 118.541C130.597 118.212 131.087 117.897 131.939 117.042C133.771 115.204 133.737 115.416 133.814 105.352L133.881 96.6814H132.13H130.381V97.7819V98.8824L129.667 98.0462C128.617 96.8169 127.363 96.297 125.453 96.3005C124.266 96.3025 123.644 96.4116 122.774 96.7706ZM140.332 96.6322C135.958 98.2049 133.928 103.561 135.803 108.584C136.376 110.121 137.944 111.773 139.49 112.469C141.075 113.182 143.488 113.353 145.173 112.871C147.277 112.27 149.039 110.767 149.816 108.912C150.298 107.763 150.255 107.724 148.496 107.736L146.902 107.746L146.322 108.643C145.544 109.847 144.586 110.324 142.946 110.324C140.645 110.324 139.024 108.884 138.755 106.6L138.636 105.594H144.556H150.476V104.472C150.476 103.168 150.072 101.466 149.49 100.323C148.872 99.1087 147.269 97.5231 146.06 96.9296C144.642 96.2341 141.844 96.0888 140.332 96.6322ZM180.272 96.6177C178.414 97.1848 177.032 98.7873 176.653 100.813L176.519 101.525H177.484H178.449L178.666 100.658C179.157 98.7046 180.961 97.6752 183.481 97.9112C185.706 98.1195 186.786 98.9857 186.944 100.687C187.059 101.924 186.764 102.625 185.987 102.971C185.639 103.126 184.257 103.386 182.917 103.549C177.639 104.19 175.998 105.352 175.987 108.458C175.977 111.358 177.632 112.948 180.832 113.11C183.364 113.239 184.441 112.858 185.973 111.291C187.079 110.16 187.19 110.092 187.19 110.539C187.19 110.81 187.314 111.328 187.465 111.691C187.776 112.438 188.721 112.842 189.895 112.73C190.541 112.669 190.574 112.628 190.631 111.842C190.688 111.056 190.666 111.019 190.148 111.016C189.008 111.01 189.034 111.138 188.929 105.053L188.832 99.459L188.247 98.5062C187.824 97.8184 187.367 97.3929 186.604 96.9765C185.637 96.4484 185.368 96.3957 183.422 96.3525C181.903 96.3185 181.004 96.3943 180.272 96.6177ZM197.377 96.5724C196.246 96.9767 195.344 97.6657 194.718 98.6036L194.146 99.4604V98.0708V96.6814H193.18H192.214V104.722V112.763H193.167H194.119L194.181 107.289C194.24 102.053 194.262 101.774 194.688 100.847C195.503 99.0737 196.755 98.1433 198.624 97.9234C200.745 97.674 202.409 98.6356 202.936 100.416C203.167 101.198 203.228 102.579 203.228 107.082V112.763H204.194H205.16V106.695C205.16 99.8483 205.059 99.1516 203.878 97.8406C202.942 96.801 201.524 96.2914 199.598 96.3025C198.778 96.3071 197.779 96.4286 197.377 96.5724ZM211.323 96.7392C209.942 97.3226 209.202 97.8542 208.455 98.7997C206.029 101.871 205.919 106.899 208.205 110.231C209.017 111.414 210.781 112.679 211.898 112.88C213.128 113.101 213.161 113.186 212.396 114.189C211.468 115.408 211.577 115.622 213.07 115.514C214.018 115.445 214.332 115.497 214.635 115.772C215.363 116.433 214.921 117.662 213.872 117.893C213.563 117.961 212.768 117.919 212.105 117.798C211.134 117.622 210.869 117.629 210.738 117.835C210.414 118.349 210.591 118.566 211.572 118.858C213.437 119.414 215.073 119.137 216.117 118.09C216.634 117.572 216.754 117.299 216.754 116.644C216.754 116.2 216.66 115.661 216.545 115.446C216.262 114.916 215.215 114.506 214.142 114.506H213.256L213.752 113.855C214.16 113.318 214.413 113.184 215.188 113.092C217.816 112.78 220.121 110.489 220.541 107.774L220.668 106.95H219.768C219.213 106.95 218.841 107.043 218.798 107.192C218.222 109.208 217.407 110.389 216.145 111.034C213.693 112.288 210.595 111.1 209.331 108.421C207.42 104.369 209.028 99.1872 212.52 98.1476C215.424 97.2828 217.65 98.4729 218.567 101.38C218.651 101.645 218.891 101.719 219.662 101.719H220.649L220.523 101.089C220.303 99.9957 219.47 98.4746 218.737 97.8292C217.527 96.7644 216.501 96.4181 214.339 96.3461C212.653 96.2897 212.268 96.3401 211.323 96.7392ZM225.895 96.6599C225.343 96.8647 224.597 97.258 224.236 97.5341C223.442 98.1408 222.615 99.6045 222.438 100.713L222.308 101.525H223.263H224.217L224.462 100.565C224.943 98.6827 226.855 97.6525 229.377 97.9168C230.998 98.0867 231.828 98.5531 232.357 99.5916C233.108 101.065 232.858 102.518 231.776 102.971C231.428 103.117 230.232 103.341 229.118 103.47C224.047 104.054 222.234 105.068 221.771 107.578C221.379 109.702 222.189 111.517 223.96 112.485C224.787 112.937 225.262 113.049 226.628 113.115C229.179 113.238 230.247 112.855 231.771 111.274L232.985 110.013V110.623C232.985 112.052 234.055 112.886 235.69 112.73C236.336 112.669 236.369 112.628 236.426 111.842L236.486 111.019H235.805C235.33 111.019 235.064 110.906 234.924 110.644C234.802 110.414 234.724 108.371 234.724 105.351C234.724 99.9068 234.586 98.9919 233.598 97.9102C232.528 96.7378 231.598 96.4133 229.121 96.3472C227.303 96.2986 226.716 96.3556 225.895 96.6599ZM246.028 96.5545C243.687 97.3288 242.437 98.833 242.463 100.847C242.473 101.602 242.905 102.806 243.339 103.287C243.944 103.957 245.968 104.796 248.25 105.324C251.97 106.184 252.888 106.815 252.888 108.511C252.888 109.637 252.255 110.505 251.043 111.043C248.178 112.314 244.737 111.097 244.104 108.59L243.862 107.628L242.871 107.57L241.879 107.511L241.987 108.151C242.335 110.218 243.497 111.818 245.211 112.595C246.094 112.996 246.514 113.053 248.54 113.051C251.032 113.049 251.959 112.79 253.389 111.696C255.176 110.329 255.358 107.134 253.739 105.526C252.878 104.671 252.007 104.313 249.233 103.675C247.823 103.35 246.312 102.886 245.875 102.644C243.655 101.411 244.096 98.8584 246.659 98.1115C249.259 97.3536 251.911 98.5294 252.239 100.586L252.358 101.331H253.371H254.384L254.221 100.457C253.918 98.8336 253.065 97.6548 251.668 96.9318C250.812 96.4883 250.384 96.4042 248.733 96.3558C247.505 96.3195 246.52 96.392 246.028 96.5545ZM260.811 96.6063C257.705 97.7347 256.07 100.617 256.099 104.916C256.119 108.003 256.902 110.09 258.604 111.588C259.964 112.785 260.827 113.053 263.322 113.053C265.805 113.053 266.682 112.784 268.012 111.613C268.732 110.979 270.085 108.552 270.085 107.893C270.085 107.59 269.934 107.531 269.15 107.531C268.234 107.531 268.209 107.547 267.994 108.267C267.706 109.232 266.573 110.539 265.572 111.064C264.451 111.651 262.2 111.654 261.087 111.071C259.488 110.234 258.352 108.402 258.022 106.127L257.888 105.206H264.083H270.279V104.269C270.279 103.063 269.63 100.521 269.091 99.6144C268.429 98.4994 267.365 97.4654 266.317 96.9188C265.069 96.2672 262.194 96.1041 260.811 96.6063ZM173.444 96.7915C172.398 97.1143 170.728 98.5356 170.186 99.5648L169.816 100.266L169.808 98.4736L169.799 96.6814H168.833H167.867V104.722V112.763H168.816H169.766L169.835 107.774C169.9 103.041 169.927 102.733 170.355 101.774C171.202 99.881 173.327 98.4252 175.245 98.4252C175.77 98.4252 175.789 98.3897 175.789 97.4564V96.4877L175.065 96.5013C174.666 96.5086 173.937 96.6392 173.444 96.7915ZM43.2342 104.722V112.763H44.9733H46.7123V104.722V96.6814H44.9733H43.2342V104.722ZM48.8379 96.7826C48.8379 96.8382 50.0135 98.5 51.4503 100.475C52.8872 102.451 54.0827 104.134 54.1072 104.216C54.1316 104.298 52.8837 106.146 51.3342 108.322C49.7845 110.498 48.4533 112.387 48.376 112.521C48.2673 112.708 48.6966 112.763 50.2726 112.763H52.3098L54.2527 109.85C55.3215 108.248 56.2644 106.979 56.3487 107.031C56.4327 107.083 57.3639 108.394 58.4182 109.944L60.335 112.762L62.4122 112.762C63.5548 112.763 64.4894 112.721 64.4894 112.67C64.4894 112.619 63.2804 110.885 61.8028 108.817C60.3252 106.748 58.9685 104.83 58.788 104.554L58.4597 104.051L61.1817 100.366L63.9038 96.6814L61.8294 96.6836L59.7553 96.6857L58.1218 99.0216C57.2232 100.306 56.4327 101.392 56.3649 101.434C56.2971 101.476 55.5107 100.427 54.617 99.1023L52.9923 96.6944L50.9151 96.688C49.7725 96.6844 48.8379 96.727 48.8379 96.7826ZM102.749 102.291C102.749 109.287 102.988 110.596 104.503 111.874C105.58 112.783 106.368 113.021 108.352 113.038C110.041 113.052 110.271 113.007 111.223 112.479C111.792 112.162 112.51 111.598 112.817 111.224L113.376 110.543V111.653V112.763H115.115H116.855V104.722V96.6814H115.131H113.408L113.343 102.058C113.283 107.049 113.249 107.498 112.869 108.324C112.643 108.814 112.2 109.399 111.884 109.625C110.649 110.506 108.459 110.592 107.453 109.798C106.42 108.983 106.342 108.498 106.264 102.349L106.192 96.6814H104.47H102.749V102.291ZM238.009 104.722V112.763H238.975H239.942V104.722V96.6814H238.975H238.009V104.722ZM265.393 98.3971C266.879 99.1572 267.876 100.732 268.262 102.93L268.389 103.656H263.258C260.437 103.656 258.09 103.591 258.043 103.511C257.996 103.431 258.08 102.886 258.23 102.3C258.737 100.317 260.053 98.7329 261.704 98.1165C262.684 97.7511 264.382 97.8802 265.393 98.3971ZM34.9404 99.2275C36.7394 99.7681 37.9666 101.623 38.1521 104.083C38.4247 107.699 36.5452 110.321 33.6872 110.313C30.7675 110.305 28.9529 107.87 29.1714 104.254C29.4002 100.467 31.8783 98.3078 34.9404 99.2275ZM94.5086 99.2159C95.614 99.5238 96.8615 100.776 97.3397 102.058C97.8365 103.389 97.8758 105.629 97.4284 107.119C96.9892 108.583 95.6552 109.905 94.2842 110.235C92.8999 110.568 91.5552 110.237 90.5331 109.311C89.5764 108.444 89.12 107.55 88.8377 105.989C88.3268 103.164 89.3687 100.516 91.3875 99.5075C92.4667 98.9683 93.3293 98.8877 94.5086 99.2159ZM128.257 99.6631C130.562 101.192 131.022 105.927 129.11 108.44C128.317 109.482 127.268 109.91 125.722 109.822C124.618 109.76 124.297 109.656 123.677 109.163C122.262 108.036 121.641 106.015 121.912 103.414C122.133 101.293 123.209 99.6817 124.737 99.1864C125.68 98.8807 127.437 99.1184 128.257 99.6631ZM144.403 99.3732C145.347 99.8028 146.282 100.885 146.585 101.898C147.021 103.357 147.268 103.269 142.747 103.269H138.689V102.749C138.689 102.463 138.873 101.848 139.098 101.384C140.054 99.4017 142.462 98.4893 144.403 99.3732ZM64.2962 104.335V105.981H68.8371H73.378V104.335V102.688H68.8371H64.2962V104.335ZM186.904 107.458C186.75 108.509 185.845 109.911 184.93 110.518C183.955 111.163 181.927 111.673 180.956 111.518C179 111.204 177.915 110.057 177.915 108.302C177.915 107.365 177.979 107.217 178.661 106.566C179.525 105.742 180.599 105.395 183.808 104.906C184.977 104.727 186.151 104.468 186.417 104.33L186.9 104.077L186.961 105.369C186.994 106.079 186.969 107.019 186.904 107.458ZM232.594 107.725C232.12 109.623 230.829 110.803 228.63 111.347C227.581 111.607 227.189 111.622 226.384 111.436C224.547 111.011 223.71 110.037 223.71 108.323C223.71 106.361 225.037 105.591 229.604 104.902C230.773 104.726 231.947 104.468 232.212 104.33L232.695 104.078L232.754 105.465C232.786 106.229 232.714 107.246 232.594 107.725Z" fill="black"/>
<path d="M301.979 32.2594L302.029 16.1297L302.078 0H318.115H334.152V16.1781V32.3563H350.19H366.228V48.3406V64.325H350.19H334.152V80.4062V96.4875H318.114H302.076V80.4062V64.325H286.038H270V48.3418V32.3586L285.99 32.309L301.979 32.2594Z" fill="#E31E2D"/>
</svg>
