<svg width="605" height="340" viewBox="0 0 605 340" fill="none" xmlns="http://www.w3.org/2000/svg">
<rect x="288.158" y="32.0176" width="306.514" height="272.789" fill="white"/>
<rect x="199.482" y="32.0933" width="86.841" height="285.065" fill="#00AFEE"/>
<path fill-rule="evenodd" clip-rule="evenodd" d="M0 169.906V339.813H302.056H604.111V169.906V0H302.056H0V169.906ZM252.182 35.5557C259.599 37.3045 268.685 42.7069 271.678 47.1471C274.411 51.2034 272.975 57.2584 268.763 59.4364C265.134 61.3129 261.951 60.7327 256.864 57.266C251.04 53.2971 246.816 52.0278 240.478 52.3406C224.83 53.1127 214.233 68.4124 218.91 83.4787C225.021 103.162 251.51 106.759 262.519 89.4009C265.237 85.1148 265.113 84.9821 258.774 85.393C255.735 85.5893 249.893 85.5409 245.791 85.2848C238.533 84.831 238.273 84.7637 236.102 82.7745C234.124 80.9616 233.841 80.3084 233.602 76.9908C233.357 73.6084 233.5 73.0509 235.099 71.1504C238.181 67.4868 239.13 67.3332 258.731 67.3332C275.373 67.3332 276.655 67.4144 279.165 68.6295C282.952 70.4626 284.728 74.1999 284.169 79.1593C283.445 85.5849 282.474 88.944 279.608 94.9323C274.825 104.927 266.477 112.258 255.367 116.222C249.348 118.368 239.016 118.92 232.68 117.433C219.116 114.249 207.979 104.454 202.55 90.9313C200.764 86.4842 200.496 85.0142 200.248 78.3249C199.914 69.2746 200.771 65.1962 204.669 57.2647C209.574 47.2862 220.812 38.1572 231.322 35.6142C236.255 34.4205 247.237 34.3897 252.182 35.5557ZM331.07 36.2221C332.581 37.5656 333.79 40.0916 339.178 53.1744C346.169 70.1518 356.955 96.0115 359.072 100.873C361.538 106.539 361.801 110.089 359.975 113.083C357.615 116.952 352.136 118.225 348.191 115.819C345.837 114.384 345.433 113.705 341.99 105.405L339.38 99.112L325.532 98.9427L311.684 98.7741L308.679 105.865C307.026 109.765 305.215 113.481 304.653 114.122C299.488 120.019 289.47 116.365 289.47 108.585C289.47 107.122 293.073 97.7477 299.941 81.3373C305.7 67.578 311.672 53.2184 313.211 49.427C318.83 35.5834 319.841 34.4362 326.102 34.7955C328.545 34.9359 330.137 35.3934 331.07 36.2221ZM389.124 35.3147C390.01 35.7181 395.723 42.9485 402.526 52.2757C409.047 61.2172 414.666 68.4533 415.012 68.3558C415.358 68.2583 418.614 64.0547 422.248 59.0141C436.084 39.8248 438.149 37.0868 439.7 35.8666C441.88 34.1518 446.99 34.1612 449.817 35.8855C453.752 38.2843 453.713 37.874 453.713 76.5C453.713 107.345 453.592 111.761 452.702 113.638C449.909 119.523 440.741 119.942 437.326 114.341C436.174 112.452 436.097 111.048 436.095 91.7179C436.094 80.3826 435.881 71.1228 435.621 71.1404C435.361 71.1574 432.6 74.7543 429.485 79.1342C422.243 89.3159 420.157 91.6374 417.446 92.5316C414.959 93.3528 411.842 92.9532 409.851 91.5587C409.113 91.0414 405.311 86.2287 401.402 80.864C397.494 75.4988 394.143 71.1089 393.956 71.1083C393.769 71.1083 393.695 79.7559 393.791 90.3253C393.9 102.255 393.718 110.466 393.31 111.978C392.92 113.428 391.757 115.202 390.439 116.36C388.528 118.037 387.739 118.305 384.711 118.305C381.468 118.305 381.008 118.116 378.754 115.862L376.311 113.419V76.4578V39.4969L378.754 37.0534C380.949 34.8578 381.521 34.6105 384.388 34.6105C386.143 34.6105 388.274 34.9271 389.124 35.3147ZM569.72 36.1579C577.85 39.0268 585.368 44.4997 587.414 49.0387C588.404 51.2318 588.466 51.9762 587.837 54.0774C586.679 57.938 581.91 61.0964 577.367 61.0096C574.96 60.963 571.517 59.3357 568.473 56.8053C564.356 53.3833 561.601 52.0782 558.579 52.1197C553.939 52.1839 550.428 56.2742 551.92 59.8775C552.988 62.4544 553.919 62.9591 565.004 66.9733C577.142 71.3688 580.097 72.9835 584.286 77.5075C588.995 82.5946 590.438 86.6623 590.162 94.0777C589.906 100.951 588.489 104.261 583.7 109.167C574.155 118.943 557.454 121.161 543.526 114.502C535.945 110.878 528.841 104.06 527.306 98.9364C525.85 94.0765 529.989 89.2039 536.308 88.338C540.305 87.7899 545.081 90.1378 547.948 94.0588C551.93 99.5072 558.669 101.868 564.205 99.7545C569.611 97.6898 571.152 92.3315 567.455 88.4526C565.801 86.7164 563.488 85.622 555.342 82.7229C542.604 78.1896 541.078 77.3973 536.751 73.071C532.307 68.627 530.392 63.9955 530.411 57.7423C530.43 51.8661 532.611 47.103 537.353 42.5798C543.612 36.6091 548.671 34.7458 558.803 34.6804C564.255 34.6445 566.163 34.9031 569.72 36.1579ZM515.363 35.837C519.482 36.6318 522.304 39.8732 522.304 43.8088C522.304 47.4328 520.541 50.471 517.637 51.8491C515.827 52.7074 512.656 52.8597 496.566 52.8597H477.625V60.4111V67.9625H496.85C517.865 67.9625 518.418 68.0475 520.996 71.6683C522.708 74.0728 522.723 78.2802 521.029 81.0579C518.777 84.753 517.519 84.9531 496.524 84.9531H477.625V92.5045V100.056H496.85C512.975 100.056 516.378 100.213 517.959 101.031C522.016 103.128 523.54 109.033 521.071 113.083C518.656 117.045 518.641 117.047 491.418 117.047C467.481 117.047 466.699 117.008 464.627 115.727C460.513 113.185 460.635 114.387 460.635 76.4578C460.635 39.7486 460.588 40.332 463.755 37.4656C464.505 36.7878 466.445 36.0472 468.068 35.8206C472.505 35.2002 512.133 35.214 515.363 35.837ZM320.201 73.7834L317.329 80.8628L323.303 81.044C326.589 81.1434 329.398 81.1032 329.547 80.9547C329.925 80.5765 324.051 66.7039 323.513 66.7039C323.271 66.7039 321.781 69.89 320.201 73.7834ZM339.183 128.719C346.531 130.436 353.352 134.31 359.026 139.99C367.548 148.519 371.458 157.813 371.479 169.592C371.517 190.235 357.698 207.028 337.268 211.168C315.721 215.534 293.345 200.784 288.504 179.023C286.96 172.08 287.448 162.991 289.721 156.383C293.48 145.455 300.452 137.375 310.296 132.541C313.551 130.942 317.772 129.227 319.675 128.73C324.26 127.534 334.089 127.528 339.183 128.719ZM388.793 128.635C390.326 129.428 434.209 174.952 434.729 176.289C434.845 176.585 435.198 176.828 435.516 176.828C435.854 176.828 436.095 167.915 436.097 155.275C436.101 135.222 436.183 133.597 437.287 131.923C440.206 127.496 446.223 126.289 449.911 129.392C453.852 132.709 453.713 131.219 453.713 169.906C453.713 208.257 453.798 207.278 450.201 210.108C449.293 210.822 447.607 211.583 446.453 211.799C441.847 212.663 441.119 212.043 417.139 186.844C404.651 173.721 394.25 162.984 394.025 162.984C393.801 162.984 393.698 172.264 393.797 183.606C393.977 204.114 393.97 204.244 392.523 206.981C390.929 209.995 387.827 212.068 384.911 212.068C382.225 212.068 378.834 210.22 377.498 208.028C376.377 206.191 376.315 204.194 376.313 169.727C376.311 136.5 376.403 133.222 377.385 131.724C379.76 128.1 385.009 126.678 388.793 128.635ZM517.145 129.883C522.656 132.732 523.621 139.514 519.128 143.821L517.19 145.679L497.25 145.994L477.311 146.308L477.133 153.702L476.956 161.096H495.813C507.643 161.096 515.331 161.346 516.443 161.768C522.555 164.083 523.915 171.325 519.103 175.938L517.19 177.772L497.25 178.087L477.311 178.402L477.133 185.796L476.956 193.19H495.874C516.768 193.19 517.847 193.356 520.428 196.981C523.443 201.216 521.739 207.235 516.857 209.599C514.316 210.828 513.27 210.871 490.098 210.687L465.984 210.495L463.867 208.985C459.955 206.195 460.005 206.709 460.005 169.54C460.005 136.131 460.019 135.757 461.363 133.367C463.806 129.019 463.712 129.033 491.029 129.017C510.727 129.005 515.773 129.173 517.145 129.883ZM275.311 130.994C278.259 132.629 281.36 135.972 282.803 139.071C284.076 141.808 284.121 142.814 284.121 168.962C284.121 199.057 284.008 200.066 280.149 204.576C275.752 209.713 277.413 209.521 237.082 209.537L201.37 209.551V169.572V129.593L237.397 129.77C269.612 129.928 273.623 130.058 275.311 130.994ZM321.928 146.65C315.03 149.092 310.517 153.144 307.24 159.838C305.746 162.89 305.545 164.042 305.54 169.592C305.535 175.187 305.734 176.318 307.331 179.794C309.224 183.911 314.513 189.598 318.246 191.528C324.205 194.609 333.549 194.709 339.991 191.759C344.544 189.675 349.125 185.103 351.492 180.281C353.199 176.806 353.342 175.978 353.342 169.592C353.342 162.905 353.268 162.534 351.192 158.703C348.454 153.655 343.417 149.018 338.709 147.213C333.454 145.197 326.672 144.97 321.928 146.65ZM232.834 168.962V189.414L239.599 189.413C245.732 189.413 246.717 189.245 250.14 187.621C254.478 185.561 258.324 181.687 260.507 177.177C261.7 174.711 262.013 173.047 262.013 169.166C262.013 164.826 261.767 163.786 259.852 160.04C257.244 154.938 252.668 150.918 247.833 149.482C245.907 148.91 242.152 148.511 238.698 148.511H232.834V168.962ZM253.078 221.273C266.595 225.248 277.611 236.007 282.312 249.825C283.232 252.532 283.489 255.137 283.49 261.781C283.492 270.992 282.893 273.764 279.356 280.913C277.401 284.864 277.393 284.798 280.263 287.889C282.518 290.314 283.802 292.945 283.804 295.144C283.811 301.32 277.467 305.569 271.581 303.332C270.696 302.995 268.732 301.577 267.216 300.18L264.46 297.639L259.979 299.854C248.314 305.619 233.961 305.34 221.948 299.114C215.513 295.779 208.118 288.272 204.697 281.604C200.774 273.957 199.861 270.201 199.882 261.781C199.898 255.362 200.117 253.922 201.821 249.032C204.363 241.738 207.098 237.285 212.123 232.26C218.503 225.88 226.762 221.606 235.333 220.246C239.917 219.52 248.878 220.038 253.078 221.273ZM301.468 221.537C305.109 224.13 305.202 224.844 305.202 250.204C305.202 265.894 305.435 274.057 305.933 275.715C306.966 279.167 310.57 283.097 314.291 284.83C322.106 288.469 331.059 284.987 334.727 276.884C335.942 274.2 336.01 272.832 336.023 250.587C336.036 228.61 336.114 226.969 337.259 224.725C340.237 218.886 347.322 218.112 351.737 223.141L353.657 225.327L353.642 250.634C353.633 265.098 353.358 277.102 353 278.651C351.75 284.073 348.514 289.609 343.918 294.19C337.106 300.978 330.047 303.928 320.619 303.928C311.37 303.928 304.129 300.962 297.615 294.504C292.975 289.903 290.686 286.172 288.842 280.203C287.67 276.407 287.582 274.356 287.582 250.751V225.379L289.281 223.36C292.59 219.428 297.479 218.696 301.468 221.537ZM372.113 220.478C373.242 220.95 374.933 222.246 375.868 223.358L377.569 225.379L377.567 261.673C377.565 296.558 377.517 298.043 376.336 299.98C373.76 304.204 367.377 305.346 363.688 302.242C359.892 299.049 359.95 299.655 359.95 262.51C359.95 243.852 360.133 227.669 360.357 226.548C360.831 224.182 364.278 220.468 366.373 220.067C369.078 219.549 370.058 219.62 372.113 220.478ZM473.707 221.431C476.921 223.151 477.289 224.676 477.625 237.701L477.94 249.867L494.322 235.492C503.332 227.586 511.213 220.922 511.836 220.683C513.825 219.92 517.965 220.217 519.69 221.246C523.687 223.632 525.259 228.856 523.129 232.675C522.503 233.798 515.193 240.704 506.887 248.022C498.58 255.34 491.703 261.531 491.604 261.781C491.505 262.03 498.402 268.399 506.93 275.934C518.022 285.733 522.705 290.274 523.377 291.882C526.29 298.854 519.145 306.06 512.008 303.347C511.145 303.019 506.516 299.267 501.721 295.009C496.925 290.751 489.809 284.436 485.909 280.975C482.008 277.514 478.565 274.593 478.258 274.485C477.951 274.376 477.613 279.742 477.506 286.441C477.33 297.426 477.19 298.759 476.052 300.304C472.16 305.592 464.089 304.831 461.108 298.897C460.1 296.89 460.007 293.78 460.007 261.877C460.005 231.323 460.128 226.787 461.007 224.935C462.235 222.347 463.116 221.588 466.059 220.576C468.42 219.764 471.167 220.071 473.707 221.431ZM439.008 222.672C453.372 228.331 458.973 236.667 452.878 243.318C449.197 247.334 444.631 247.224 439.276 242.992C427.455 233.648 409.519 237.655 402.7 251.164C396.501 263.443 401.836 278.359 414.56 284.322C417.671 285.78 418.967 286.009 424.136 286.009C429.532 286.009 430.513 285.818 434.205 284.049C436.455 282.971 439.356 281.233 440.653 280.186C443.946 277.529 446.807 277.105 450.241 278.767C454.532 280.844 456.381 284.884 454.981 289.126C453.392 293.938 442.869 300.918 434.075 302.991C428.395 304.33 419.687 304.203 413.788 302.694C406.343 300.789 400.714 297.505 394.878 291.66C388.91 285.683 386.081 281.134 383.991 274.154C380.842 263.635 382.332 250.351 387.684 241.228C390.994 235.588 399.016 227.891 404.629 224.971C412.365 220.946 415.618 220.24 425.395 220.462C433.228 220.641 434.289 220.813 439.008 222.672ZM237.896 238.024C218.257 240.892 210.631 265.95 225.238 279.613C229.438 283.541 234.135 285.665 239.643 286.127C243.916 286.485 250.095 285.526 250.794 284.396C250.978 284.097 247.298 279.949 242.615 275.177C237.345 269.807 233.836 265.706 233.405 264.415C231.185 257.755 238.47 251.021 244.868 253.817C246.037 254.327 250.775 258.45 255.398 262.978C260.021 267.507 264.027 271.073 264.302 270.904C265.324 270.272 266.336 264.025 266.021 260.293C265.474 253.827 263.413 249.453 258.692 244.739C255.741 241.791 253.637 240.279 251.398 239.494C247.077 237.98 241.987 237.426 237.896 238.024Z" fill="black"/>
<path fill-rule="evenodd" clip-rule="evenodd" d="M116.257 35.6451C111.67 36.7734 106.867 41.6969 105.481 46.6915C105.003 48.4132 104.781 61.9623 104.779 89.6382L104.775 130.07H63.5372C18.7581 130.07 20.4937 129.941 15.6879 133.607C14.4519 134.549 12.6818 136.759 11.7542 138.516L10.0684 141.711V170.029C10.0684 194.826 10.1955 198.626 11.0909 200.595C12.622 203.961 15.5651 207.004 18.9771 208.746L22.0247 210.303L63.2427 210.467L104.461 210.631L104.775 252.315L105.09 293.998L106.765 296.829C107.685 298.387 109.243 300.425 110.226 301.358C114.062 305.003 114.128 305.01 145.145 305.01C172.712 305.01 173.684 304.969 176.313 303.696C177.806 302.974 180.029 301.211 181.255 299.78C185.627 294.672 185.354 303.818 185.172 168.745C185.016 51.9039 184.96 46.5908 183.857 44.3745C183.224 43.1008 181.69 41.0135 180.45 39.7367C176.126 35.2845 176.824 35.3751 145.993 35.2518C130.765 35.1908 117.383 35.3676 116.257 35.6451ZM152.75 64.4864C156.677 66.2232 161.18 70.5023 163.13 74.3523C164.483 77.021 164.787 78.6433 165.049 84.6033L165.362 91.6833H144.755H124.147L124.402 84.6039C124.622 78.4722 124.878 77.1035 126.309 74.3781C129.266 68.7447 134.085 64.8318 139.848 63.3839C143.351 62.5035 149.445 63.0245 152.75 64.4864ZM154.232 150.137C157.641 151.624 162.275 155.99 164.365 159.684C168.943 167.776 167.344 178.626 160.561 185.494C151.781 194.382 138.719 194.431 129.643 185.608C118.031 174.323 122.819 154.255 138.331 149.188C142.209 147.921 150.254 148.401 154.232 150.137ZM69.5355 170.097V190.617L62.4561 190.376C56.476 190.173 54.9003 189.895 52.3071 188.583C47.9241 186.366 44.5348 182.807 42.338 178.111C40.6062 174.41 40.4583 173.595 40.7207 169.201C41.2915 159.646 47.8033 152.089 57.2645 150.001C57.9568 149.849 61.0012 149.691 64.0293 149.65L69.5355 149.577V170.097ZM165.052 254.51C164.703 262.462 163.373 265.949 159.032 270.293C151.313 278.016 138.996 278.246 130.776 270.82C129.412 269.588 127.479 267.079 126.481 265.246C124.859 262.265 124.639 261.164 124.396 254.829L124.125 247.745H144.737H165.348L165.052 254.51Z" fill="#58585B"/>
</svg>
