<svg width="370" height="141" viewBox="0 0 370 141" fill="none" xmlns="http://www.w3.org/2000/svg">
<path fill-rule="evenodd" clip-rule="evenodd" d="M313.321 0.152814C301.763 1.25244 291.256 5.85951 282.761 13.5515C279.78 16.2514 276.994 19.4561 274.721 22.8012L274.117 23.691L274.611 24.915C275.518 27.1636 275.217 29.5898 273.827 31.2359C273.154 32.033 271.542 32.8192 270.272 32.9699L269.273 33.0883L268.874 34.1547C265.571 42.9933 264.815 53.3968 266.782 62.9249C268.321 70.3782 271.931 78.2476 276.537 84.1872C278.91 87.2466 283.148 91.5155 285.786 93.5039C287.522 94.8122 289.856 95.8801 292.014 96.3531C293.735 96.7306 294.489 96.7675 300.568 96.7737C307.961 96.7813 308.829 96.684 310.744 95.6315C311.939 94.9753 312.903 93.807 313.359 92.4619C313.541 91.9245 313.615 88.1723 313.66 77.1149L313.719 62.4794L310.767 61.5183C301.559 58.5212 293.316 54.2148 285.453 48.2933C281.981 45.6781 278.433 42.6658 274.482 38.9788L272.84 37.446L273.953 36.4075C275.972 34.5244 278.94 33.4477 281.388 33.7103C285.361 34.1363 288.134 35.5253 297.476 41.7696C304.081 46.1844 307.628 48.1124 311.679 49.4895L313.224 50.0151L313.331 40.0258C313.447 29.164 313.492 28.6387 314.663 24.6198C316.166 19.4636 318.766 15.003 322.198 11.6898C327.273 6.79199 333.546 4.76859 340.856 5.67127L341.629 5.76684L340.723 5.28048C338.177 3.91485 333.234 2.15668 329.565 1.31222C324.84 0.224781 317.827 -0.275895 313.321 0.152814ZM337.552 9.90477C332.88 10.9589 329.919 15.5439 329.185 22.8639C329.053 24.1787 328.973 30.1173 328.973 38.5826V52.1879L329.601 52.1867C330.823 52.1846 333.924 51.6243 335.543 51.1128C339.516 49.8584 343.112 47.3378 346.059 43.7431C346.995 42.6009 348.615 39.8548 349.315 38.2237C351.034 34.2191 351.672 30.718 351.53 26.0794C351.422 22.5902 351.054 20.7229 349.867 17.6552C348.811 14.9282 346.736 12.2704 344.755 11.1079C342.726 9.91734 339.722 9.41551 337.552 9.90477ZM355.616 16.7846C357.061 20.0895 357.563 22.3588 357.706 26.2309C357.835 29.7113 357.578 32.3071 356.776 35.601C354.305 45.7559 347.695 54.4877 338.939 59.1623C336.184 60.6332 333.864 61.4421 329.794 62.3515L329.359 62.4486V79.6848V96.921L335.398 96.8236C340.452 96.742 341.72 96.6637 343.177 96.3425C346.56 95.5975 348.514 94.601 351.574 92.0609C360.166 84.9289 366.671 73.9826 368.951 62.8203C370.211 56.6498 370.32 49.5322 369.252 43.192C367.623 33.5255 362.868 23.9423 356.053 16.5911L355.067 15.5271L355.616 16.7846ZM177.191 103.045C176.249 103.477 175.454 104.257 174.901 105.29C174.486 106.066 174.486 106.085 174.432 123.43L174.378 140.793H177.427H180.477L180.407 132.402L180.337 124.011L184.948 123.91C188.87 123.825 189.757 123.75 190.893 123.407C194.139 122.428 196.685 119.993 197.798 116.804C198.43 114.992 198.433 111.825 197.804 109.996C196.576 106.42 193.309 103.533 189.764 102.889C189.122 102.773 186.273 102.683 183.291 102.685C178.539 102.689 177.881 102.728 177.191 103.045ZM0 121.944V140.724H2.60917H5.21815V121.944L5.21796 103.165H2.60898H0V121.944ZM65.0216 117.993C65.0216 128.223 65.0891 133.161 65.2382 133.867C65.8347 136.69 67.8677 139.323 70.1422 140.219C71.1333 140.609 71.7228 140.687 74.2033 140.751L77.105 140.826L77.1191 137.956L77.1332 135.086L75.0869 135.14C72.711 135.203 72.0667 134.947 71.4235 133.685C70.7412 132.346 70.6253 130.9 70.6253 123.733V116.804H73.8655H77.1056L77.1131 113.902L77.1205 111H73.9212H70.7219L70.7895 107.066L70.8571 103.132L67.9394 103.138L65.0216 103.145V117.993ZM82.876 105.68V108.291H85.7938H88.7115V105.68V103.068H85.7938H82.876V105.68ZM94.394 117.481C94.3948 126.282 94.4713 132.265 94.5924 133.013C95.0342 135.738 96.3462 137.937 98.3173 139.255C100.015 140.39 101.005 140.631 104.421 140.744L107.397 140.841L107.274 140.382C107.206 140.129 107.15 138.866 107.148 137.576L107.146 135.23L104.972 135.255C103.043 135.276 102.721 135.231 102.114 134.853C101.292 134.342 100.694 133.32 100.404 131.932C100.269 131.288 100.189 128.248 100.189 123.743V116.579L103.769 116.643L107.349 116.707L107.22 116.127C107.048 115.355 107.055 112.612 107.23 111.822L107.37 111.193H103.79H100.21L100.325 107.179L100.44 103.165H97.4165H94.3924L94.394 117.481ZM140.423 118.255L140.479 133.345L140.92 134.648C141.556 136.526 142.764 138.192 144.208 139.182C145.979 140.395 146.947 140.64 150.4 140.745L153.367 140.835L153.228 140.397C153.152 140.156 153.097 138.892 153.107 137.588L153.125 135.217L150.956 135.248C148.223 135.287 147.707 135.047 146.854 133.343L146.274 132.184L146.216 124.386L146.158 116.588L149.694 116.623L153.231 116.657L153.134 115.811C153.002 114.652 153.029 112.583 153.187 111.822L153.318 111.193H149.73H146.143L146.282 107.179L146.421 103.165H143.394H140.368L140.423 118.255ZM254.429 118.255L254.485 133.345L254.926 134.648C255.561 136.526 256.769 138.192 258.213 139.182C259.955 140.375 260.954 140.63 264.337 140.742L267.236 140.837V138.03V135.223L265.014 135.251C262.26 135.286 261.664 135.007 260.82 133.286L260.28 132.184L260.219 124.385L260.159 116.586L263.698 116.647L267.236 116.707V113.95V111.194H263.71L260.185 111.193L260.31 107.179L260.435 103.165H257.404H254.373L254.429 118.255ZM189.558 108.612C191.25 109.526 192.156 111.098 192.161 113.128C192.163 113.82 192.078 114.696 191.973 115.075C191.696 116.073 190.503 117.366 189.375 117.892C188.449 118.324 188.192 118.348 184.389 118.349L180.379 118.351L180.382 113.95C180.383 111.529 180.439 109.216 180.506 108.81L180.628 108.071L184.706 108.133C188.451 108.19 188.848 108.229 189.558 108.612ZM277.653 110.889C274.142 111.687 271.204 114.467 270.306 117.842C269.899 119.373 269.928 130.35 270.344 131.962C271.151 135.094 273.507 137.986 276.414 139.413C278.942 140.654 279.9 140.786 286.418 140.789L292.073 140.793L291.925 140.261C291.843 139.968 291.786 138.701 291.799 137.446L291.821 135.163L291.289 135.28C290.996 135.345 288.595 135.41 285.953 135.427C281.802 135.453 281.001 135.409 280.066 135.109C277.59 134.312 275.949 132.212 275.705 129.524L275.586 128.218H284.212H292.839V123.712C292.839 118.872 292.7 117.855 291.793 116.063C290.644 113.792 288.808 112.17 286.342 111.245C285.155 110.8 284.682 110.74 281.921 110.684C279.781 110.641 278.468 110.704 277.653 110.889ZM14.19 111.532C13.5036 111.88 12.9415 112.353 12.5611 112.903L11.9802 113.741L11.928 127.235L11.8761 140.729L14.7299 140.734L17.5839 140.74V128.723V116.707L21.7574 116.655L25.9312 116.603L26.9732 117.148C27.8521 117.607 28.1063 117.871 28.5964 118.832L29.1776 119.97L29.1194 130.349L29.0611 140.728H31.981H34.9009L34.8352 129.782C34.7718 119.242 34.7542 118.79 34.361 117.626C33.2756 114.414 30.4595 111.897 27.1875 111.214C26.5798 111.087 23.9423 111 20.7006 111H15.2379L14.19 111.532ZM82.8953 125.911V140.725L85.7938 140.73L88.6922 140.736V125.916V111.097H85.7938H82.8953V125.911ZM111.204 120.874C111.203 131.76 111.207 131.798 112.509 134.405C113.985 137.359 117.212 139.798 120.575 140.503C122.27 140.858 130.383 140.909 131.508 140.572C132.517 140.269 133.597 139.333 134.025 138.388C134.361 137.647 134.383 136.822 134.386 124.349L134.391 111.097H131.506H128.621L128.733 121.35C128.794 126.989 128.779 132.459 128.7 133.505L128.556 135.406L125.048 135.34C121.864 135.281 121.448 135.233 120.534 134.821C119.225 134.231 117.949 132.851 117.372 131.4L116.914 130.249L116.909 120.673L116.904 111.097H114.054H111.204L111.204 120.874ZM207.94 111.301C204.177 112.231 201.228 115.469 200.651 119.303C200.314 121.544 200.529 130.891 200.952 132.377C201.507 134.329 202.571 136.126 204.047 137.604C207.705 141.266 212.746 141.995 216.764 139.443L217.673 138.867L217.672 139.878L217.672 140.889L220.474 140.831L223.276 140.773V127.368V113.963L222.826 113.11C222.531 112.55 222.055 112.058 221.441 111.677L220.506 111.097L214.79 111.059C210.351 111.03 208.821 111.084 207.94 111.301ZM296.706 120.77C296.709 131.638 296.729 131.832 298.066 134.406C299.434 137.038 301.846 139.088 304.851 140.17C306.253 140.675 306.328 140.681 311.679 140.688L317.089 140.696L318.002 140.159C318.594 139.811 319.103 139.3 319.451 138.708L319.988 137.794L320.041 124.445L320.095 111.097L317.143 111.14L314.191 111.183L314.212 111.817C314.248 112.875 314.309 126.679 314.298 131.186L314.287 135.412L310.664 135.342C307.476 135.28 306.934 135.222 306.148 134.862C304.869 134.275 303.754 133.189 303.134 131.925L302.597 130.83L302.548 120.992L302.498 111.155L299.601 111.126L296.704 111.097L296.706 120.77ZM333.052 111.499C329.445 112.471 326.604 115.623 326.083 119.233C325.973 119.992 325.887 124.955 325.885 130.65L325.881 140.724H328.829H331.777L331.705 130.476C331.653 122.969 331.695 120.024 331.862 119.465C332.166 118.45 333.486 117.152 334.532 116.839C335.057 116.682 336.349 116.603 338.081 116.621L340.804 116.65L340.83 113.922L340.856 111.193L337.475 111.206C335.166 111.215 333.763 111.308 333.052 111.499ZM45.2156 111.657C43.355 112.247 41.9458 113.299 40.8819 114.894C38.6547 118.233 39.2087 122.79 42.1752 125.532C43.2014 126.481 43.6414 126.701 47.9195 128.404C52.0756 130.059 52.5974 130.317 52.9902 130.907C53.9353 132.326 53.3643 134.299 51.7829 135.078C51.0853 135.422 50.5833 135.458 46.4716 135.465C43.9741 135.469 41.496 135.407 40.9646 135.327L39.9984 135.182V137.987V140.793L46.1818 140.788C49.7074 140.785 52.7353 140.698 53.2265 140.585C55.9294 139.961 58.1521 137.925 59.0375 135.261C59.9244 132.593 59.2472 129.335 57.3734 127.259C56.168 125.923 55.2046 125.396 51.0139 123.783C48.8178 122.937 46.8022 122.102 46.535 121.926C46.2678 121.751 45.8738 121.211 45.6597 120.726C45.0118 119.26 45.4574 117.932 46.8784 117.094C47.4899 116.733 47.8818 116.707 52.6549 116.707C55.4713 116.707 58.0364 116.766 58.3552 116.838L58.9349 116.968V114.178V111.387L52.4617 111.4C47.8101 111.409 45.771 111.482 45.2156 111.657ZM234.539 111.667C233.341 112.042 232.184 112.777 231.172 113.806C227.674 117.359 228.296 123.451 232.444 126.268C232.875 126.561 235.15 127.556 237.5 128.48C239.85 129.404 241.924 130.326 242.108 130.53C243.389 131.948 242.911 134.196 241.142 135.074C240.463 135.411 239.939 135.451 236.034 135.461C233.64 135.468 231.13 135.402 230.456 135.316L229.231 135.159L229.376 135.8C229.558 136.604 229.559 139.789 229.377 140.363L229.24 140.793H235.493C242.295 140.793 243.207 140.686 244.905 139.69C246.184 138.939 247.421 137.562 248.082 136.15C248.571 135.106 248.685 134.591 248.749 133.123C248.862 130.551 248.287 128.958 246.565 127.078C245.418 125.826 244.722 125.455 240.354 123.773C238.172 122.933 236.167 122.102 235.9 121.926C235.632 121.751 235.238 121.211 235.024 120.726C234.376 119.26 234.822 117.931 236.243 117.095C236.835 116.746 237.315 116.702 241.15 116.647C243.488 116.613 246.053 116.66 246.85 116.749L248.299 116.913V114.15V111.387L241.826 111.4C237.044 111.409 235.14 111.479 234.539 111.667ZM284.414 116.409C285.223 116.717 286.209 117.741 286.608 118.689C286.822 119.195 287.056 120.327 287.129 121.205L287.262 122.801H281.452H275.641V121.482C275.641 119.746 276.054 118.423 276.906 117.426C277.909 116.253 278.831 116.003 281.682 116.132C282.932 116.188 284.161 116.313 284.414 116.409ZM217.382 118.206C217.453 119.084 217.483 122.283 217.447 125.316C217.385 130.639 217.367 130.865 216.923 131.849C216.345 133.129 214.73 134.642 213.491 135.065C210.624 136.043 207.692 134.533 206.528 131.479C206.065 130.264 206.037 120.348 206.493 119.319C206.941 118.308 207.72 117.473 208.64 117.017C209.392 116.644 209.786 116.611 213.356 116.61L217.251 116.61L217.382 118.206Z" fill="#005A9A"/>
<path fill-rule="evenodd" clip-rule="evenodd" d="M264.52 20.5782C263.05 21.4818 262.219 22.8559 262.041 24.6766C261.824 26.8908 262.471 28.7302 264.082 30.4802C267.46 34.1496 272.782 34.5143 275.26 31.2462C277.533 28.2488 275.47 22.7012 271.355 20.7466C269.42 19.8273 265.884 19.7404 264.52 20.5782Z" fill="#E5A400"/>
</svg>
