<svg width="891" height="405" viewBox="0 0 891 405" fill="none" xmlns="http://www.w3.org/2000/svg">
<path d="M195 146.288L887.44 7L891 229.948L195 362V146.288Z" fill="white"/>
<path d="M50 156L180 132V377L50 399L44 351.5L16 321.5L5.5 279.5L16 233L44 197.5L50 156Z" fill="white"/>
<path fill-rule="evenodd" clip-rule="evenodd" d="M883.16 1.08179C879.983 1.6771 875.527 2.49751 873.258 2.90483C870.988 3.31215 867.089 4.05588 864.593 4.55719C862.096 5.05768 858.289 5.66454 856.134 5.9053C853.978 6.14607 852.214 6.67871 852.214 7.08851C852.214 7.49747 850.565 7.83306 848.549 7.83306C846.533 7.83306 844.684 8.15792 844.438 8.55452C844.193 8.95112 842.036 9.50933 839.644 9.79545C829.942 10.9564 827.835 11.3324 827.086 12.0398C826.655 12.4471 825.355 12.7811 824.198 12.7827C823.041 12.7844 818.38 13.5685 813.841 14.525C809.302 15.4814 803.824 16.4437 801.669 16.663C799.513 16.8823 797.749 17.3976 797.749 17.8074C797.749 18.2164 795.914 18.552 793.671 18.552C791.428 18.552 789.365 18.923 789.084 19.3765C788.803 19.83 787.132 20.201 785.37 20.201C783.609 20.201 781.937 20.5721 781.657 21.0256C781.376 21.4791 779.312 21.8501 777.069 21.8501C774.826 21.8501 772.992 22.2211 772.992 22.6746C772.992 23.1281 771.44 23.4992 769.543 23.4992C767.647 23.4992 764.954 23.848 763.56 24.2742C762.167 24.7005 758.984 25.4311 756.487 25.8986C753.991 26.3661 747.864 27.5443 742.871 28.5173C728.544 31.31 725.772 31.8121 722.034 32.2879C720.105 32.5344 718.527 33.0687 718.527 33.4768C718.527 33.8842 716.744 34.2181 714.566 34.2181C712.387 34.2181 710.251 34.5529 709.821 34.9626C709.389 35.3724 707.365 35.9067 705.323 36.1508C703.281 36.3949 699.753 36.9663 697.483 37.4214C695.214 37.8757 690.201 38.8206 686.343 39.5207C682.485 40.2207 677.657 41.1351 675.615 41.5523C670.104 42.6778 662.489 44.185 658.285 44.9815C656.242 45.3691 652.715 46.098 650.445 46.6018C648.176 47.1055 644.834 47.7 643.018 47.9226C641.203 48.1461 638.974 48.6499 638.067 49.0432C637.159 49.4365 634.931 49.97 633.115 50.2297C631.3 50.4894 627.958 51.0897 625.688 51.563C623.419 52.0371 619.705 52.7503 617.436 53.1469C615.167 53.5443 610.153 54.4933 606.295 55.2552C602.437 56.0179 597.61 56.8268 595.567 57.0535C593.525 57.2794 591.501 57.7997 591.07 58.2095C590.638 58.6193 588.711 58.9541 586.786 58.9541C584.861 58.9541 583.057 59.3251 582.776 59.7786C582.496 60.2321 580.432 60.6031 578.189 60.6031C575.946 60.6031 574.111 60.9222 574.111 61.3122C574.111 61.7022 572.162 62.2629 569.779 62.5581C567.396 62.8525 563.775 63.4123 561.733 63.8015C541.686 67.6207 530.368 69.9014 528.252 70.5478C526.859 70.9733 524.559 71.3221 523.143 71.3221C521.727 71.3221 520.339 71.6931 520.059 72.1466C519.778 72.6001 517.921 72.9711 515.933 72.9711C513.944 72.9711 512.087 73.3422 511.806 73.7957C511.526 74.2491 509.669 74.6202 507.68 74.6202C505.691 74.6202 503.863 74.9459 503.616 75.3449C503.369 75.7432 501.026 76.2833 498.41 76.5455C495.793 76.8077 491.98 77.3832 489.938 77.8235C482.019 79.5328 462.947 83.0741 459.611 83.455C457.682 83.676 456.103 84.1897 456.103 84.5979C456.103 85.0052 454.247 85.3391 451.977 85.3391C449.708 85.3391 447.851 85.6747 447.851 86.0837C447.851 86.4935 446.087 87.0302 443.931 87.2759C441.775 87.5225 437.969 88.1046 435.473 88.5705C432.976 89.0363 429.448 89.6358 427.633 89.9029C425.817 90.17 423.589 90.7085 422.681 91.0985C421.774 91.4893 419.546 92.0195 417.73 92.2759C415.915 92.5332 412.572 93.0955 410.303 93.5267C399.906 95.4982 391.844 97.0805 388.434 97.8168C383.26 98.9348 376.289 100.174 372.136 100.715C370.207 100.966 368.629 101.459 368.629 101.811C368.629 102.162 366.679 102.673 364.296 102.947C361.914 103.22 357.921 103.834 355.425 104.312C349.125 105.518 344.938 106.31 333.969 108.371C328.75 109.351 323.338 110.507 321.945 110.939C320.551 111.37 318.118 111.724 316.539 111.724C314.961 111.724 313.315 112.059 312.884 112.469C312.157 113.16 310.524 113.442 299.928 114.711C297.772 114.97 296.008 115.517 296.008 115.927C296.008 116.336 294.845 116.671 293.422 116.671C291.999 116.671 289.493 117.01 287.852 117.424C283.594 118.499 278.279 119.554 264.65 122.031C258.068 123.227 251.543 124.551 250.15 124.974C248.756 125.396 246.457 125.741 245.041 125.741C243.624 125.741 242.236 126.112 241.956 126.566C241.675 127.019 239.686 127.39 237.533 127.39C235.381 127.39 233.268 127.725 232.837 128.135C232.405 128.545 230.382 129.041 228.34 129.239C224.902 129.572 203.629 133.714 195.525 135.629C193.589 136.086 190.768 136.46 189.256 136.46H186.505L185.623 130.18C184.543 122.486 184.025 121.861 179.788 123.129C178.019 123.658 175.11 124.092 173.325 124.092C171.539 124.092 169.725 124.429 169.294 124.841C168.863 125.252 166.653 125.795 164.384 126.045C156.057 126.966 152.794 127.5 151.18 128.204C150.273 128.601 147.673 129.117 145.404 129.351C143.134 129.585 137.193 130.556 132.2 131.508C127.207 132.46 119.966 133.799 116.108 134.484C112.25 135.169 107.051 136.106 104.555 136.566C102.059 137.027 98.1593 137.597 95.8899 137.833C93.6205 138.069 91.4114 138.598 90.9798 139.01C90.549 139.421 88.4356 139.758 86.2834 139.758C84.1312 139.758 82.1416 140.129 81.861 140.583C81.5804 141.036 79.538 141.407 77.3222 141.407C75.1065 141.407 73.0921 141.733 72.8454 142.132C72.5986 142.53 70.2558 143.076 67.639 143.344C65.0222 143.613 60.8382 144.219 58.3419 144.691C55.8456 145.164 52.0314 145.779 49.866 146.059C47.7006 146.339 45.7406 146.871 45.5112 147.243C44.6464 148.641 41.0088 182.72 41.0112 189.403C41.0121 193.025 40.7232 193.553 36.7341 197.236C32.1937 201.428 25.0645 208.78 23.1466 211.248C16.0926 220.327 9.66402 230.954 9.65659 233.549C9.65494 234.116 9.36281 234.579 9.00796 234.579C8.65311 234.579 7.85677 236.342 7.23784 238.496C6.61892 240.651 5.8399 242.784 5.50651 243.237C4.38172 244.767 1.44059 258.906 0.466822 267.468C-0.705832 277.771 0.33561 289.417 3.53668 301.799C4.70603 306.323 5.86136 310.859 6.10397 311.879C6.34659 312.899 6.87309 313.735 7.27415 313.735C7.67439 313.735 8.00283 314.477 8.00283 315.384C8.00283 316.291 8.37419 317.033 8.82806 317.033C9.28194 317.033 9.65329 317.96 9.65329 319.094C9.65329 320.228 9.95038 321.155 10.3127 321.155C10.6758 321.155 11.416 322.382 11.959 323.881C13.3107 327.618 20.307 338.01 24.3011 342.214C24.8689 342.812 25.3327 343.536 25.3327 343.824C25.3327 344.459 36.9429 355.86 38.7732 357.023C39.8279 357.693 40.2339 360.858 40.9411 373.925C41.9215 392.046 43.18 403.631 44.2874 404.737C45.0095 405.459 52.307 404.661 62.4681 402.749C73.6896 400.638 76.3386 400.194 80.2105 399.778C82.4799 399.534 84.6891 398.997 85.1207 398.586C85.5514 398.174 87.6649 397.837 89.8171 397.837C91.9693 397.837 93.9308 397.511 94.1776 397.112C94.4243 396.714 96.7672 396.164 99.384 395.89C104.258 395.381 109.742 394.494 117.759 392.919C120.255 392.429 125.64 391.455 129.724 390.756C138.245 389.297 143.818 388.311 150.561 387.069C153.172 386.588 157.256 385.997 159.639 385.755C162.021 385.513 163.971 385.023 163.971 384.664C163.971 384.305 166.292 383.783 169.129 383.502C179.239 382.502 182.068 381.998 182.809 381.06C183.222 380.537 183.99 377.158 184.515 373.549C185.481 366.897 186.177 365.716 189.141 365.692C190.049 365.685 193.577 365.085 196.981 364.358C203.907 362.88 211.127 361.674 216.993 361.014C219.148 360.772 220.912 360.238 220.912 359.828C220.912 359.419 222.509 359.084 224.461 359.084C226.413 359.084 228.363 358.753 228.793 358.349C229.225 357.945 231.805 357.411 234.529 357.162C237.252 356.913 241.151 356.293 243.194 355.783C245.236 355.275 248.578 354.524 250.621 354.116C254.56 353.329 255.629 353.148 267.951 351.178C272.262 350.49 276.931 349.575 278.325 349.145C279.718 348.716 282.203 348.365 283.846 348.365C285.489 348.365 287.063 347.994 287.344 347.54C287.624 347.087 289.688 346.716 291.931 346.716C294.174 346.716 296.008 346.345 296.008 345.891C296.008 345.438 298.051 345.067 300.547 345.067C303.044 345.067 305.086 344.73 305.086 344.319C305.086 343.907 307.035 343.377 309.418 343.141C311.801 342.905 315.608 342.335 317.877 341.874C326.241 340.177 336.961 338.3 340.571 337.898C342.613 337.672 344.637 337.151 345.068 336.742C345.499 336.332 348.006 335.997 350.639 335.997C353.271 335.997 355.425 335.665 355.425 335.259C355.425 334.541 358.322 333.942 366.359 333C368.516 332.747 370.279 332.204 370.279 331.794C370.279 331.385 371.96 331.05 374.014 331.05C376.069 331.05 380.619 330.309 384.123 329.404C390.49 327.761 416.698 323.049 424.143 322.211C426.308 321.967 428.28 321.444 428.524 321.049C428.768 320.654 430.803 320.331 433.046 320.331C435.288 320.331 437.123 319.96 437.123 319.506C437.123 319.053 438.957 318.682 441.2 318.682C443.443 318.682 445.507 318.311 445.788 317.857C446.068 317.404 448.132 317.033 450.375 317.033C452.618 317.033 454.453 316.662 454.453 316.208C454.453 315.755 456.495 315.384 458.992 315.384C461.488 315.384 463.53 315.013 463.53 314.559C463.53 314.106 464.802 313.735 466.356 313.735C467.91 313.735 470.973 313.359 473.164 312.899C477.001 312.093 490.871 309.406 499.428 307.81C501.697 307.387 505.225 306.842 507.268 306.597C509.31 306.353 511.334 305.819 511.765 305.409C512.196 305 514.124 304.665 516.049 304.665C517.974 304.665 519.778 304.294 520.059 303.84C520.339 303.387 522.403 303.016 524.646 303.016C526.889 303.016 528.724 302.645 528.724 302.191C528.724 301.738 530.744 301.367 533.214 301.367C535.684 301.367 537.904 301.042 538.15 300.645C538.395 300.249 540.552 299.703 542.944 299.432C547.724 298.891 552.566 298.093 563.796 295.997C567.881 295.235 572.995 294.413 575.16 294.172C577.326 293.93 579.297 293.41 579.541 293.015C579.786 292.62 581.613 292.297 583.601 292.297C585.59 292.297 587.447 291.926 587.728 291.472C588.008 291.019 589.886 290.648 591.902 290.648C593.919 290.648 595.567 290.277 595.567 289.823C595.567 289.37 597.402 288.999 599.645 288.999C601.888 288.999 603.924 288.673 604.17 288.274C604.417 287.876 606.76 287.351 609.377 287.108C611.994 286.865 617.477 286.04 621.562 285.274C635.263 282.707 637.223 282.341 641.368 281.578C643.637 281.16 647.536 280.418 650.033 279.929C657.712 278.424 663.5 277.41 666.95 276.964C668.765 276.729 670.993 276.208 671.901 275.806C672.809 275.404 675.037 274.89 676.853 274.664C678.668 274.437 682.196 273.869 684.692 273.4C687.189 272.932 692.573 271.959 696.658 271.239C700.743 270.518 706.128 269.564 708.624 269.118C711.12 268.672 714.834 268.103 716.876 267.854C718.919 267.605 720.942 267.066 721.374 266.656C721.805 266.246 723.732 265.912 725.658 265.912C727.583 265.912 729.387 265.541 729.667 265.087C729.948 264.634 732.012 264.263 734.255 264.263C736.498 264.263 738.332 263.892 738.332 263.438C738.332 262.985 740.3 262.614 742.706 262.614C745.112 262.614 747.433 262.279 747.864 261.869C748.294 261.459 750.319 260.925 752.361 260.681C754.404 260.437 757.932 259.877 760.201 259.437C771.46 257.254 779.558 255.838 783.118 255.43C785.284 255.183 787.255 254.657 787.5 254.262C787.744 253.867 789.778 253.544 792.021 253.544C794.264 253.544 796.098 253.173 796.098 252.719C796.098 252.266 797.933 251.895 800.176 251.895C802.419 251.895 804.483 251.524 804.763 251.07C805.044 250.617 807.108 250.246 809.351 250.246C811.594 250.246 813.428 249.875 813.428 249.421C813.428 248.968 815.471 248.597 817.967 248.597C820.463 248.597 822.506 248.26 822.506 247.849C822.506 247.436 824.455 246.938 826.838 246.741C830.726 246.417 838.151 245.127 850.151 242.688C852.42 242.227 856.226 241.664 858.61 241.436C860.993 241.209 862.942 240.687 862.942 240.275C862.942 239.863 864.777 239.527 867.02 239.527C869.263 239.527 871.326 239.156 871.607 238.702C871.888 238.249 873.951 237.878 876.194 237.878C878.437 237.878 880.272 237.507 880.272 237.053C880.272 236.6 882.155 236.229 884.457 236.229C886.984 236.229 889.109 235.762 889.821 235.05C890.826 234.047 891 222.603 891 157.593C891 113.525 890.688 81.1208 890.261 80.857C889.832 80.5931 889.691 64.678 889.926 43.0859C890.148 22.5633 890.016 4.47309 889.633 2.88586L888.937 0L883.16 1.08179ZM877.796 62.1557V110.707L875.527 111.272C872.379 112.056 864.908 113.362 860.466 113.904C858.424 114.153 856.401 114.692 855.969 115.102C855.538 115.512 853.61 115.847 851.685 115.847C849.76 115.847 847.956 116.218 847.675 116.671C847.395 117.125 845.888 117.496 844.326 117.496C841.022 117.496 841.334 119.705 841.484 97.3732C841.553 87.1407 841.296 82.4326 840.645 82.0311C839.827 81.5265 822.881 84.1501 816.523 85.7654L814.254 86.3426V104.344C814.254 115.364 813.936 122.542 813.435 122.851C812.502 123.428 800.845 125.634 795.273 126.289C793.231 126.529 791.206 127.06 790.776 127.47C790.345 127.88 788.699 128.215 787.121 128.215C785.542 128.215 782.996 128.667 781.464 129.222C777.362 130.703 777 129.596 777.303 116.465C777.542 106.113 777.023 102.79 775.758 106.571C774.569 110.123 773.365 112.549 772.791 112.549C772.447 112.549 772.167 113.291 772.167 114.198C772.167 115.105 771.795 115.847 771.342 115.847C770.888 115.847 770.516 116.331 770.516 116.923C770.516 119.091 756.811 133.256 752.465 135.58C751.571 136.058 750.278 137.011 749.591 137.696C748.904 138.382 745.718 140.177 742.51 141.685C739.302 143.192 736.926 144.675 737.23 144.978C738.19 145.937 742.306 145.575 742.668 144.499C743.123 143.15 745.759 145.195 745.759 146.896C745.759 147.537 746.665 150.924 747.774 154.423C752.123 168.157 753.186 171.912 753.186 173.53C753.186 174.456 753.558 175.213 754.012 175.213C754.466 175.213 754.837 176.304 754.837 177.638C754.837 178.972 755.208 180.292 755.662 180.573C756.116 180.853 756.487 182.173 756.487 183.507C756.487 184.841 756.859 185.932 757.313 185.932C757.766 185.932 758.138 186.971 758.138 188.241C758.138 189.511 758.462 190.902 758.857 191.333C759.254 191.764 760.202 194.723 760.964 197.91C761.728 201.096 762.697 204.25 763.121 204.919C763.603 205.682 763.894 195.011 763.902 176.185C763.916 142.496 763.653 143.881 770.045 143.881C772.12 143.881 773.817 143.51 773.817 143.056C773.817 142.603 774.812 142.232 776.028 142.232C777.244 142.232 779.379 141.887 780.773 141.466C788.265 139.201 802.28 136.594 803.139 137.306C803.658 137.736 804.574 140.133 805.174 142.633C805.773 145.133 806.577 147.179 806.958 147.179C807.34 147.179 807.652 148.27 807.652 149.604C807.652 150.938 808.023 152.258 808.477 152.539C808.931 152.819 809.302 154.139 809.302 155.473C809.302 156.807 809.674 157.898 810.127 157.898C810.581 157.898 810.953 158.989 810.953 160.323C810.953 161.657 811.324 162.977 811.778 163.257C812.232 163.538 812.603 164.651 812.603 165.731C812.603 166.811 812.974 167.924 813.428 168.205C813.882 168.485 814.254 169.44 814.254 170.326C814.254 171.213 814.58 172.582 814.977 173.369C815.376 174.157 816.081 176.1 816.546 177.687C817.01 179.274 818.042 182.799 818.839 185.52C820.353 190.685 821.681 193.074 821.681 190.632C821.681 189.861 822.052 189.23 822.506 189.23C822.96 189.23 823.331 187.746 823.331 185.932C823.331 184.118 823.702 182.634 824.156 182.634C824.61 182.634 824.982 181.358 824.982 179.797C824.982 178.236 825.313 176.754 825.719 176.504C826.125 176.253 826.641 174.654 826.865 172.951C827.088 171.247 828.276 166.143 829.503 161.608C830.73 157.073 831.927 152.153 832.163 150.676C832.398 149.197 832.921 147.784 833.325 147.535C833.729 147.285 834.059 145.827 834.059 144.293C834.059 142.76 834.43 141.275 834.884 140.995C835.338 140.715 835.71 139.209 835.71 137.648C835.71 136.087 836.081 134.811 836.535 134.811C836.989 134.811 837.36 133.857 837.36 132.691C837.36 129.936 838.823 128.547 842.349 127.958C843.916 127.696 846.871 127.116 848.913 126.668C850.956 126.22 856.34 125.069 860.879 124.111C865.418 123.152 870.272 122.013 871.666 121.581C873.059 121.148 875.01 120.794 875.998 120.794H877.796V168.189V215.584L875.94 216.031C868.753 217.759 862.04 219.152 859.229 219.5C857.413 219.724 855.574 220.24 855.144 220.647C854.712 221.054 852.949 221.387 851.224 221.387H848.088V195.826C848.088 179.336 847.795 170.266 847.263 170.266C846.809 170.266 846.437 171.075 846.437 172.063C846.437 173.05 846.072 174.999 845.625 176.391C844.909 178.623 843.051 185.85 840.52 196.239C840.078 198.053 839.516 200.746 839.272 202.224C839.028 203.702 838.498 205.116 838.094 205.365C837.69 205.614 837.36 206.909 837.36 208.243C837.36 209.577 836.989 210.668 836.535 210.668C836.081 210.668 835.71 211.944 835.71 213.505C835.71 215.066 835.338 216.572 834.884 216.852C834.43 217.132 834.048 218.546 834.033 219.993C833.987 224.589 832.544 225.497 821.458 227.911C815.832 229.135 810.796 229.993 810.266 229.816C809.736 229.64 809.302 228.62 809.302 227.551C809.302 226.482 808.931 225.378 808.477 225.097C808.023 224.817 807.652 223.862 807.652 222.976C807.652 222.089 807.326 220.72 806.928 219.932C806.209 218.512 805.828 217.302 803.096 207.782C802.315 205.061 800.978 200.77 800.125 198.245C799.272 195.721 798.574 192.845 798.574 191.855C798.574 190.865 798.203 190.055 797.749 190.055C797.295 190.055 796.924 188.915 796.924 187.523C796.924 185.206 795.385 182.634 793.999 182.634C793.688 182.634 793.654 184.582 793.925 186.963C794.314 190.39 794.806 228.408 794.517 232.724C794.479 233.292 793.52 233.755 792.385 233.755C791.25 233.755 790.322 234.126 790.322 234.579C790.322 235.033 788.651 235.404 786.608 235.404C784.566 235.404 782.895 235.775 782.895 236.229C782.895 236.682 781.246 237.053 779.23 237.053C777.214 237.053 775.336 237.424 775.055 237.878C774.774 238.331 773.103 238.702 771.342 238.702C769.58 238.702 767.909 239.073 767.628 239.527C767.347 239.98 765.774 240.351 764.131 240.351C762.488 240.351 760.003 240.696 758.609 241.116C754.093 242.481 743.791 244.451 740.022 244.671L736.347 244.886L735.372 240.763C734.837 238.496 734.129 235.991 733.801 235.198C733.173 233.679 730.08 233.165 730.08 234.579C730.08 235.033 728.431 235.404 726.415 235.404C724.399 235.404 722.521 235.775 722.24 236.229C721.96 236.682 720.103 237.053 718.114 237.053C716.125 237.053 714.269 237.424 713.988 237.878C713.707 238.331 711.922 238.714 710.019 238.729C705.257 238.765 703.673 240.171 703.673 244.358C703.673 246.236 703.301 247.772 702.847 247.772C702.393 247.772 702.022 248.842 702.022 250.149C702.022 252.666 702.072 252.64 694.182 254.347C692.367 254.739 686.982 255.848 682.217 256.811C673.414 258.588 668.972 259.639 664.416 261.021C663.022 261.443 660.537 261.789 658.894 261.789C657.251 261.789 655.677 262.16 655.397 262.614C655.116 263.067 653.238 263.438 651.222 263.438C649.206 263.438 647.557 263.774 647.557 264.183C647.557 264.592 645.793 265.125 643.637 265.366C641.482 265.607 637.86 266.156 635.591 266.588C633.322 267.019 627.194 268.179 621.975 269.166C616.755 270.154 611.185 271.272 609.596 271.651C600.841 273.742 598.583 274.157 595.968 274.157C594.386 274.157 593.092 274.528 593.092 274.982C593.092 275.435 591.257 275.806 589.014 275.806C586.771 275.806 584.731 276.138 584.48 276.543C584.229 276.949 582.629 277.463 580.924 277.687C579.219 277.91 576.967 278.369 575.919 278.708C574.39 279.201 573.923 278.975 573.553 277.564C573.301 276.597 572.835 275.806 572.519 275.806C572.203 275.806 571.433 274.507 570.81 272.92C570.187 271.333 569.375 270.034 569.006 270.034C568.637 270.034 568.335 269.323 568.335 268.454C568.335 267.585 568.029 266.75 567.656 266.599C566.894 266.291 560.908 255.229 560.908 254.13C560.908 253.743 560.393 252.912 559.765 252.284C558.859 251.379 558.045 251.332 555.845 252.055C554.317 252.558 552.604 253.087 552.036 253.23C551.259 253.427 551.005 257.142 551.005 268.295V283.099L548.323 283.893C546.847 284.329 543.598 285.088 541.102 285.578C538.606 286.068 535.449 286.703 534.088 286.988C532.726 287.274 529.848 287.693 527.692 287.92C525.537 288.148 523.772 288.669 523.772 289.079C523.772 289.488 521.915 289.823 519.646 289.823H515.52V254.694V219.565L512.219 220.064C510.403 220.338 507.339 220.786 505.411 221.059C503.482 221.333 501.55 221.889 501.12 222.296C500.688 222.703 498.925 223.036 497.2 223.036H494.064V258.903C494.064 278.63 493.786 294.769 493.445 294.767C492.178 294.76 471.276 298.996 468.836 299.755C467.442 300.188 465.121 300.542 463.678 300.542C462.236 300.542 461.055 300.958 461.055 301.467C461.055 302.11 460.678 302.081 459.826 301.374C458.779 300.507 458.565 295.195 458.382 265.612C458.193 235.194 458.012 230.912 456.929 231.215C456.248 231.405 454.205 231.722 452.39 231.918C450.574 232.114 448.736 232.608 448.305 233.015C447.873 233.422 446.132 233.755 444.434 233.755C442.735 233.755 441.117 234.126 440.837 234.579C440.556 235.033 438.678 235.404 436.662 235.404C434.646 235.404 432.997 235.775 432.997 236.229C432.997 236.682 431.348 237.053 429.332 237.053C427.316 237.053 425.438 237.424 425.157 237.878C424.877 238.331 423.209 238.702 421.45 238.702C419.046 238.702 418.132 238.318 417.761 237.151C417.027 234.838 414.413 232.106 412.937 232.106C412.222 232.106 411.386 231.699 411.08 231.202C410.546 230.341 409.216 230.429 402.528 231.769C396.569 232.963 391.586 241.364 395.655 243.355C396.449 243.743 404.712 244.062 414.016 244.062C431.713 244.062 435.878 244.716 438.87 247.97C439.604 248.768 440.466 249.421 440.786 249.421C442.343 249.421 447.026 256.132 447.026 258.363C447.026 259.287 447.397 260.272 447.851 260.552C448.969 261.242 448.901 275.376 447.763 279.046C446.437 283.316 441.547 293.565 439.832 295.666C435.693 300.737 428.997 306.741 425.918 308.142C424.819 308.642 423.919 309.292 423.919 309.586C423.919 309.879 422.341 310.769 420.412 311.564C418.483 312.358 416.26 313.357 415.472 313.783C414.684 314.21 413.477 314.559 412.79 314.559C412.103 314.559 411.541 314.93 411.541 315.384C411.541 315.837 410.241 316.208 408.652 316.208C407.064 316.208 405.764 316.528 405.764 316.92C405.764 317.702 396.542 318.914 391.323 318.819C385.661 318.714 379.357 317.732 379.357 316.953C379.357 316.544 378.522 316.2 377.5 316.19C376.478 316.18 374.715 315.446 373.58 314.559C372.445 313.672 371.189 312.938 370.788 312.928C369.987 312.908 367.478 310.234 365.551 307.344C363.391 304.108 362.44 305.117 362.44 310.641V315.796L358.932 316.049C357.004 316.189 355.425 316.617 355.425 317.001C355.425 317.384 353.662 317.893 351.505 318.131C346.545 318.678 342.595 319.369 338.92 320.328C337.332 320.744 330.833 322.042 324.479 323.213C318.125 324.383 311.785 325.699 310.391 326.134C308.998 326.57 306.676 326.927 305.234 326.927C303.791 326.927 302.61 327.298 302.61 327.752C302.61 328.205 300.776 328.576 298.533 328.576C296.29 328.576 294.259 328.894 294.018 329.283C293.778 329.671 291.621 330.232 289.224 330.529C286.829 330.825 283.011 331.452 280.742 331.922C278.472 332.392 274.573 333.1 272.077 333.495C269.58 333.891 265.534 334.617 263.086 335.107C258.434 336.04 256.397 335.401 256.397 333.011C256.397 332.386 256.026 331.874 255.572 331.874C255.118 331.874 254.747 331.132 254.747 330.225C254.747 329.318 254.376 328.576 253.922 328.576C253.468 328.576 253.096 327.834 253.096 326.927C253.096 326.02 252.725 325.278 252.271 325.278C251.817 325.278 251.446 324.721 251.446 324.041C251.446 323.361 251.075 322.804 250.621 322.804C250.167 322.804 249.796 322.093 249.796 321.224C249.796 320.355 249.517 319.52 249.175 319.369C248.834 319.218 247.363 316.868 245.906 314.147C243.43 309.523 243.072 309.205 240.418 309.286C234.721 309.461 234.941 308.806 234.941 325.574V340.764L231.847 341.298C230.145 341.591 227.267 342.024 225.451 342.259C223.636 342.494 221.408 343.011 220.5 343.409C219.592 343.805 217.55 344.354 215.961 344.63C210.871 345.51 205.72 346.502 202.964 347.133L200.282 347.747V297.856V247.964L202.138 247.328C203.159 246.977 205.666 246.402 207.709 246.051C212.609 245.209 218.376 244.028 225.451 242.418C233.269 240.64 239.523 239.493 244.225 238.975C246.382 238.738 248.145 238.24 248.145 237.871C248.145 237.502 250.28 236.992 252.89 236.737C255.5 236.483 259.621 236.041 262.048 235.754C264.844 235.425 266.794 235.567 267.37 236.144C267.871 236.644 269.67 237.053 271.368 237.053C273.066 237.053 274.684 237.424 274.965 237.878C275.246 238.331 276.103 238.711 276.871 238.723C279.203 238.757 285.919 244.235 287.928 247.741C291.441 253.872 291.967 252.971 291.831 241.06C291.757 234.476 292.037 230.048 292.549 229.735C293.011 229.452 297.227 228.543 301.92 227.715C306.611 226.887 311.095 225.867 311.883 225.448C312.671 225.028 314.806 224.685 316.628 224.685C318.45 224.685 319.94 224.314 319.94 223.861C319.94 223.407 321.775 223.036 324.018 223.036C326.261 223.036 328.325 222.665 328.605 222.211C328.886 221.758 330.274 221.387 331.69 221.387C333.106 221.387 335.405 221.033 336.799 220.601C342.688 218.775 360.745 215.653 361.434 216.342C361.838 216.746 362.044 221.572 361.892 227.066C361.739 232.56 361.83 237.055 362.092 237.054C362.355 237.054 363.464 235.105 364.556 232.724C365.648 230.344 367.107 227.839 367.797 227.159C368.488 226.478 369.532 224.986 370.117 223.842C371.857 220.445 388.219 209.019 391.345 209.019C392.013 209.019 392.56 208.648 392.56 208.194C392.56 207.741 393.494 207.37 394.635 207.37C395.776 207.37 397.354 207.043 398.142 206.643C404.949 203.189 422.439 203.218 429.434 206.694C430.425 207.186 431.91 207.301 432.735 206.949C433.56 206.598 435.906 206.014 437.948 205.651C444.349 204.513 455.517 202.41 459.817 201.531C462.086 201.068 465.8 200.313 468.069 199.853C470.339 199.393 473.96 198.82 476.115 198.579C478.271 198.338 480.035 197.805 480.035 197.396C480.035 196.987 481.869 196.651 484.112 196.651C486.355 196.651 488.419 196.28 488.7 195.826C488.98 195.373 490.679 195.002 492.474 195.002C494.269 195.002 496.382 194.665 497.17 194.252C497.958 193.839 503.059 192.673 508.505 191.658C518.193 189.855 521.597 189.194 529.961 187.489C532.231 187.026 535.852 186.452 538.007 186.211C540.163 185.97 541.927 185.437 541.927 185.028C541.927 184.619 543.784 184.283 546.053 184.283C548.323 184.283 550.18 183.912 550.18 183.458C550.18 183.005 552.014 182.634 554.257 182.634C556.5 182.634 558.564 182.263 558.845 181.809C559.125 181.356 560.982 180.985 562.971 180.985C564.96 180.985 566.816 180.614 567.097 180.16C567.747 179.109 587.653 179.061 589.596 180.107C590.384 180.53 592.235 181.363 593.711 181.957C595.186 182.551 596.393 183.317 596.393 183.66C596.393 184.003 596.993 184.283 597.728 184.283C598.462 184.283 600.128 185.489 601.428 186.963C604.115 190.007 604.028 190.234 603.827 180.778C603.655 172.646 604.033 171.915 608.414 171.915C610.426 171.915 612.072 171.544 612.072 171.09C612.072 170.637 613.721 170.266 615.737 170.266C617.753 170.266 619.631 169.895 619.912 169.441C620.192 168.988 621.996 168.617 623.921 168.617C625.847 168.617 627.774 168.284 628.205 167.876C628.636 167.47 630.475 166.932 632.29 166.682C641.165 165.459 670.718 159.536 672.52 158.619C673.868 157.933 673.964 158.814 673.964 171.744C673.964 181.423 673.666 185.901 672.974 186.592C672.429 187.136 670.691 187.581 669.113 187.581C667.534 187.581 665.101 187.941 663.707 188.381C662.314 188.82 656.067 190.18 649.826 191.401L638.479 193.622V198.524C638.479 203.195 638.567 203.404 640.336 202.961C641.357 202.706 645.349 201.906 649.207 201.183C653.065 200.46 657.522 199.521 659.11 199.096C660.699 198.669 663.607 198.223 665.572 198.105L669.147 197.888L669.12 208.813C669.105 214.822 669.075 220.109 669.052 220.562C669.031 221.016 667.342 221.387 665.299 221.387C663.257 221.387 661.586 221.758 661.586 222.211C661.586 222.665 659.989 223.036 658.037 223.036C656.086 223.036 654.136 223.371 653.705 223.781C653.274 224.19 651.25 224.719 649.207 224.956C647.165 225.192 644.008 225.698 642.193 226.078L638.892 226.77L638.645 232.941C638.448 237.875 638.606 238.906 639.429 238.083C639.996 237.516 642.057 237.053 644.008 237.053C645.96 237.053 647.557 236.682 647.557 236.229C647.557 235.775 649.206 235.404 651.222 235.404C653.238 235.404 655.116 235.033 655.397 234.579C655.677 234.126 657.534 233.755 659.523 233.755C661.512 233.755 663.368 233.384 663.649 232.93C663.929 232.477 665.622 232.106 667.411 232.106C671.588 232.106 673.964 229.863 673.964 225.922C673.964 224.335 674.336 223.036 674.789 223.036C675.243 223.036 675.615 221.737 675.615 220.15C675.615 218.563 675.986 217.264 676.44 217.264C676.894 217.264 677.265 215.78 677.265 213.966C677.265 212.152 677.637 210.668 678.09 210.668C678.544 210.668 678.916 209.392 678.916 207.831C678.916 206.27 679.244 204.791 679.646 204.543C680.047 204.295 680.574 203.067 680.817 201.814C681.06 200.562 682.255 195.826 683.473 191.292C684.691 186.757 685.876 181.837 686.107 180.359C686.337 178.881 686.855 177.467 687.259 177.218C687.663 176.969 687.993 175.303 687.993 173.515C687.993 171.728 688.365 170.266 688.818 170.266C689.272 170.266 689.644 168.967 689.644 167.38C689.644 165.793 690.015 164.494 690.469 164.494C690.923 164.494 691.294 163.218 691.294 161.657C691.294 160.096 691.665 158.591 692.119 158.31C692.573 158.03 692.945 157.125 692.945 156.3C692.945 155.412 693.871 154.465 695.214 153.978C697.995 152.971 706.808 151.302 709.341 151.302C712.604 151.302 710.378 149.767 706.336 149.228C700.995 148.517 692.945 145.677 692.945 144.504C692.945 144.161 692.341 143.881 691.604 143.881C690.867 143.881 687.874 141.469 684.953 138.521C682.032 135.574 679.478 133.162 679.279 133.162C679.079 133.162 678.916 137.221 678.916 142.183C678.916 147.629 678.57 151.418 678.044 151.743C677.111 152.319 670.138 153.605 664.061 154.322C662.019 154.563 659.995 155.095 659.564 155.504C659.133 155.914 656.998 156.249 654.819 156.249C652.64 156.249 650.858 156.62 650.858 157.073C650.858 157.53 648.676 157.898 645.962 157.898C641.791 157.898 640.989 157.654 640.542 156.249C640.254 155.342 639.673 154.6 639.249 154.6C638.826 154.6 638.479 153.858 638.479 152.951C638.479 152.044 638.108 151.302 637.654 151.302C637.2 151.302 636.829 150.745 636.829 150.065C636.829 149.385 636.458 148.828 636.004 148.828C635.55 148.828 635.178 148.342 635.178 147.747C635.178 147.152 634.527 145.946 633.732 145.067C632.936 144.188 631.544 141.896 630.637 139.973C629.731 138.051 628.711 136.475 628.37 136.469C628.029 136.464 627.751 135.974 627.751 135.379C627.751 134.784 627.009 133.501 626.101 132.527C625.193 131.554 624.45 130.185 624.45 129.486C624.45 128.787 624.079 128.215 623.625 128.215C623.171 128.215 622.8 127.728 622.8 127.134C622.8 126.539 622.15 125.317 621.356 124.419C619.586 122.417 617.526 119.034 615.257 114.404C614.313 112.477 613.21 110.9 612.806 110.9C612.392 110.9 612.072 122.586 612.072 137.681V164.463L610.215 164.819C609.194 165.015 606.316 165.568 603.82 166.048C596.894 167.383 593.864 167.871 589.584 168.343C587.429 168.581 585.665 169.112 585.665 169.521C585.665 169.93 583.696 170.266 581.291 170.266C578.885 170.266 576.565 170.601 576.133 171.011C575.702 171.42 573.678 171.96 571.636 172.209C567.805 172.676 561.613 173.742 555.131 175.051C553.089 175.463 549.004 176.254 546.053 176.808C543.103 177.362 539.549 178.158 538.155 178.576C536.761 178.994 534.277 179.336 532.634 179.336C530.99 179.336 529.417 179.707 529.136 180.16C528.856 180.614 526.792 180.985 524.549 180.985C522.306 180.985 520.471 181.356 520.471 181.809C520.471 182.263 518.689 182.634 516.51 182.634C514.332 182.634 512.197 182.967 511.765 183.374C511.031 184.067 509.191 184.424 500.459 185.567C498.531 185.819 496.21 186.354 495.302 186.757C494.394 187.159 492.166 187.67 490.35 187.894C488.535 188.116 485.193 188.693 482.923 189.177C480.654 189.659 476.755 190.282 474.258 190.561L469.72 191.068L467.657 186.864C466.522 184.552 465.315 182.654 464.975 182.647C464.634 182.64 464.356 181.892 464.356 180.985C464.356 180.078 463.984 179.336 463.53 179.336C463.076 179.336 462.705 178.811 462.705 178.167C462.705 177.525 462.427 176.876 462.086 176.725C461.745 176.574 460.376 174.409 459.04 171.915C457.706 169.421 456.079 166.841 455.425 166.182C454.034 164.78 447.79 164.958 446.794 166.427C446.439 166.951 446.253 173.548 446.381 181.086C446.532 190.035 446.307 195.079 445.732 195.615C445.247 196.066 443.391 196.68 441.606 196.978C438.264 197.536 433.189 198.469 425.982 199.851C423.713 200.286 419.805 200.97 417.297 201.369C414.789 201.769 412.307 202.362 411.783 202.685C411.259 203.009 410.614 202.926 410.351 202.5C410.088 202.075 409.867 187.079 409.861 169.177C409.85 141.963 409.654 136.467 408.667 135.648C408.018 135.11 407.17 134.865 406.781 135.105C406.393 135.345 402.756 136.106 398.699 136.798C394.642 137.49 388.537 138.607 385.133 139.281C381.729 139.954 377.552 140.725 375.85 140.994L372.755 141.482V147.216V152.951H375.317C376.727 152.951 381.716 152.189 386.406 151.257C391.095 150.325 396.473 149.49 398.357 149.402L401.782 149.24L401.768 161.196C401.752 175 402.214 174.252 392.56 176.083C389.61 176.642 385.525 177.424 383.483 177.819C381.441 178.214 378.192 178.765 376.262 179.044L372.755 179.55V193.931C372.755 209.902 372.52 210.668 367.615 210.668C366.085 210.668 364.48 211.005 364.049 211.417C363.618 211.828 361.408 212.361 359.139 212.599C356.869 212.838 353.156 213.391 350.886 213.829C343.65 215.225 336.877 216.43 336.238 216.435C335.898 216.437 335.62 194.682 335.62 168.089C335.62 113.385 335.056 117.572 342.428 117.522C344.584 117.507 346.348 117.125 346.348 116.671C346.348 116.218 348.182 115.847 350.425 115.847C352.668 115.847 354.732 115.476 355.012 115.022C355.293 114.569 357.336 114.198 359.551 114.198C361.767 114.198 363.809 113.827 364.09 113.373C364.371 112.92 365.687 112.549 367.015 112.549C368.343 112.549 371.014 112.182 372.95 111.733C381.875 109.664 401.115 106.159 407.621 105.416C409.777 105.17 411.541 104.633 411.541 104.223C411.541 103.814 413.583 103.479 416.08 103.479C418.576 103.479 420.618 103.142 420.618 102.731C420.618 102.319 422.568 101.785 424.951 101.544C427.334 101.302 431.326 100.728 433.822 100.268C436.318 99.8088 440.403 99.0659 442.9 98.6182C445.396 98.1705 450.595 97.1984 454.453 96.4579C478.163 91.9057 490.352 93.5449 499.728 102.547C501.606 104.349 503.141 106.44 503.141 107.193C503.141 107.947 503.545 108.429 504.038 108.265C504.61 108.074 504.983 104.144 505.069 97.3666L505.205 86.7664L509.331 85.7176C514.312 84.4511 537.006 80.3697 546.466 79.038C548.282 78.7833 550.12 78.2407 550.551 77.8342C550.983 77.4269 553.281 77.0938 555.66 77.0938C558.039 77.0938 560.19 76.7623 560.441 76.3567C560.692 75.951 562.292 75.4431 563.997 75.2287C566.828 74.8733 585.971 71.487 595.98 69.5707C598.249 69.137 602.055 68.5648 604.439 68.301C606.822 68.0363 608.771 67.4946 608.771 67.0972C608.771 66.6997 610.166 66.3749 611.871 66.3749C614.668 66.3749 615.195 66.7418 617.235 70.1191C618.481 72.1779 619.499 74.137 619.499 74.4718C619.499 74.8065 620.242 75.6154 621.149 76.2693C622.057 76.9231 622.8 78.1179 622.8 78.9251C622.8 79.7315 623.171 80.3919 623.625 80.3919C624.079 80.3919 624.45 80.9485 624.45 81.6287C624.45 82.309 624.822 82.8655 625.276 82.8655C625.73 82.8655 626.13 83.3297 626.166 83.8962C626.202 84.4635 627.306 86.5965 628.619 88.6372C629.932 90.678 631.662 93.7394 632.463 95.4396C633.262 97.1406 634.201 98.5316 634.548 98.5316C634.895 98.5316 635.178 99.0882 635.178 99.7684C635.178 100.449 635.55 101.005 636.004 101.005C636.458 101.005 636.829 101.562 636.829 102.242C636.829 102.922 637.2 103.479 637.654 103.479C638.108 103.479 638.479 104.051 638.479 104.75C638.479 105.449 638.873 106.47 639.355 107.018C639.837 107.565 641.125 109.498 642.218 111.312L644.205 114.61L644.23 88.4987C644.244 74.137 644.481 61.8004 644.757 61.083C645.032 60.3657 646.053 59.7737 647.026 59.7679C647.999 59.7621 652.323 59.0176 656.634 58.113C660.946 57.2094 666.702 56.1053 669.425 55.6592C672.149 55.214 675.398 54.6162 676.646 54.3317L678.916 53.8148V62.9803C678.916 68.0223 679.194 72.1416 679.535 72.1359C679.875 72.1301 681.453 70.0251 683.042 67.4583C686.097 62.521 690.545 57.6802 695.781 53.5946C697.524 52.2341 699.394 50.6923 699.936 50.1687C701.628 48.5345 714.877 41.6389 716.325 41.6389C717.082 41.6389 717.702 41.2678 717.702 40.8144C717.702 40.3609 718.816 39.9898 720.177 39.9898C721.539 39.9898 722.653 39.6188 722.653 39.1653C722.653 38.7118 724.324 38.3408 726.366 38.3408C728.409 38.3408 730.08 37.9697 730.08 37.5162C730.08 37.0215 733.364 36.6917 738.284 36.6917C742.863 36.6917 746.713 37.0561 746.997 37.5162C747.278 37.9697 748.419 38.3408 749.533 38.3408C750.647 38.3408 752.204 38.6681 752.992 39.0688C753.78 39.4695 755.538 40.3048 756.9 40.924C760.107 42.3843 770.516 52.5574 770.516 54.2312C770.516 54.9394 770.875 55.6419 771.313 55.7936C771.752 55.9445 772.215 57.3438 772.345 58.903C772.569 61.6091 772.356 61.8507 767.628 64.2517C764.905 65.6344 762.491 66.9562 762.264 67.1887C762.037 67.4212 760.18 68.4312 758.138 69.4322C752.245 72.3222 746.197 75.8017 745.897 76.4754C745.745 76.8151 744.539 77.0938 743.215 77.0938C741.428 77.0938 740.808 76.703 740.808 75.5758C740.808 73.2482 733.6 69.673 728.909 69.673C721.727 69.673 713.069 75.622 708.928 83.4023C707.268 86.5223 706.974 88.253 706.974 94.8979C706.974 103.989 708.357 107.663 713.721 112.812C716.921 115.884 717.15 115.961 723.212 115.985C726.656 115.999 729.826 115.606 730.329 115.103C730.828 114.605 731.716 114.198 732.302 114.198C734.26 114.198 742.458 106.609 742.458 104.797C742.458 104.072 742.83 103.479 743.284 103.479C743.738 103.479 744.109 102.737 744.109 101.83C744.109 100.923 744.48 100.181 744.934 100.181C745.388 100.181 745.759 98.511 745.759 96.4703C745.759 93.3099 746.004 92.7599 747.41 92.7599C748.318 92.7599 749.06 92.3889 749.06 91.9354C749.06 91.4819 750.174 91.1108 751.536 91.1108C752.898 91.1108 754.012 90.7398 754.012 90.2863C754.012 89.8328 755.103 89.4618 756.439 89.4618C757.774 89.4618 759.095 89.0907 759.376 88.6372C759.656 88.1837 760.612 87.8127 761.499 87.8127C762.386 87.8127 763.757 87.473 764.545 87.0574C765.333 86.6419 768.391 85.5922 771.342 84.724L776.706 83.1458L777.118 57.7098L777.531 32.2747L780.006 31.6093C781.368 31.2432 786.567 30.1936 791.56 29.2758C796.552 28.359 802.221 27.2401 804.156 26.7907C806.092 26.3405 809.155 25.9728 810.964 25.9728H814.254V42.3859C814.254 57.5812 814.361 58.7776 815.698 58.5031C816.492 58.3398 820.298 57.6323 824.156 56.9315C828.014 56.2306 833.306 55.2354 835.916 54.7193L840.661 53.7818V37.0471C840.661 21.818 840.79 20.2744 842.105 19.8943C842.899 19.6643 848.934 18.4926 855.515 17.2896C862.096 16.0875 868.409 14.7954 869.544 14.4194C870.679 14.0426 873 13.7054 874.702 13.6699L877.796 13.6048V62.1557ZM572.461 100.985C571.78 101.436 569.719 101.81 567.881 101.817C566.042 101.824 564.185 102.165 563.755 102.574C563.324 102.984 561.3 103.523 559.257 103.772C554.487 104.354 547.266 105.628 543.578 106.538C540.784 107.226 540.681 107.391 540.44 111.549L540.19 115.847H544.36C546.653 115.847 548.529 115.511 548.529 115.102C548.529 114.692 550.293 114.156 552.449 113.91C554.605 113.663 558.597 113.054 561.32 112.554C564.043 112.055 567.85 111.441 569.779 111.19L573.286 110.734V121.848V132.962L571.017 133.804C569.768 134.267 565.034 135.255 560.495 135.999C548.436 137.976 543.323 138.998 541.927 139.71C541.093 140.135 540.608 141.898 540.439 145.115L540.188 149.889L545.803 149.348C551.168 148.83 556.157 147.923 562.654 146.283C564.295 145.869 566.966 145.53 568.588 145.53C570.21 145.53 571.768 145.159 572.048 144.705C572.329 144.252 573.643 143.881 574.97 143.881C576.785 143.881 577.493 143.422 577.836 142.026C578.086 141.005 578.185 131.266 578.058 120.382L577.825 100.593L575.762 100.379C574.627 100.261 573.142 100.534 572.461 100.985ZM449.501 122.03L446.613 123.069L446.382 133.475L446.151 143.881H449.889C451.946 143.881 453.628 143.51 453.628 143.056C453.628 142.603 454.725 142.232 456.066 142.232C457.889 142.232 459.658 141.124 463.081 137.839C465.598 135.422 467.657 133.169 467.657 132.832C467.657 132.496 468.214 131.663 468.894 130.983C469.575 130.303 470.132 129.458 470.132 129.107C470.132 128.007 467.377 125.234 464.034 122.969C460.428 120.525 454.71 120.156 449.501 122.03ZM310.863 143.401C310.863 148.126 310.637 152.578 310.362 153.295C310.01 154.211 308.78 154.6 306.236 154.6C304.242 154.6 302.61 154.971 302.61 155.424C302.61 155.878 300.568 156.249 298.072 156.249C295.575 156.249 293.533 156.62 293.533 157.073C293.533 157.527 291.75 157.898 289.572 157.898C284.879 157.898 283.63 158.903 283.63 162.684C283.63 165.451 283.675 165.486 286.725 165.09C288.427 164.869 292.233 164.206 295.183 163.619C298.133 163.032 302.033 162.524 303.848 162.491L307.149 162.433L307.385 169.96C307.67 179.037 308.148 178.705 291.882 180.691C289.84 180.94 287.816 181.48 287.385 181.889C286.953 182.299 285.932 182.634 285.115 182.634C283.936 182.634 283.63 183.304 283.63 185.883C283.63 187.671 283.908 189.299 284.249 189.503C284.59 189.707 286.725 189.537 288.994 189.126C291.263 188.716 294.791 188.172 296.834 187.92C298.876 187.668 301.29 187.144 302.198 186.757C303.105 186.369 305.612 185.885 307.768 185.681L311.688 185.31V194.658V204.006L308.593 204.783C300.911 206.714 297.444 207.37 294.924 207.37C293.433 207.37 291.859 207.703 291.428 208.11C290.997 208.517 289.159 209.054 287.344 209.305C285.528 209.555 282 210.164 279.504 210.658C277.008 211.153 273.108 211.899 270.839 212.317C268.57 212.735 264.856 213.429 262.587 213.861C260.317 214.292 255.304 215.219 251.446 215.923C247.588 216.626 242.203 217.626 239.48 218.146C231.459 219.676 225.712 220.622 221.531 221.099C219.375 221.345 217.612 221.882 217.612 222.291C217.612 222.7 216.497 223.036 215.136 223.036H212.66V188.101V153.165L216.167 152.275C219.158 151.516 228.609 149.747 236.798 148.414L239.068 148.045V172.348V196.651H241.495C242.83 196.651 244.151 196.28 244.432 195.826C244.712 195.373 246.776 195.002 249.019 195.002C251.262 195.002 253.096 194.656 253.096 194.232C253.096 193.809 254.118 193.345 255.366 193.201L257.635 192.941L257.854 168.411L258.073 143.881H261.774C263.81 143.881 265.475 143.51 265.475 143.056C265.475 142.603 266.638 142.232 268.061 142.232C269.484 142.232 271.99 141.881 273.631 141.451C275.273 141.021 282 139.689 288.581 138.491C295.163 137.292 301.847 136.012 303.436 135.647C305.024 135.281 307.345 134.943 308.593 134.896L310.863 134.811V143.401ZM503.141 136.884C503.141 137.57 502.678 138.959 502.11 139.971C500.484 142.87 491.267 151.855 489.269 152.489C488.275 152.804 487.462 153.358 487.462 153.72C487.462 154.459 490.448 158.486 492.393 160.372C493.095 161.052 494.76 163.093 496.092 164.906C497.425 166.72 498.724 168.39 498.979 168.617C499.234 168.844 500.368 170.418 501.498 172.115C502.629 173.812 503.841 175.108 504.192 174.995C504.543 174.881 504.914 165.979 505.017 155.212C505.162 140 504.974 135.635 504.173 135.636C503.606 135.636 503.141 136.197 503.141 136.884ZM174.316 144.499C175.757 159.921 174.876 187.581 172.944 187.581C172.548 187.581 172.224 188.323 172.224 189.23C172.224 190.137 171.852 190.879 171.399 190.879C170.945 190.879 170.573 191.436 170.573 192.116C170.573 192.796 170.227 193.353 169.803 193.353C169.38 193.353 168.812 194.051 168.542 194.904C168.27 195.757 167.409 197.211 166.629 198.135C165.848 199.059 164.467 200.834 163.559 202.08C162.651 203.325 160.516 205.797 158.814 207.573C157.112 209.35 155.719 211.126 155.719 211.523C155.719 211.919 146.272 221.762 134.725 233.397L113.732 254.55L111.206 253.433C109.817 252.819 108.681 252.036 108.681 251.693C108.681 251.35 108.108 251.07 107.409 251.07C106.709 251.07 105.339 250.328 104.365 249.421C103.39 248.514 102.106 247.772 101.511 247.772C100.916 247.772 100.429 247.401 100.429 246.947C100.429 246.494 99.8717 246.123 99.1909 246.123C98.51 246.123 97.953 245.797 97.953 245.398C97.953 245 96.8489 244.217 95.5004 243.658C94.1512 243.1 92.0155 241.757 90.7553 240.674C89.4944 239.59 87.9991 238.704 87.4313 238.703C86.8644 238.703 86.3998 238.331 86.3998 237.878C86.3998 237.424 85.9244 237.053 85.3443 237.053C84.7633 237.053 83.7533 236.311 83.0989 235.404C82.4444 234.497 81.5045 233.755 81.0094 233.755C80.5142 233.755 79.3894 233.094 78.5097 232.287C77.6292 231.48 75.4308 229.717 73.6227 228.371C71.8155 227.023 67.3171 222.954 63.6284 219.326C54.3173 210.17 53.8774 208.629 54.5277 187.452C55.3075 162.073 55.7424 157.898 57.6042 157.898C58.4641 157.898 59.1672 157.56 59.1672 157.147C59.1672 156.734 61.302 156.201 63.9122 155.964C66.5216 155.727 70.793 155.137 73.4024 154.654C76.0126 154.171 80.0975 153.455 82.4799 153.065C86.276 152.441 102.458 149.545 116.108 147.046C118.604 146.59 122.783 146.028 125.392 145.8C128.001 145.57 130.137 145.045 130.137 144.632C130.137 144.219 132.157 143.881 134.627 143.881C137.097 143.881 139.347 143.51 139.627 143.056C139.908 142.603 141.359 142.232 142.854 142.232C144.348 142.232 146.647 141.902 147.963 141.498C149.278 141.095 153.512 140.299 157.37 139.731C161.228 139.163 165.127 138.404 166.035 138.043C166.942 137.684 169.025 137.365 170.663 137.337L173.642 137.285L174.316 144.499ZM156.494 162.345C156.272 162.568 153.686 163.16 150.747 163.661C138.965 165.672 135.325 166.319 131.375 167.102C129.105 167.552 125.113 168.11 122.504 168.341C119.894 168.574 117.759 169.102 117.759 169.515C117.759 169.928 115.716 170.266 113.22 170.266C110.723 170.266 108.681 170.602 108.681 171.014C108.681 171.426 106.731 171.954 104.349 172.187C101.965 172.42 98.7164 172.838 97.1278 173.116C86.6135 174.954 83.6724 175.489 78.1475 176.57C74.7434 177.234 71.1223 177.951 70.1015 178.161C68.6119 178.467 68.2447 179.101 68.2447 181.364C68.2447 182.916 67.8733 184.415 67.4195 184.695C66.9334 184.995 66.5942 189.919 66.5942 196.677V208.15L70.0511 211.883C71.9525 213.936 73.7993 215.615 74.1558 215.615C74.5115 215.615 77.4733 216.914 80.7379 218.501C84.0017 220.088 87.3537 221.387 88.1864 221.387C89.0191 221.387 89.7007 221.758 89.7007 222.211C89.7007 222.665 90.8148 223.036 92.1764 223.036C93.538 223.036 94.6521 223.407 94.6521 223.861C94.6521 224.314 95.2776 224.685 96.0409 224.685C96.8051 224.685 99.4978 225.4 102.024 226.273C104.551 227.147 108.877 228.477 111.636 229.229L116.654 230.596L119.888 228.476C121.668 227.311 123.571 225.981 124.119 225.521C124.667 225.061 125.503 224.685 125.976 224.685C126.449 224.685 126.836 224.314 126.836 223.861C126.836 223.407 127.301 223.035 127.868 223.035C128.435 223.034 129.918 222.2 131.163 221.18C132.408 220.16 135.469 218.027 137.965 216.44C140.461 214.853 142.506 213.276 142.509 212.936C142.512 212.595 143.109 212.317 143.835 212.317C144.56 212.317 146.195 211.204 147.467 209.844C148.739 208.483 149.999 207.37 150.268 207.37C151.72 207.37 163.146 196.225 163.146 194.808C163.146 194.189 163.525 193.304 163.989 192.841C165.431 191.4 165.87 181.708 164.785 175.213C164.217 171.812 163.524 167.545 163.244 165.731C162.769 162.665 162.529 162.416 159.816 162.187C158.211 162.053 156.716 162.124 156.494 162.345ZM717.702 185.932C717.702 187.746 717.369 189.23 716.963 189.23C716.557 189.23 716.021 190.622 715.772 192.322C714.913 198.188 714.286 201.191 713.575 202.835C713.183 203.742 712.677 205.597 712.452 206.958C712.226 208.318 711.922 210.152 711.777 211.033C711.54 212.466 711.951 212.612 715.638 212.413C717.908 212.29 720.118 211.847 720.549 211.429C720.979 211.01 722.558 210.668 724.056 210.668C725.554 210.668 726.779 210.277 726.779 209.799C726.779 209.322 725.608 204.59 724.177 199.286C722.746 193.982 721.408 188.066 721.205 186.138C720.914 183.375 720.505 182.634 719.269 182.634C717.99 182.634 717.702 183.242 717.702 185.932ZM556.38 207.158C554.57 207.342 552.62 207.882 552.047 208.357C550.808 209.384 550.546 229.251 551.762 230.003C554.082 231.435 568.292 225.813 568.326 223.448C568.333 222.995 569.451 221.325 570.81 219.738C572.17 218.151 573.283 216.11 573.283 215.203C573.284 212.962 570.21 209.645 566.56 207.946C563.581 206.561 562.816 206.502 556.38 207.158ZM36.6681 219.82C36.8942 220.682 37.4066 221.387 37.8077 221.387C38.2079 221.387 38.5364 221.758 38.5364 222.211C38.5364 222.665 37.3959 223.036 36.0021 223.036C32.0319 223.036 29.7353 219.792 32.0608 217.468C33.3036 216.226 36.1011 217.654 36.6681 219.82ZM601.266 230.587C598.7 234.215 595.853 237.053 594.779 237.053C594.305 237.053 593.917 237.424 593.917 237.878C593.917 238.331 593.399 238.702 592.767 238.702C591.004 238.702 590.424 241.247 591.834 242.803C592.526 243.567 593.092 244.544 593.092 244.975C593.092 245.406 593.834 246.294 594.742 246.947C595.65 247.601 596.393 248.611 596.393 249.191C596.393 249.771 596.764 250.246 597.218 250.246C597.672 250.246 598.043 250.666 598.043 251.18C598.043 251.693 598.693 252.719 599.487 253.459C600.281 254.198 601.343 255.541 601.847 256.441C602.35 257.342 603.093 257.984 603.497 257.868C604.354 257.621 604.623 230.107 603.782 228.747C603.432 228.181 602.47 228.884 601.266 230.587ZM24.2483 242.968C26.932 245.488 26.6464 246.123 22.8314 246.123C19.1987 246.123 17.7991 244.528 19.5651 242.402C20.9524 240.732 22.0004 240.858 24.2483 242.968ZM355.838 244.685C354.022 245.096 350.773 245.624 348.617 245.857C346.461 246.091 344.697 246.618 344.697 247.027C344.697 247.436 342.84 247.772 340.571 247.772C338.302 247.772 336.445 248.143 336.445 248.597C336.445 249.05 335.078 249.421 333.409 249.421C331.739 249.421 329.14 249.866 327.632 250.411C324.998 251.363 324.892 251.571 324.892 255.771C324.892 260.562 325.313 260.848 330.197 259.376C331.591 258.955 336.259 257.985 340.571 257.221C344.883 256.457 349.805 255.443 351.51 254.968C353.215 254.493 354.809 254.302 355.051 254.544C355.293 254.786 355.52 260.118 355.555 266.392C355.612 276.808 355.483 277.848 354.077 278.362C353.23 278.672 346.966 279.926 340.158 281.15C333.35 282.373 327.223 283.658 326.542 284.005C325.686 284.441 325.227 286.231 325.056 289.803L324.807 294.97L327.531 294.427C329.03 294.128 332.112 293.502 334.382 293.036C336.651 292.57 340.271 291.992 342.428 291.751C344.584 291.51 346.348 290.978 346.348 290.568C346.348 290.159 348.019 289.823 350.061 289.823C352.104 289.823 353.775 289.489 353.775 289.082C353.775 288.674 355.353 288.142 357.282 287.899C361.281 287.397 368.139 286.124 373.58 284.876C375.623 284.408 379.243 283.722 381.625 283.351C384.008 282.981 386.192 282.444 386.479 282.157C387.384 281.254 390.085 283.218 390.085 284.779C390.085 286.733 392.799 289.823 394.514 289.823C395.255 289.823 395.861 290.194 395.861 290.648C395.861 291.101 397.882 291.472 400.352 291.472C402.821 291.472 405.071 291.101 405.352 290.648C405.632 290.194 406.594 289.823 407.491 289.823C409.899 289.823 414.842 284.535 414.842 281.959C414.842 279.549 413.143 277.455 411.187 277.455C410.474 277.455 409.89 277.045 409.89 276.544C409.89 275.931 408.742 275.822 406.383 276.211C400 277.262 380.182 277.613 380.182 276.674C380.182 276.197 378.894 275.806 377.318 275.806C371.884 275.806 363.308 269.219 362.321 264.287C362.046 262.914 361.495 261.789 361.099 261.789C360.702 261.789 360.376 257.915 360.376 253.18C360.376 248.445 360.098 244.429 359.758 244.254C359.417 244.08 357.653 244.274 355.838 244.685ZM82.2736 250.246C82.2736 250.699 82.6607 251.07 83.1335 251.07C83.6064 251.07 84.4423 251.457 84.9903 251.93C85.5382 252.403 88.0296 254.057 90.5259 255.605C93.0223 257.154 95.5136 258.808 96.0616 259.28C96.6095 259.753 97.4455 260.14 97.9184 260.14C98.3912 260.14 98.7782 260.42 98.7782 260.763C98.7782 261.106 99.9608 261.909 101.406 262.548L104.032 263.71L101.341 265.955C99.8618 267.19 96.5435 268.826 93.9696 269.592C89.2922 270.983 86.4295 272.056 83.7293 273.429C82.9412 273.83 81.5482 274.157 80.6347 274.157C79.7204 274.157 78.9727 274.528 78.9727 274.982C78.9727 275.435 77.8586 275.806 76.497 275.806C75.1354 275.806 74.0213 276.177 74.0213 276.631C74.0213 277.084 73.4593 277.455 72.7719 277.455C72.0853 277.455 70.878 277.809 70.0899 278.241C69.3018 278.673 65.6865 280.026 62.0555 281.246C58.4244 282.467 55.0823 283.717 54.6284 284.023C54.1745 284.328 52.1321 285.081 50.0896 285.696C48.0472 286.309 46.0229 287.119 45.5921 287.493C45.1605 287.867 44.1397 288.174 43.3227 288.174C42.5057 288.174 41.8373 288.545 41.8373 288.999C41.8373 289.452 40.7232 289.823 39.3616 289.823C38 289.823 36.8859 290.194 36.8859 290.648C36.8859 291.101 35.9575 291.472 34.8228 291.472C33.6881 291.472 32.7598 291.8 32.7598 292.2C32.7598 292.601 31.9238 293.121 30.903 293.356C29.8814 293.592 26.4467 294.785 23.2696 296.009C15.0445 299.176 14.8102 299.216 13.3016 297.708C12.0349 296.443 12.0415 296.233 13.3998 294.734C14.2028 293.847 15.3598 293.121 15.9704 293.121C16.5811 293.121 17.0804 292.75 17.0804 292.297C17.0804 291.843 17.6374 291.472 18.3182 291.472C18.999 291.472 19.5561 291.101 19.5561 290.648C19.5561 290.194 20.1131 289.823 20.7939 289.823C21.4747 289.823 22.0318 289.452 22.0318 288.999C22.0318 288.545 22.5888 288.174 23.2696 288.174C23.9504 288.174 24.5075 287.848 24.5075 287.449C24.5075 287.051 25.6215 286.264 26.9831 285.7C28.3448 285.137 29.4588 284.35 29.4588 283.952C29.4588 283.553 29.8137 283.227 30.2478 283.227C30.9286 283.227 35.6134 280.414 38.1238 278.497C38.5776 278.151 39.9706 277.341 41.2184 276.697C42.467 276.054 43.4878 275.219 43.4878 274.842C43.4878 274.465 43.8674 274.157 44.3303 274.157C45.2282 274.157 51.4545 270.284 53.1892 268.647C53.7594 268.109 54.9659 267.434 55.8712 267.147C56.7765 266.86 57.5167 266.279 57.5167 265.856C57.5167 265.433 58.0737 265.087 58.7545 265.087C59.4354 265.087 59.9924 264.716 59.9924 264.263C59.9924 263.809 60.457 263.437 61.0239 263.437C61.5917 263.436 63.134 262.509 64.4536 261.376C65.7723 260.242 67.1381 259.315 67.4888 259.315C67.8395 259.315 68.6177 258.851 69.2176 258.283C70.8087 256.777 77.1753 252.719 77.9478 252.719C78.3109 252.719 79.1435 251.977 79.7979 251.07C81.0737 249.302 82.2736 248.902 82.2736 250.246ZM242.368 264.263C242.368 264.716 240.905 265.087 239.116 265.087C237.327 265.087 235.618 265.485 235.318 265.971C235.016 266.457 234.775 271.373 234.78 276.896L234.791 286.937L238.786 286.691C240.984 286.555 243.895 286.024 245.257 285.511C248.971 284.112 257.223 275.113 257.223 272.462C257.223 271.096 252.407 266.33 249.147 264.469C246.991 263.238 242.368 263.097 242.368 264.263ZM118.584 272.508C119.718 273.395 121.111 274.129 121.678 274.139C122.246 274.149 122.71 274.528 122.71 274.982C122.71 275.435 123.267 275.806 123.948 275.806C124.629 275.806 125.186 276.086 125.186 276.429C125.186 276.772 126.308 277.549 127.679 278.156C129.051 278.762 130.63 279.693 131.187 280.225C131.745 280.756 134.37 282.483 137.024 284.064C139.678 285.644 142.923 287.958 144.237 289.205C145.552 290.451 147.021 291.472 147.504 291.472C147.987 291.472 149.569 292.584 151.019 293.942C152.469 295.301 153.923 296.414 154.248 296.415C154.573 296.418 156.138 297.718 157.727 299.305C159.316 300.893 160.85 302.191 161.138 302.191C161.681 302.191 168.266 308.871 170.78 311.972C171.574 312.952 172.224 314.232 172.224 314.816C172.224 315.4 172.608 316.263 173.078 316.732C173.991 317.644 173.643 352.663 172.627 362.176C172.172 366.444 171.814 367.329 170.549 367.329C169.709 367.329 168.791 367.7 168.51 368.154C168.23 368.607 166.166 368.978 163.923 368.978C161.68 368.978 159.845 369.349 159.845 369.803C159.845 370.256 157.825 370.627 155.355 370.627C152.885 370.627 150.665 370.952 150.419 371.349C150.174 371.745 148.016 372.291 145.625 372.562C141.351 373.046 139.632 373.331 124.773 376.027C120.688 376.768 115.396 377.572 113.013 377.813C110.631 378.055 108.681 378.577 108.681 378.975C108.681 379.372 106.639 379.697 104.142 379.697C101.646 379.697 99.6035 380.068 99.6035 380.522C99.6035 380.975 97.769 381.346 95.526 381.346C93.283 381.346 91.2191 381.717 90.9385 382.171C90.658 382.624 88.4298 382.995 85.9872 382.995C83.5445 382.995 81.3164 383.366 81.0358 383.82C80.7552 384.273 78.7128 384.644 76.497 384.644C74.2813 384.644 72.2669 384.97 72.0201 385.369C71.7734 385.767 69.4306 386.327 66.8137 386.613C64.1969 386.899 60.3192 387.351 58.1959 387.616L54.3371 388.099L53.8593 380.394C52.6767 361.332 52.4655 348.135 53.3295 347.272C53.8172 346.784 54.2158 344.813 54.2158 342.889C54.2158 340.966 54.5871 339.163 55.041 338.883C55.4949 338.602 55.8662 337.831 55.8662 337.168C55.8662 335.899 59.9627 329.185 61.0239 328.714C61.3639 328.562 61.6428 327.969 61.6428 327.393C61.6428 326.817 62.7569 325.182 64.1185 323.758C65.4802 322.335 66.5942 320.969 66.5942 320.723C66.5942 320.477 67.8015 319.064 69.2762 317.581C70.7517 316.099 73.0723 313.434 74.4339 311.658C78.3191 306.593 114.265 270.856 115.455 270.877C116.041 270.887 117.449 271.621 118.584 272.508ZM17.6605 273.499C20.8682 274.878 20.8583 274.859 19.0832 276.201C18.2085 276.862 16.2865 277.415 14.811 277.429C12.3749 277.453 12.129 277.228 12.129 274.982C12.129 272.191 13.6581 271.781 17.6605 273.499ZM289.572 279.269C289.027 279.813 288.581 280.749 288.581 281.348C288.581 284.054 282.826 291.179 277.046 295.63C274.496 297.594 274.396 297.853 275.47 299.743C276.1 300.853 277.266 302.365 278.06 303.104C278.854 303.842 279.504 304.866 279.504 305.38C279.504 305.893 279.875 306.314 280.329 306.314C280.783 306.314 281.154 306.87 281.154 307.551C281.154 308.231 281.432 308.796 281.773 308.806C282.114 308.815 283.506 310.484 284.868 312.514C286.229 314.544 287.622 316.206 287.962 316.207C288.303 316.207 288.581 316.911 288.581 317.769C288.581 319.062 290.045 320.331 291.537 320.331C291.727 320.331 291.882 310.869 291.882 299.305C291.882 287.741 291.585 278.28 291.222 278.28C290.859 278.28 290.116 278.725 289.572 279.269ZM110.154 310.849C108.485 311.982 106.897 312.91 106.627 312.91C106.357 312.91 105.339 313.652 104.365 314.559C103.39 315.466 102.106 316.208 101.511 316.208C100.916 316.208 100.429 316.579 100.429 317.033C100.429 317.486 99.8717 317.857 99.1909 317.857C98.51 317.857 97.953 318.183 97.953 318.582C97.953 318.98 96.8389 319.768 95.4773 320.331C94.1157 320.894 92.9942 321.589 92.9851 321.874C92.976 322.159 91.1193 323.49 88.859 324.83C86.5987 326.171 84.7493 327.562 84.7493 327.922C84.7493 328.282 84.1923 328.576 83.5115 328.576C82.8307 328.576 82.2711 328.854 82.2678 329.195C82.2645 329.535 80.8724 330.74 79.1732 331.873C77.4741 333.006 74.9703 334.952 73.6087 336.198C72.2471 337.444 70.8846 338.465 70.5817 338.466C69.4594 338.475 63.3354 344.941 61.708 347.837C58.9551 352.733 58.271 359.899 59.6087 369.803C61.7576 385.715 61.3664 384.644 65.0337 384.644C66.7997 384.644 68.2447 384.273 68.2447 383.82C68.2447 383.366 70.2871 382.995 72.7835 382.995C75.2798 382.995 77.3222 382.624 77.3222 382.171C77.3222 381.717 79.1567 381.346 81.3997 381.346C83.6427 381.346 85.7066 380.975 85.9872 380.522C86.2677 380.068 88.3102 379.697 90.5259 379.697C92.7417 379.697 94.7544 379.374 94.9987 378.979C95.243 378.584 97.2144 378.058 99.3798 377.811C101.545 377.562 106.659 376.753 110.744 376.012C122.515 373.876 127.772 373.031 132.2 372.562C134.469 372.321 136.679 371.787 137.11 371.376C137.542 370.965 139.602 370.627 141.69 370.627C143.778 370.627 145.84 370.29 146.27 369.879C146.701 369.467 148.911 368.93 151.18 368.686C159.836 367.755 164.669 366.812 165.865 365.82C167.543 364.429 168.145 360.054 168.631 345.685C168.913 337.326 168.765 333.523 168.157 333.523C167.67 333.523 167.272 333.037 167.272 332.442C167.272 331.352 165.505 329.249 162.598 326.88C160.27 324.981 150.519 320.492 144.579 318.582C142.763 317.998 140.924 317.226 140.494 316.865C140.062 316.503 138.67 316.208 137.399 316.208C136.128 316.208 135.088 315.837 135.088 315.384C135.088 314.93 133.974 314.559 132.613 314.559C131.251 314.559 130.137 314.188 130.137 313.735C130.137 313.281 129.045 312.91 127.71 312.91C126.375 312.91 125.054 312.539 124.773 312.086C124.492 311.632 123.401 311.261 122.349 311.261C121.297 311.261 119.103 310.704 117.473 310.024C113.66 308.432 113.725 308.425 110.154 310.849ZM29.4588 314.645C29.4588 315.758 25.6248 319.506 24.486 319.506C23.9793 319.506 22.9973 318.939 22.3033 318.246C20.6825 316.627 22.1795 314.559 24.9721 314.559C26.0251 314.559 27.1193 314.182 27.404 313.721C27.9957 312.764 29.4588 313.422 29.4588 314.645ZM50.2547 332.864C49.71 333.408 49.2644 335.078 49.2644 336.574C49.2644 338.776 48.9384 339.295 47.5553 339.295C46.6146 339.295 45.3586 338.809 44.7644 338.215C43.8723 337.324 44.0638 336.677 45.8545 334.529C47.0495 333.097 48.7503 331.913 49.6357 331.899C50.8876 331.88 51.0246 332.094 50.2547 332.864Z" fill="black"/>
</svg>
