<svg width="197" height="199" viewBox="0 0 197 199" fill="none" xmlns="http://www.w3.org/2000/svg">
<path fill-rule="evenodd" clip-rule="evenodd" d="M138.992 10.6587C135.539 8.69357 134.942 4.68649 137.653 1.69064C139.733 -0.608433 140.135 -0.601353 153.69 1.94967C166.19 4.3027 168.248 5.32565 168.248 9.18649C168.248 14.0346 166.324 15.1616 159.049 14.5776C153.291 14.1157 152.764 14.2165 154.461 15.4585C155.018 15.8659 155.641 16.2341 156.178 16.4909C156.66 16.7209 157.076 16.8615 157.321 16.8615C157.838 16.8615 158.024 18.6396 157.731 20.8256C157.27 24.2495 157.49 24.8825 159.348 25.4646C162.928 26.5886 171.893 32.6826 177.02 37.4775C183.154 43.2165 189.145 52.3977 192.604 61.3615C196.184 70.6367 197.119 88.8476 194.529 98.7817C190.117 115.703 176.94 132.338 162.024 139.818C152.285 144.702 144.873 146.32 132.498 146.266C122.17 146.22 119.465 145.846 113.096 143.585C109.024 142.139 103.106 139.36 99.9436 137.409L94.1975 133.862H73.3205C50.3596 133.862 47.9982 133.328 47.9982 128.134C47.9982 122.904 50.2561 121.862 61.5959 121.862C71.0939 121.862 72.0041 121.691 73.4416 119.639C75.4982 116.702 75.4045 115.269 72.9982 112.862C71.1291 110.993 69.6643 110.862 50.5686 110.862C28.5471 110.862 26.9982 110.509 26.9982 105.482C26.9982 100.439 28.3361 100.016 45.3303 99.6765C59.6408 99.3916 61.2971 99.1755 62.5803 97.4206C64.2189 95.1777 64.3654 92.9936 63.0217 90.8615C62.2971 89.7116 59.2346 89.2446 49.8908 88.8615C38.1662 88.3806 37.6311 88.2627 35.7482 85.7365C34.0803 83.4956 33.9768 82.7646 35.0451 80.7365C35.7346 79.4306 36.7932 78.0305 37.3986 77.6267C38.0021 77.2226 44.6525 76.8855 52.1779 76.8767C66.9943 76.8606 68.9982 76.2016 68.9982 71.3466C68.9982 66.3547 66.5353 65.8615 41.6037 65.8615C21.6545 65.8615 18.4162 65.6455 16.8264 64.2065C14.3947 62.0056 14.5119 58.6115 17.1018 56.2666C19.0471 54.5046 21.3107 54.3396 47.3049 54.0656C65.4768 53.8745 75.8615 53.3896 76.6994 52.6936C78.3303 51.3405 78.3908 46.6535 76.7971 45.0615C76.0764 44.3396 72.5803 43.8615 68.0217 43.8615C59.301 43.8615 55.9982 42.2885 55.9982 38.1335C55.9982 36.6955 56.7424 34.6965 57.6525 33.6906C59.1389 32.0495 61.133 31.8615 77.0803 31.8615H94.8557L100.676 28.4287C110.19 22.8176 118.119 20.5725 130.16 20.0815C140.029 19.6787 140.863 19.4875 141.397 17.5036C142.444 13.5996 142.014 12.3777 138.992 10.6587ZM152.569 42.7378C151.184 42.2041 149.344 41.5564 147.498 40.9626C135.385 37.0656 123.793 37.7317 113.209 42.9345C91.5275 53.5896 82.2014 80.1506 92.3518 102.325C94.8439 107.766 105.498 120.195 107.19 119.631C107.653 119.477 112.071 112.603 117.008 104.356L118.906 101.198C123.266 93.965 125.139 90.8588 124.262 89.2734C123.485 87.8662 120.539 87.6569 115.244 86.8225C113.703 86.5798 112.305 86.2993 111.184 86.0205C109.404 85.5774 108.326 85.1386 108.496 84.8625C108.776 84.4135 119.59 75.1516 132.531 64.2817C148.779 50.6316 155.662 44.2656 154.778 43.7046C154.703 43.6574 154.6 43.6015 154.471 43.5378L154.264 43.4389C153.854 43.249 153.27 43.008 152.569 42.7378ZM177.268 89.4995C179.404 77.0227 174.539 61.7175 165.469 52.3857C163.051 49.8977 160.719 47.8735 160.285 47.8877C159.41 47.9165 138.672 78.8686 139.184 79.3816C139.362 79.5586 143.067 80.5285 147.416 81.5346L155.326 83.3657L134.412 102.707C122.908 113.345 113.358 122.43 113.186 122.895C113.012 123.361 115.871 124.669 119.539 125.801C131.588 129.524 145.379 127.93 156.246 121.561C166.403 115.611 175.057 102.412 177.268 89.4995ZM93.9982 166.862C91.1096 166.862 90.9982 166.695 90.9982 162.362V157.862H102.498H113.998V162.362C113.998 166.695 113.887 166.862 110.998 166.862H107.998V182.362V197.862H102.498H96.9982V182.362V166.862H93.9982ZM122.498 163.862C117.055 163.862 116.998 163.832 116.998 160.862C116.998 157.892 117.055 157.862 122.498 157.862C127.942 157.862 127.998 157.892 127.998 160.862C127.998 163.832 127.942 163.862 122.498 163.862ZM142.998 165.919C142.998 166.511 143.975 166.29 145.221 165.419C148.014 163.463 149.967 163.451 152.713 165.374C154.654 166.735 155.235 166.717 158.41 165.203C161.268 163.839 162.432 163.738 164.492 164.676C168.268 166.398 168.998 169.599 168.998 184.426V197.862H163.498H157.998V184.362C157.998 176.029 157.615 170.862 156.998 170.862C156.381 170.862 155.998 176.029 155.998 184.362V197.862H150.498H144.998V184.303C144.998 175.518 144.647 170.962 143.998 171.362C143.414 171.723 142.998 177.372 142.998 184.921V197.862H137.998H132.998V181.362V164.862H137.998C138.352 164.862 138.696 164.869 139.026 164.882C139.34 164.895 139.641 164.914 139.928 164.938L140.428 164.987L140.86 165.041L141.051 165.07C141.658 165.166 142.151 165.291 142.488 165.438L142.656 165.52C142.877 165.642 142.998 165.776 142.998 165.919ZM172.998 182.273C172.998 170.586 173.942 167.634 178.381 165.445C182.278 163.523 185.135 163.474 189.399 165.256C194.301 167.304 195.998 170.348 195.998 177.085V182.862H189.998H183.998V187.362C183.998 189.837 184.447 191.862 184.998 191.862C185.547 191.862 185.998 190.061 185.998 187.862V183.862H190.998H195.998V187.897C195.998 193.207 193.649 196.587 188.985 197.984C183.967 199.487 178.826 198.418 175.61 195.201C173.131 192.723 172.998 192.061 172.998 182.273ZM116.998 181.362V197.862H122.498H127.998V181.362V164.862H122.498H116.998V181.362ZM184.692 174.592C184.438 175.566 184.213 175.011 184.194 173.362C184.182 172.464 184.238 171.819 184.336 171.527C184.418 171.281 184.529 171.284 184.654 171.592C184.928 172.27 184.946 173.62 184.692 174.592Z" fill="#5B3D90"/>
<path fill-rule="evenodd" clip-rule="evenodd" d="M24 42.0191C21.346 39.3651 21.448 35.5191 24.223 33.5761C27.289 31.4281 36.758 31.4901 39.171 33.6741C41.726 35.9861 41.522 40.5401 38.777 42.4621C35.431 44.8061 26.52 44.5391 24 42.0191ZM3.223 87.4621C0.566 85.6011 0.293001 81.4581 2.655 78.8481C3.884 77.4891 5.755 77.0191 9.932 77.0191C16.802 77.0191 20 78.9251 20 83.0191C20 86.9841 16.778 89.0191 10.5 89.0191C7.543 89.0191 4.522 88.3731 3.223 87.4621ZM0 178.019V198.019H9H18V193.519C18 189.186 17.889 189.019 15 189.019H12V173.519V158.019H6H0V178.019ZM26.5 164.019C21.056 164.019 21 163.989 21 161.019C21 158.049 21.056 158.019 26.5 158.019C31.944 158.019 32 158.049 32 161.019C32 163.989 31.944 164.019 26.5 164.019ZM67.284 164.72C66.065 164.956 63.928 166.504 62.534 168.161C60.179 170.959 60 171.904 60 181.519C60 191.161 60.174 192.073 62.56 194.908C65.622 198.547 70.617 199.75 75.986 198.141C80.65 196.744 83 193.364 83 188.054V184.019H78H73V188.019C73 190.219 72.55 192.019 72 192.019C71.45 192.019 71 189.994 71 187.519V183.019H77H83V177.242C83 170.505 81.302 167.461 76.401 165.413C73.078 164.025 71.498 163.905 67.284 164.72ZM21 198.019V181.519V165.019H26.5H32V181.519V198.019H26.5H21ZM36.653 179.769C37.909 187.882 38.952 195.306 38.969 196.269C38.995 197.766 40.011 198.019 45.981 198.019C46.6714 198.019 47.296 198.031 47.8624 198.042C49.8844 198.08 51.1649 198.104 52.0541 197.526C53.5897 196.528 53.9583 193.735 54.9634 186.117L54.9634 186.117L54.9636 186.115C55.1265 184.881 55.306 183.52 55.51 182.019C56.37 175.694 57.318 169.281 57.616 167.769C58.15 165.067 58.073 165.019 53.215 165.019H48.272L47.636 169.659C47.286 172.21 46.939 176.373 46.864 178.909C46.743 183.013 46.628 182.751 45.811 176.519C45.7327 175.922 45.6591 175.356 45.5894 174.819C44.7746 168.548 44.4797 166.278 43.2333 165.463C42.5261 165.001 41.5126 165.007 39.9239 165.016C39.6843 165.018 39.4316 165.019 39.165 165.019H34.368L36.653 179.769ZM72.8202 173.5C73.2047 174.875 72.9518 176 72.2588 176C71.5673 176 71 174.875 71 173.5C71 172.125 71.2529 171 71.56 171C71.8684 171 72.4357 172.125 72.8202 173.5Z" fill="#F9B02C"/>
<path fill-rule="evenodd" clip-rule="evenodd" d="M107.211 119.621L113.217 123.053C113.18 122.993 113.168 122.94 113.185 122.896C113.357 122.43 122.909 113.345 134.412 102.707L155.327 83.3656L147.417 81.5346C143.067 80.5286 139.362 79.5586 139.184 79.3816C138.672 78.8686 159.41 47.9166 160.285 47.8876C160.308 47.8869 160.336 47.8919 160.37 47.9025L154.814 43.7353C155.445 44.4671 148.525 50.8457 132.531 64.2816C119.59 75.1516 108.775 84.4136 108.497 84.8626C108.22 85.3126 111.256 86.1946 115.245 86.8226C116.05 86.9496 116.801 87.062 117.499 87.1665L117.499 87.1665C121.385 87.7484 123.601 88.0804 124.261 89.2735C125.138 90.8586 123.267 93.9636 118.909 101.194L118.909 101.194C118.32 102.17 117.686 103.222 117.008 104.356C112.138 112.49 107.774 119.289 107.211 119.621ZM154.749 43.6867L154.5 43.5L154.456 43.5299C154.576 43.5889 154.674 43.6414 154.749 43.6867Z" fill="#F9B02C"/>
</svg>
