<svg width="232" height="119" viewBox="0 0 232 119" fill="none" xmlns="http://www.w3.org/2000/svg">
<path fill-rule="evenodd" clip-rule="evenodd" d="M219.28 25.8468V29.6937H217.079C214.884 29.6937 214.879 29.6992 214.879 31.8589C214.879 33.9637 214.936 34.0285 216.942 34.1945L219.005 34.3649L219.28 43.8309C219.535 52.6236 219.64 53.382 220.751 54.491C222.099 55.8347 226.095 56.6359 229.304 56.2056C231.349 55.9319 231.382 55.8885 231.382 53.5266C231.382 51.1591 231.356 51.1261 229.496 51.1261C226.133 51.1261 225.831 50.326 226.003 41.8668L226.156 34.3649L228.769 34.1973L231.382 34.0296V31.8617V29.6937H228.632H225.881V25.8468V22H222.58H219.28V25.8468ZM62.7731 29.9152C61.8654 30.3152 60.6513 31.1709 60.0748 31.8166C58.6891 33.3691 58.3243 33.2976 58.3507 31.4797C58.3716 30.0223 58.2589 29.9624 55.209 29.8036L52.0459 29.6387V47.5266V65.4144H55.3466H58.6472V58.9918V52.5692L60.16 54.0107C62.1471 55.905 64.1649 56.6216 67.5068 56.6216C74.2154 56.6216 78.4903 51.5202 78.5156 43.4852C78.5305 38.7629 77.6767 35.8344 75.5241 33.2256C72.5348 29.6025 66.8368 28.1231 62.7731 29.9152ZM94.9546 29.9976C93.8956 30.4438 92.2282 31.7325 91.2496 32.8613L89.47 34.9144L89.4617 32.2766L89.4535 29.6387L86.4053 29.8036L83.3571 29.9685L83.2422 43.0203L83.1272 56.0721H86.5654H90.0036L90.0047 48.7905C90.0052 42.9444 90.195 41.1375 90.9674 39.6246C92.3702 36.8763 94.5778 35.464 97.4702 35.464H99.9056V32.3041C99.9056 29.2178 99.8704 29.1447 98.3928 29.1656C97.561 29.1777 96.0136 29.5519 94.9546 29.9976ZM109.321 29.969C100.318 32.7739 97.5291 46.1489 104.497 53.11C107.093 55.7033 109.654 56.6139 114.364 56.6183C119.571 56.6238 123.137 54.6037 125.276 50.4392L126.333 48.3784H123.464C121.12 48.3784 120.32 48.6411 119.094 49.8149C117.31 51.5223 113.408 52.1604 110.956 51.1459C109.278 50.4518 107.607 47.7266 107.607 45.685C107.607 44.5574 107.823 44.5315 117.234 44.5315H126.861V42.7081C126.861 39.1674 125.251 35.2002 122.836 32.7915C119.329 29.2936 114.636 28.3132 109.321 29.969ZM165.916 29.6574C161.914 30.8736 158.834 33.6169 157.235 37.3874C155.995 40.3132 156.173 45.956 157.607 49.1956C159.189 52.7682 160.147 53.7739 163.443 55.3203C169.546 58.1834 177.626 56.3441 180.505 51.4366C181.257 50.1551 181.872 48.9422 181.872 48.7422C181.872 48.0305 175.886 48.3619 175.436 49.0983C174.566 50.5222 172.238 51.6757 170.233 51.6757C166.222 51.6757 164.132 50.0331 163.383 46.289L163.031 44.5315H172.727H182.422L182.417 41.9212C182.406 36.718 178.35 30.9967 173.773 29.7267C171.409 29.0711 167.947 29.0403 165.916 29.6574ZM198.702 29.6838C197.823 29.9646 196.276 30.9956 195.264 31.9749L193.425 33.756V31.7248V29.6937H190.124H186.823V42.8829V56.0721H190.363H193.902L194.076 46.7407C194.249 37.4737 194.26 37.3995 195.712 35.9498C197.792 33.8741 201.357 33.8835 203.153 35.969C204.376 37.3901 204.427 37.8177 204.427 46.7605V56.0721H208.044H211.662L211.482 45.4932C211.288 34.0417 210.9 32.3645 208.011 30.473C206.412 29.4266 200.956 28.9639 198.702 29.6838ZM133.11 42.8719L137.588 56.0979L141.657 55.9473L145.726 55.7973L149.775 43.7072C152.003 37.0577 153.967 31.172 154.142 30.6279C154.427 29.7355 154.119 29.6552 150.987 29.8036L147.516 29.9685L144.939 38.6667C142.47 47.0001 141.982 48.2921 141.495 47.7832C141.375 47.6568 140.071 43.5973 138.598 38.7613L135.92 29.9685L132.276 29.8075L128.632 29.6464L133.11 42.8719ZM68.0173 34.9238C70.0037 35.9498 71.2624 38.2804 71.6634 41.6761C72.5078 48.8197 67.734 53.5348 62.2048 51.0179C60.1188 50.0682 58.6472 46.8193 58.6472 43.1621C58.6472 36.1449 62.9898 32.3266 68.0173 34.9238ZM117.481 35.6014C118.383 36.4328 119.279 37.7924 119.475 38.6239L119.829 40.1351H113.718C107.877 40.1351 107.607 40.084 107.607 38.9811C107.607 38.3464 108.449 36.9862 109.478 35.9586C111.956 33.4823 115.033 33.3449 117.481 35.6014ZM173.376 35.2656C173.785 35.6766 174.505 36.9412 174.978 38.0743L175.836 40.1351H169.502C165.446 40.1351 163.168 39.9274 163.168 39.5581C163.168 38.2815 164.921 35.7168 166.339 34.9194C168.103 33.9263 172.25 34.1302 173.376 35.2656ZM58.2677 72.2486C49.8944 76.1433 48.3959 89.5462 55.664 95.5314C58.3188 97.7175 61.6954 98.6023 66.0501 98.2533C71.5677 97.8104 75.6204 94.5284 76.5825 89.7232L76.9384 87.9459H73.6284C70.528 87.9459 70.2964 88.0355 69.9619 89.3665C69.3678 91.7307 67.0573 93.4431 64.4806 93.4293C60.4956 93.4079 58.0971 90.2156 58.0971 84.9333C58.0971 81.2348 59.0917 78.6492 61.1304 77.0473C63.766 74.976 67.882 75.7201 69.3365 78.5305C70.105 80.0148 70.4592 80.1693 73.4898 80.3402C77.0644 80.5419 77.2355 80.3743 76.2156 77.6776C73.9502 71.687 65.1793 69.0337 58.2677 72.2486ZM87.0209 71.726C84.3319 72.6833 81.9049 75.0563 81.2376 77.3803L80.7287 79.1531H84.2659C86.3597 79.1531 87.8031 78.9185 87.8031 78.5789C87.8031 78.2629 88.411 77.3973 89.1537 76.6554C90.1708 75.6393 91.0906 75.3063 92.8818 75.3063C96.0977 75.3063 97.7051 76.501 97.7051 78.8905C97.7051 81.2871 96.8206 81.7613 90.6269 82.6856C82.5221 83.8952 80.0994 85.7642 80.1038 90.8036C80.1065 93.8327 81.7668 96.5717 84.2219 97.596C87.2701 98.8682 92.121 98.6138 95.2742 97.0157C96.7623 96.2612 98.0424 95.6429 98.1177 95.6418C98.1931 95.6407 98.2553 96.1342 98.2553 96.7387C98.2553 97.7208 98.6222 97.8378 101.693 97.8384L105.132 97.8389L104.991 91.9307C104.582 74.7826 104.642 75.4866 103.481 74.1858C101.491 71.9552 98.3664 70.933 93.5793 70.9462C91.1588 70.9528 88.2075 71.3039 87.0209 71.726ZM120.863 72.0541C119.833 72.6811 118.542 73.7313 117.993 74.388L116.996 75.5811L116.977 73.5203L116.959 71.4595H113.658H110.358V84.6486V97.8378H113.897H117.437L117.61 88.5384C117.776 79.6873 117.846 79.1735 119.06 77.8831C121.452 75.3431 126.077 75.6217 127.335 78.3821C127.722 79.2301 127.961 83.2088 127.961 88.7961V97.8378H131.537H135.113V87.7877C135.113 78.458 135.024 77.5617 133.875 75.2854C132.328 72.2195 129.899 70.911 125.761 70.9127C123.669 70.9138 122.158 71.266 120.863 72.0541ZM147.765 71.7859C140.189 75.0645 137.53 86.2209 142.589 93.5129C146.569 99.2502 157.039 100.148 162.255 95.1983C163.98 93.5618 165.026 91.7538 165.577 89.4572L165.94 87.9459H162.695C159.601 87.9459 159.419 88.0229 158.76 89.6133C157.102 93.6101 152.313 94.7719 149.418 91.8796C145.479 87.9443 146.118 78.952 150.498 76.6895C153.011 75.3909 155.327 75.6316 157.069 77.3726C157.904 78.2063 158.694 79.2092 158.825 79.5999C158.993 80.1044 160.045 80.2627 162.442 80.1445L165.821 79.9775L165.073 77.7793C164.173 75.1343 161.231 72.4261 158.305 71.5507C155.352 70.667 150.08 70.7846 147.765 71.7859ZM175.866 72.3646C171.593 74.4919 168.681 79.4796 168.673 84.686C168.663 90.4832 172.577 96.4898 177.198 97.7713C184.232 99.7222 190.788 97.5054 193.46 92.2731L194.547 90.1441H191.578C189.554 90.1441 188.381 90.4184 187.893 91.0047C186.688 92.4555 184.24 93.4414 181.845 93.4414C178.897 93.4414 175.821 90.6635 175.821 88.0009V86.2973H185.524H195.226L194.866 83.2341C194.425 79.4823 193.525 77.2528 191.468 74.8161C188.013 70.722 181.287 69.6657 175.866 72.3646ZM210.469 71.9277C209.415 72.4871 208 73.7544 207.324 74.7436C206.331 76.1966 206.029 76.3691 205.749 75.6426C205.559 75.148 205.513 74.0044 205.645 73.1015L205.887 71.4595H202.681H199.476V84.6486V97.8378H202.776H206.077L206.078 90.5563C206.079 84.7102 206.269 82.9033 207.041 81.3904C208.444 78.6421 210.651 77.2297 213.544 77.2297H215.979V74.0698V70.9099H214.182C213.194 70.9099 211.524 71.3677 210.469 71.9277ZM185.695 77.3671C186.597 78.198 187.493 79.5587 187.689 80.3896L188.043 81.9009H181.932C176.091 81.9009 175.821 81.8498 175.821 80.7468C175.821 80.1121 176.663 78.752 177.691 77.7243C180.17 75.248 183.247 75.1107 185.695 77.3671ZM97.7051 87.7135C97.7051 90.3684 97.49 90.9932 96.0972 92.3847C94.7604 93.7201 94.0414 93.9893 91.8338 93.9827C88.8445 93.9729 88.2493 93.7008 87.3047 91.9093C85.8877 89.2214 88.3544 86.6215 92.9021 86.0115C94.4848 85.7989 96.1511 85.4131 96.6049 85.1537C97.0588 84.8943 97.4923 84.6745 97.5676 84.6651C97.643 84.6563 97.7051 86.028 97.7051 87.7135ZM61.5711 104.424C59.0906 105.447 58.3463 109.627 60.2976 111.577C61.8104 113.088 64.8707 113.035 66.3273 111.473C69.4311 108.145 65.7563 102.699 61.5711 104.424ZM118.783 104.424C114.8 106.067 116.235 112.676 120.575 112.676C123.036 112.676 124.661 111.061 124.661 108.615C124.661 105.369 121.667 103.235 118.783 104.424ZM52.0459 108.554C52.0459 111.851 52.2109 112.676 52.8711 112.676C53.3249 112.676 53.6671 112.49 53.6313 112.264C53.595 112.037 53.595 111.171 53.6313 110.34C53.6869 109.042 53.9289 108.829 55.3466 108.829C56.2543 108.829 56.9969 108.582 56.9969 108.279C56.9969 107.977 56.2543 107.73 55.3466 107.73C54.0632 107.73 53.6962 107.486 53.6962 106.631C53.6962 105.741 54.0632 105.532 55.6216 105.532C56.6806 105.532 57.547 105.284 57.547 104.982C57.547 104.68 56.3093 104.432 54.7965 104.432H52.0459V108.554ZM69.315 107.707C69.4041 109.509 69.7942 111.363 70.1809 111.829C71.0308 112.852 74.7798 112.963 75.5808 111.989C76.4576 110.923 76.6788 104.43 75.8382 104.431C75.3816 104.432 75.1506 105.34 75.1506 107.135C75.1506 110.636 74.754 111.577 73.2764 111.577C71.3933 111.577 70.7497 110.498 70.7497 107.345C70.7497 105.165 70.5489 104.432 69.9509 104.432C69.3238 104.432 69.1868 105.136 69.315 107.707ZM79.0014 108.554C79.0014 110.935 79.2335 112.676 79.5515 112.676C79.854 112.676 80.1016 111.439 80.1016 109.928C80.1016 108.417 80.298 107.18 80.5378 107.18C80.7782 107.18 81.7063 108.412 82.6007 109.917C85.0119 113.974 85.8778 113.614 85.8778 108.554C85.8778 105.719 85.672 104.432 85.2187 104.432C84.8122 104.432 84.4964 105.534 84.3936 107.313L84.2274 110.193L82.3823 107.313C79.7479 103.2 79.0014 103.474 79.0014 108.554ZM88.3533 108.554V112.676H90.8288C94.0205 112.676 95.5047 111.307 95.5047 108.364C95.5047 105.537 94.2174 104.432 90.9228 104.432H88.3533V108.554ZM99.5315 105.394C99.3445 105.923 98.6271 107.778 97.9367 109.516C96.9559 111.986 96.8497 112.676 97.4493 112.676C97.8713 112.676 98.4814 112.181 98.8054 111.577C99.197 110.845 99.9573 110.477 101.077 110.477C102.296 110.477 102.838 110.78 103.047 111.577C103.205 112.181 103.666 112.676 104.07 112.676C104.617 112.676 104.425 111.621 103.321 108.554C102.227 105.516 101.579 104.432 100.854 104.432C100.313 104.432 99.718 104.865 99.5315 105.394ZM104.582 104.982C104.769 105.284 105.402 105.532 105.989 105.532C106.937 105.532 107.057 105.934 107.057 109.104C107.057 111.912 107.234 112.676 107.882 112.676C108.531 112.676 108.707 111.912 108.707 109.104C108.707 105.66 108.757 105.532 110.083 105.532C110.839 105.532 111.458 105.284 111.458 104.982C111.458 104.671 109.888 104.432 107.85 104.432C105.584 104.432 104.368 104.637 104.582 104.982ZM113.108 108.554C113.108 111.485 113.307 112.676 113.796 112.676C114.285 112.676 114.484 111.485 114.484 108.554C114.484 105.623 114.285 104.432 113.796 104.432C113.307 104.432 113.108 105.623 113.108 108.554ZM126.861 108.554C126.861 110.935 127.093 112.676 127.411 112.676C127.714 112.676 127.961 111.439 127.961 109.928C127.961 108.417 128.158 107.18 128.398 107.18C128.638 107.18 129.566 108.412 130.46 109.917C131.413 111.521 132.486 112.659 133.05 112.665C133.882 112.674 134.012 112.117 134.012 108.554C134.012 105.323 133.84 104.432 133.216 104.432C132.643 104.432 132.373 105.241 132.253 107.313L132.087 110.193L130.242 107.313C127.608 103.2 126.861 103.474 126.861 108.554ZM64.9345 105.845C65.9549 106.865 66.0803 109.976 65.1386 110.917C64.7755 111.28 63.9586 111.577 63.3232 111.577C61.6817 111.577 60.8477 110.535 60.8477 108.483C60.8477 106.645 62.0238 104.982 63.3232 104.982C63.7336 104.982 64.4586 105.371 64.9345 105.845ZM121.883 105.517C123.347 106.3 123.782 108.685 122.748 110.261C121.819 111.677 119.808 112.005 118.719 110.917C117.766 109.965 117.909 107.158 118.97 105.987C120.008 104.841 120.476 104.765 121.883 105.517ZM93.8351 106.594C95.0877 108.933 93.7388 111.577 91.2936 111.577C90.0966 111.577 90.0036 111.358 90.0036 108.554C90.0036 105.57 90.0245 105.532 91.6347 105.532C92.6843 105.532 93.4687 105.911 93.8351 106.594ZM101.852 108.417C102.163 109.675 102.046 109.928 101.157 109.928C99.5997 109.928 99.3769 109.481 100.019 107.641C100.65 105.833 101.279 106.099 101.852 108.417Z" fill="#707074"/>
<path fill-rule="evenodd" clip-rule="evenodd" d="M19.8321 32.4999C17.6738 33.3865 11.6781 37.8391 9.37024 40.2688C6.56644 43.221 5.74012 44.399 4.14863 47.7119C3.11891 49.8563 2.99832 50.5858 3.00002 54.6799C3.00129 58.5994 3.15076 59.595 4.04799 61.6479C5.23906 64.3741 6.84287 66.9092 8.62544 68.8824L9.84921 70.2373L10.4292 68.8824C10.7481 68.1369 13.3239 67.4946 14.0402 66.4045C16.4933 62.6727 14.7341 62.0738 12.9761 59.9059C10.211 56.4964 9.5783 54.8689 9.59316 51.2024C9.60336 48.7218 9.83478 47.4545 10.5486 45.9677C12.4114 42.0891 15.0394 38.8098 19.227 35.1403C22.509 32.2643 22.7277 31.3105 19.8321 32.4999ZM23.0223 73.4552C21.5846 74.9189 19.9137 76.5455 19.309 77.069L18.2105 78.0214L22.2814 82.3869C26.9102 87.3494 29.1671 90.5455 31.5123 95.4589L33.1467 98.8832L33.1399 104.762C33.1327 111.076 33.1208 111.121 30.0078 116.69C29.3089 117.941 29.1858 118.511 29.5374 118.868C29.8881 119.224 30.4282 118.883 31.5802 117.577C38.4876 109.754 41.1194 101.543 39.57 92.6521C38.829 88.402 36.0893 82.2845 33.2876 78.6259C31.2715 75.9933 26.3837 70.7934 25.9251 70.7934C25.7667 70.7934 24.4605 71.991 23.0223 73.4552Z" fill="#B3D88B"/>
<path fill-rule="evenodd" clip-rule="evenodd" d="M30.8108 0.476439C30.7 0.773761 30.9674 1.69728 31.4056 2.52917C33.9583 7.37881 35.2458 11.384 36.035 16.929C36.6372 21.1602 36.6328 22.0569 35.991 26.3409C35.6008 28.9455 34.7852 32.3833 34.1791 33.981C33.5725 35.5786 32.8581 37.4624 32.5911 38.1672C31.2921 41.6007 25.8005 50.0973 21.5903 55.1877C20.0867 57.0057 18.6967 58.6877 18.5018 58.9254C18.3065 59.163 16.9815 60.9133 15.5567 62.8148C14.1319 64.7162 12.4867 66.7582 11.9003 67.3524C10.5943 68.6769 8.0645 72.3269 8.0645 72.8874C8.0645 73.1126 7.76757 73.5387 7.40466 73.8347C7.04175 74.1307 6.74482 74.7375 6.74482 75.1835C6.74482 75.6294 6.06563 77.3075 5.236 78.9121C1.65 85.846 0.0531969 91.811 0.00128974 98.4675C-0.048418 104.84 1.34648 111 2.83947 111C3.05194 111 3.22569 109.213 3.22569 107.03C3.22569 98.9291 5.78806 92.9407 12.415 85.553C13.7193 84.0992 15.0108 82.9099 15.2849 82.9099C15.9157 82.9099 22.5809 76.352 22.5809 75.7314C22.5809 75.4778 23.323 74.5879 24.2305 73.7543C30.6318 67.8718 37.3089 59.504 40.0952 53.873C47.876 38.1469 46.2941 18.7618 36.0992 4.90602C32.8431 0.480328 31.2934 -0.817432 30.8108 0.476439Z" fill="#7AC142"/>
</svg>
