<svg width="364" height="69" viewBox="0 0 364 69" fill="none" xmlns="http://www.w3.org/2000/svg">
<path fill-rule="evenodd" clip-rule="evenodd" d="M89.6158 22.562C84.1442 24.1158 82.2579 29.6263 85.8124 33.6724C86.6298 34.6031 88.385 35.7371 89.9762 36.3627C94.8539 38.2814 95.7957 38.8128 96.1192 39.8315C96.557 41.2108 94.7903 42.5652 92.5536 42.5647C91.596 42.5647 89.4469 41.9191 87.7783 41.13C86.1096 40.3413 84.6563 39.6957 84.5481 39.6957C84.05 39.6957 84.4194 44.4142 84.9501 44.8303C86.2383 45.8403 90.4064 46.8691 93.1704 46.859C99.8982 46.8347 103.854 42.5054 102.075 37.1159C101.356 34.9398 99.4828 33.5208 94.751 31.5681C90.7045 29.898 89.6115 28.7683 90.8471 27.533C92.0655 26.3158 95.3415 26.4182 98.9473 27.787C100.263 28.2863 101.394 28.6952 101.46 28.6952C101.526 28.6957 101.579 27.6459 101.579 26.3622C101.579 24.2631 101.447 23.9767 100.263 23.5041C96.6685 22.0703 92.611 21.7111 89.6158 22.562ZM237.17 22.4692C232.911 23.3731 228.997 26.3383 227.373 29.8913C226.839 31.0587 226.494 32.933 226.488 34.6997C226.455 43.9364 236.013 49.213 246.765 45.8939L249.926 44.9183V42.1233V39.3283L246.935 40.5427C239.844 43.4208 233.482 41.0496 232.832 35.2861C232.535 32.6533 233.468 30.6867 235.891 28.8401C237.491 27.6205 237.996 27.5024 241.514 27.5263C244.413 27.5459 245.948 27.8104 247.653 28.5852L249.926 29.6182V26.9777V24.3377L247.846 23.418C245.418 22.3448 240.018 21.8647 237.17 22.4692ZM274.422 22.9752C273.185 24.1263 273.096 25.2168 274.119 26.676C275.571 28.7473 279.117 27.5234 279.117 24.9513C279.117 23.6897 277.525 22 276.336 22C275.859 22 274.997 22.439 274.422 22.9752ZM182.452 34.6988V46.9198L184.964 46.7749L187.477 46.6304L187.613 41.1496C187.718 36.9083 187.925 35.4755 188.525 34.8126C189.433 33.8102 192.145 33.6686 192.905 34.584C193.198 34.9365 193.486 37.7157 193.562 40.921L193.698 46.6304L196.246 46.7763L198.794 46.9222L198.639 39.9204L198.483 32.9192L196.92 31.5246C194.977 29.7909 191.701 29.601 189.271 31.0817L187.716 32.0296V27.2537V22.4783H185.084H182.452V34.6988ZM253.866 34.5543L253.993 46.6304H256.386H258.779L259.018 40.9707C259.28 34.7753 259.675 33.9565 262.401 33.9565C264.551 33.9565 264.978 35.0288 265.239 41.0817L265.478 46.6304H267.871H270.264L270.411 41.1304C270.59 34.485 270.07 32.3491 267.965 31.0659C265.903 29.8095 262.413 29.82 260.802 31.087C260.133 31.613 259.457 32.0435 259.301 32.0435C259.146 32.0435 259.018 29.8913 259.018 27.2609V22.4783H256.378H253.738L253.866 34.5543ZM282.945 32.9923V43.5064L284.261 44.9656C285.074 45.8667 286.221 46.5267 287.261 46.6917C288.833 46.9413 289.003 46.8399 289.794 45.1813C290.261 44.2033 290.58 43.3763 290.503 43.3429C289.21 42.7862 288.409 42.0186 288.148 41.085C287.971 40.4523 287.805 36.0068 287.778 31.2065L287.73 22.4783H285.338H282.945V32.9923ZM304.479 26.4717V30.4652L301.01 30.2514C297.955 30.064 297.34 30.173 295.865 31.1644C293.79 32.56 292.037 35.9174 292.037 38.5C292.037 41.0654 293.788 44.4424 295.817 45.7897C297.746 47.0709 300.965 47.2263 303.067 46.1397C304.333 45.486 304.479 45.486 304.479 46.1397C304.479 46.6964 305.046 46.8696 306.872 46.8696H309.265V34.6739V22.4783H306.872H304.479V26.4717ZM169.572 29.0543C167.709 31.0932 166.184 33.0301 166.183 33.3587C166.183 33.6877 166.72 33.9565 167.378 33.9565C168.568 33.9565 168.575 33.9809 168.576 38.3804C168.579 44.9312 170.054 46.8696 175.035 46.8696C176.185 46.8696 177.678 46.6596 178.353 46.4033C179.393 46.0082 179.581 45.6395 179.581 43.9952C179.581 42.2237 179.5 42.0965 178.655 42.5485C177.405 43.2171 175.118 43.1745 174.413 42.4696C174.058 42.1152 173.838 40.3757 173.838 37.9261V33.9565H176.71H179.581V32.0435V30.1304H176.71H173.838V27.7391C173.838 26.4239 173.64 25.3478 173.399 25.3478C173.157 25.3478 171.435 27.0155 169.572 29.0543ZM111.209 30.1591C108.9 30.6642 107.248 32.022 105.972 34.463C103.975 38.281 105.231 43.4323 108.734 45.792C110.779 47.1685 114.134 47.2345 116.259 45.9398C117.55 45.1531 117.863 45.1148 118.336 45.684C119.352 46.9064 120.678 46.9743 122.428 45.893C124.077 44.8747 124.098 44.8231 123.258 43.8972C122.537 43.1018 122.37 41.8976 122.239 36.5501L122.083 30.1539L117.892 30.2189C115.586 30.2548 113.503 30.1763 113.263 30.0448C113.022 29.9133 112.098 29.9645 111.209 30.1591ZM124.549 30.4839C124.549 31.0941 130.813 45.5821 131.385 46.2961C131.66 46.6381 132.433 46.8533 133.104 46.7744C134.182 46.6472 134.753 45.6887 138.038 38.5L141.752 30.3696L139.552 30.2213C138.342 30.14 137.092 30.173 136.774 30.295C136.456 30.4169 135.492 32.3811 134.631 34.6596C133.771 36.938 132.94 38.6765 132.786 38.522C132.632 38.3675 131.823 36.4703 130.989 34.3057L129.474 30.3696L127.012 30.2251C125.657 30.1453 124.549 30.262 124.549 30.4839ZM146.046 31.218C140.305 35.0838 140.701 43.2109 146.763 45.9628C149.379 47.1498 153.83 47.1331 156.491 45.926C158.26 45.1239 158.525 44.8059 158.525 43.494C158.525 42.24 158.384 42.0449 157.688 42.3395C154.612 43.6423 152.883 44.0354 151.429 43.7628C149.516 43.4041 147.519 41.5819 147.519 40.1954C147.519 39.2643 147.795 39.2174 153.261 39.2174H159.004V37.884C159.004 35.8691 157.053 32.4251 155.224 31.2103C152.923 29.6823 148.32 29.6857 146.046 31.218ZM205.761 31.13C201.172 33.5505 200.266 40.7196 204.097 44.3003C206.358 46.4143 208.25 47.0087 211.993 46.7835C216.481 46.5128 218.063 45.6706 218.249 43.451L218.394 41.7125L216.095 42.8919C212.188 44.8963 208.136 43.724 207.114 40.2935L206.793 39.2174H212.869H218.946L218.678 37.5679C217.91 32.836 214.785 30.1137 210.165 30.1515C208.533 30.1649 206.904 30.5269 205.761 31.13ZM273.853 38.2097C273.853 47.1226 273.761 46.8696 277.002 46.8696H278.638V38.5V30.1304H276.245H273.853V38.2097ZM313.304 30.7474C313.174 31.087 313.127 34.7992 313.2 38.9974L313.332 46.6304L314.706 46.7873C315.462 46.8739 316.592 46.8155 317.218 46.6587C318.299 46.3875 318.357 46.178 318.357 42.5408C318.357 35.684 320.386 33.595 325.107 35.5936C325.71 35.849 326.01 35.4367 326.504 33.6753C327.079 31.6226 327.057 31.3763 326.242 30.7809C325.753 30.4231 324.51 30.1304 323.481 30.1304C321.992 30.1304 321.279 30.4619 319.984 31.7565L318.357 33.3826V31.7565V30.1304H315.949C314.425 30.1304 313.455 30.3567 313.304 30.7474ZM331.751 31.2065C328.559 33.3778 327.118 36.8261 327.92 40.3786C328.5 42.9493 329.756 44.5232 332.244 45.7935C334.831 47.1149 339.124 47.2015 342.284 45.9958C344.269 45.2382 344.449 45.0297 344.59 43.3247L344.742 41.4753L342.978 42.5155C339.454 44.594 335.045 44.1765 333.684 41.635C332.469 39.3666 332.798 39.2174 338.996 39.2174H344.801L344.552 37.0107C344.07 32.7432 340.938 30.1304 336.302 30.1304C334.011 30.1304 332.972 30.3763 331.751 31.2065ZM348.026 38.5V46.8696H350.658H353.29V41.2046C353.29 34.8552 353.693 33.9565 356.541 33.9565C358.686 33.9565 359.032 34.9833 359.032 41.338V46.8696H361.425H363.818V40.1423C363.818 36.4425 363.596 33.0014 363.325 32.4954C362.082 30.174 357.57 29.4217 354.845 31.0817C353.294 32.0267 353.29 32.0267 353.29 31.0798C353.29 30.2481 352.965 30.1304 350.658 30.1304H348.026V38.5ZM153.558 34.209C155.357 36.0078 154.832 36.5669 151.189 36.7285C148.247 36.8586 147.997 36.7936 147.997 35.8916C147.997 34.5386 149.664 33 151.129 33C151.799 33 152.892 33.5443 153.558 34.209ZM212.861 34.1741C214.941 36.2522 214.47 36.8261 210.686 36.8261C207.655 36.8261 207.336 36.7352 207.336 35.8696C207.336 34.5362 209.013 33 210.468 33C211.138 33 212.215 33.5285 212.861 34.1741ZM338.934 33.9565C340.933 35.9542 339.975 36.8261 335.784 36.8261C332.796 36.8261 332.419 36.1202 334.366 34.1741C335.789 32.7523 337.64 32.6638 338.934 33.9565ZM116.396 33.9355C117.417 34.5807 117.552 41.8196 116.559 42.6437C115.509 43.5146 112.774 43.3625 111.679 42.372C108.846 39.8095 110.627 33.4687 114.176 33.4854C115.012 33.4897 116.011 33.692 116.396 33.9355ZM303.726 34.111C304.992 35.036 304.659 41.8579 303.299 42.8512C301.467 44.1903 299.034 43.4887 297.858 41.2816C296.697 39.1031 297.359 35.4836 299.174 34.0914C300.186 33.3142 302.651 33.3252 303.726 34.111Z" fill="black"/>
<path fill-rule="evenodd" clip-rule="evenodd" d="M28.2118 0.620026C27.3278 0.971026 25.8814 1.93595 24.9975 2.76395C24.1135 3.59195 21.3943 5.23381 18.9546 6.41217C16.515 7.59117 13.1882 9.74667 11.5618 11.2034C9.7174 12.8549 7.68469 14.021 6.15983 14.3032C3.45083 14.8053 2.54569 16.1566 3.68997 17.9894C4.30133 18.9678 4.15797 19.7688 2.92883 22.2432C0.366401 27.4053 -0.207671 30.6659 0.0597578 38.539C0.359329 47.3313 1.64311 51.1492 6.19004 56.7665C12.6745 64.7778 21.4753 68.6851 33.0332 68.6851C38.5945 68.6851 40.7282 68.3875 44.7878 67.0439C47.5155 66.1413 50.4514 64.8704 51.3122 64.2198L52.8775 63.0363L50.8365 57.6646C48.1416 50.5694 47.5322 47.5557 47.5129 41.2274C47.4936 34.6715 48.9137 30.5791 53.2928 24.5729L56.455 20.2355L58.5655 24.6925C60.588 28.963 60.676 29.4734 60.676 36.8971C60.676 44.5542 60.6478 44.7014 58.2653 49.5222C55.654 54.8065 55.5351 55.1851 56.4891 55.1851C57.4843 55.1851 60.4568 50.1271 62.1013 45.6355C65.0378 37.6132 64.717 28.5419 61.2096 20.4547L59.5806 16.6992L61.2533 14.5064C62.1733 13.3004 62.926 11.8655 62.926 11.3185C62.926 9.25488 58.5739 8.88846 56.8388 10.8061C55.7093 12.0539 55.6637 12.0436 53.0428 9.91896C49.8722 7.34881 46.3924 5.53788 42.0332 4.19045C40.2653 3.64338 37.3956 2.45474 35.6567 1.54767C32.283 -0.210545 30.7735 -0.398903 28.2118 0.620026ZM22.1265 11.3107C22.1419 14.0152 22.5733 15.767 23.7336 17.8422C26.0383 21.9648 28.2343 23.3637 32.4019 23.3637C35.4703 23.3637 36.1105 23.1162 38.1529 21.1362C40.7899 18.5802 41.9863 14.9937 41.5356 10.9951C41.3659 9.48888 41.3505 8.25653 41.5009 8.25653C43.1935 8.25653 51.9975 14.4569 51.9975 15.6487C51.9975 16.8181 44.7345 22.4855 40.4987 24.6211C35.647 27.0678 31.3425 27.3899 25.839 25.7178C21.5183 24.4057 13.939 19.7212 11.2268 16.687C10.0015 15.3157 10.006 15.2913 11.8478 13.3692C13.4093 11.7395 20.4936 7.61174 21.7253 7.61431C21.9336 7.61495 22.1143 9.27803 22.1265 11.3107ZM13.0744 27.6425C21.4984 36.5024 21.456 36.4027 20.214 44.2135C19.6624 47.6804 19.2118 53.0302 19.2118 56.1018V61.6863L17.1733 60.5253C13.0378 58.1686 7.92511 52.4337 5.40897 47.3287C3.23419 42.9149 2.92754 41.6883 2.6434 36.2581C2.37404 31.0985 2.54954 29.4496 3.7774 25.6323C4.57647 23.147 5.59861 21.1137 6.04861 21.1137C6.49861 21.1137 9.66019 24.0515 13.0744 27.6425Z" fill="#DA281B"/>
</svg>
