<svg width="298" height="85" viewBox="0 0 298 85" fill="none" xmlns="http://www.w3.org/2000/svg">
<path d="M35.4603 0.317857C35.5855 0.317857 35.6878 0.246339 35.6878 0.158928C35.6878 0.0592803 36.6923 0 38.3842 0C39.8672 0 41.0806 0.0559428 41.0806 0.124282C41.0806 0.192621 41.4112 0.346305 41.8153 0.465819C42.2193 0.585334 42.8796 0.857896 43.2825 1.07165C44.3463 1.63569 47.5701 3.47386 48.2182 3.8858C48.5235 4.07985 49.38 4.5808 50.1215 4.99894C50.863 5.41692 52.1121 6.13512 52.8972 6.59458C53.6824 7.0542 55.324 8.00094 56.5453 8.69863C57.7666 9.39617 59.4796 10.3836 60.352 10.8928C61.2244 11.4018 62.4021 12.0797 62.9691 12.399C63.5362 12.7181 64.6425 13.3587 65.4276 13.8223C67.2348 14.8897 68.7204 15.7409 70.3971 16.6703C72.1902 17.6641 73.9456 19.3248 74.9212 20.95C75.6952 22.2395 76.6098 24.3739 76.6098 24.9518C76.7146 24.9518 76.7684 30.885 76.7684 42.4339C76.7684 53.9828 76.7146 59.916 76.6098 59.916C76.5225 59.916 76.4512 60.0559 76.4512 60.2267C76.4512 60.8046 75.6952 62.6283 74.9212 63.9179C73.9456 65.5431 72.1902 67.2037 70.3971 68.1975C68.7204 69.1269 67.2348 69.9781 65.4276 71.0455C64.6425 71.5091 63.5362 72.1497 62.9691 72.4688C62.4021 72.7881 61.2244 73.4668 60.352 73.9768C58.5143 75.0514 55.885 76.5656 54.404 77.4018C53.837 77.7221 52.7307 78.3616 51.9456 78.8231C51.1604 79.2845 49.9827 79.9652 49.3284 80.3358C48.6742 80.7063 47.1039 81.6114 45.839 82.3472C43.5727 83.6654 41.7534 84.55 41.3081 84.55C41.1829 84.55 41.0806 84.6215 41.0806 84.7089C41.0806 84.8085 40.0761 84.8678 38.3842 84.8678C36.9012 84.8678 35.6878 84.8119 35.6878 84.7435C35.6878 84.6752 35.3572 84.5215 34.9531 84.402C34.5491 84.2825 33.8888 84.0099 33.4859 83.7962C32.4221 83.2321 29.1983 81.394 28.5502 80.982C28.2449 80.788 27.3884 80.287 26.6469 79.8689C25.9054 79.4509 24.6563 78.7349 23.8712 78.2778C23.086 77.8209 21.6585 76.9964 20.6989 76.4457C19.7393 75.895 18.4902 75.1765 17.9232 74.849L17.2421 74.4557C16.6363 74.1059 15.8604 73.6578 15.2268 73.2921C14.3108 72.7633 13.2402 72.1442 12.8476 71.9164C12.455 71.6885 11.3844 71.0674 10.4684 70.5361C9.55243 70.0048 8.41042 69.3405 7.93062 69.0598C7.45082 68.779 6.58511 68.2889 6.00697 67.9705C4.50079 67.1412 2.77286 65.4574 1.8472 63.9166C1.07333 62.6288 0.317225 60.8051 0.317225 60.2267C0.317225 60.0559 0.245849 59.916 0.158612 59.916C0.0569419 59.916 0 56.4014 0 53.7655V48.1849V42.7665C0 39.7865 0.0050756 27.4482 0.0793062 27.4482L0.0325155 26.2536C0.00682033 25.5964 0.0436184 25.0169 0.114518 24.9656C0.185259 24.9143 0.331341 24.5147 0.439039 24.0777C0.546578 23.6406 0.973721 22.6036 1.38802 21.7732C1.99978 20.5471 2.39457 20.0075 3.48947 18.9015C4.36898 18.013 5.22358 17.3273 5.94796 16.9291C6.55862 16.5932 7.45082 16.0894 7.93062 15.8097C8.41042 15.5299 9.48106 14.9069 10.3098 14.4251C11.1386 13.9434 12.0664 13.4016 12.3718 13.2209C12.6771 13.0404 13.3552 12.6521 13.8786 12.3583C14.402 12.0643 16.2935 10.9734 18.0818 9.93398C19.8702 8.89443 21.7973 7.78305 22.3643 7.46392C22.9314 7.14479 24.0377 6.50621 24.8228 6.04469C25.608 5.58332 26.7857 4.90263 27.4399 4.532C28.0942 4.16154 29.6645 3.25644 30.9294 2.52061C33.1957 1.20245 35.015 0.317857 35.4603 0.317857Z" fill="white"/>
<path fill-rule="evenodd" clip-rule="evenodd" d="M56.4603 24.2087C57.2628 25.6761 57.59 27.1773 57.4926 28.9463C57.3023 32.4049 55.2057 35.1969 52.0731 36.1634C51.0825 36.4691 50.432 36.5106 46.6294 36.5106H42.3107V40.7794V45.048L43.1959 45.9136C43.6827 46.3898 44.0831 46.7031 44.0856 46.61C44.0883 46.517 44.1081 44.6218 44.1299 42.3985L44.1695 38.356L46.8656 38.3075C49.3203 38.2634 49.5779 38.2286 49.7444 37.9196C49.8549 37.7147 50.1897 37.541 50.5891 37.4815C53.6383 37.0266 55.3978 36.0531 56.8275 34.0294C57.5057 33.0694 57.6413 32.7488 58.2806 32.7488C58.9253 32.7488 58.9884 32.6618 59.161 32.0445C59.421 31.1153 59.3465 29.0326 59.0588 27.9599C58.7136 26.6725 58.3435 25.1512 57.2242 23.9451L55.8156 22.8887L56.4603 24.2087ZM42.3107 28.2499V30.812H43.1382H44.1299L44.1695 29.1728V27.2833H48.0202C50.138 27.2833 51.8706 27.23 51.8706 27.165C51.8704 27.0998 51.6552 26.7925 51.3919 26.482C50.5774 25.5209 50.1506 25.4378 46.034 25.4378H42.3107V28.2499ZM11.4533 29.7458C11.915 30.725 11.9493 30.9517 11.9458 32.9954C11.9387 36.9846 10.8871 39.4429 7.30028 43.8557C5.99927 45.4565 5.97501 45.5041 6.0807 46.2688C6.231 47.3573 6.6272 48.2208 7.08908 48.4662C7.47748 48.6727 7.69476 48.5207 7.5712 47.5391L7.30028 46.6587L8.54924 45.074C12.124 40.6759 13.1799 38.2047 13.1857 34.222C13.1887 32.0992 13.5749 31.9121 13.0295 30.812C13.0834 30.0389 12.0997 29.3392 11.797 29.0513L10.7405 28.347L11.4533 29.7458ZM35.9375 32.4681V35.2803H31.8601C27.3023 35.2803 26.816 35.3738 26.2054 36.3682C25.5358 37.4584 25.8232 39.2686 26.7703 39.9271C27.3971 40.3632 28.348 40.1408 28.348 39.4397C28.348 38.6524 28.0734 37.7975 28.5695 37.515C28.8192 37.373 30.2773 37.2721 32.928 37.2136L36.9112 37.1257L36.9594 33.8434C37.007 30.5965 37.0558 29.8511 36.6379 29.4034C36.4056 29.1545 36.1572 29.1728 36.0952 29.1728C36.0335 29.1728 35.9375 30.9215 35.9375 32.4681ZM8.34901 31.1828C7.73365 32.394 7.21619 34.0594 6.74616 36.3411C6.39334 38.0541 5.91783 42.0928 6.05308 42.2273C6.09504 42.2688 6.4314 41.9095 6.80087 41.4286C7.4003 40.6481 8.50205 38.741 8.80372 36.9746C9.22647 34.5001 8.90029 33.7656 9.55 32.4861C9.99506 31.6094 10.028 31.434 9.84901 30.8863C9.71145 30.4648 9.52539 30.2537 9.25807 30.2161C8.93942 30.171 8.77301 30.3481 8.34901 31.1828ZM66.651 37.9254C67.7803 40.066 67.8033 40.2904 67.8033 49.123C67.8033 57.9432 67.835 57.6849 66.6454 58.5856C65.984 59.0865 64.8161 59.2438 63.9086 58.9542C63.5749 58.8478 62.9718 59.3104 63.7389 60.0403C65.244 61.4721 67.3542 61.3259 68.6888 60.1288C69.2346 59.6393 69.4179 59.3133 69.5782 58.5461C69.8535 57.23 69.711 43.0795 69.4113 41.964C69.0217 40.5138 68.862 38.4788 67.8033 37.374L66.0438 36.7742L66.651 37.9254ZM56.9454 39.3937C55.9308 39.6707 55.2905 40.1103 54.7472 40.9028C54.4043 41.403 54.3489 41.7123 54.3489 43.1275V44.6638H55.2116H56.0742L56.1604 43.8794C56.2707 42.74 56.6979 42.1668 57.886 41.5636C58.6247 41.1885 59.0863 41.0803 59.9456 41.0803C60.5547 41.0803 61.2574 41.1574 61.5072 41.2516C62.0838 41.4692 62.0861 41.2545 61.5146 40.5802C60.5866 39.4853 58.5488 38.9561 56.9454 39.3937ZM37.8849 40.8124C38.3241 41.2636 39.2179 41.8944 39.8769 42.2181L41.0722 42.8053L40.7243 42.3201C40.3083 41.7401 38.7817 40.676 37.7964 40.2792L37.0882 39.9939L37.8849 40.8124ZM17.2606 43.4001C16.8377 44.7232 16.7878 46.8641 17.1596 47.7394L17.4124 48.335L17.7349 47.9398C17.9158 47.7178 18.0573 47.2613 18.0573 46.8991C18.0573 46.5442 18.181 45.8214 18.3324 45.2928C18.4838 44.7643 18.651 44.1611 18.704 43.9527C18.7725 43.6834 18.7327 43.0639 18.3117 42.609L17.7349 41.993L17.2606 43.4001ZM14.1165 43.6727C13.4902 44.322 13.0998 45.3015 13.103 46.2156C13.1117 48.6133 14.5956 47.0552 14.8187 44.4141C14.8806 43.6792 14.8542 43.1894 14.7524 43.1894C14.6592 43.1894 14.3731 43.407 14.1165 43.6727ZM40.6717 44.0682C41.4521 45.4556 41.7796 46.7325 41.7796 48.3876C41.7796 51.7952 39.9464 54.7033 36.8269 56.2443L35.6807 56.8106L29.521 56.8667C24.5469 56.912 23.1935 56.8741 22.4898 56.6693L21.6185 56.4157L22.5982 57.3161C23.137 57.8114 23.8294 58.3111 24.1369 58.4266C24.5282 58.5733 26.507 58.6392 30.7271 58.6463C35.737 58.6543 36.9213 58.6088 37.7199 58.377C41.4569 57.292 44.1731 52.9067 43.5568 48.9527C43.2541 47.0105 42.8361 45.8305 41.0722 43.8794L40.1279 43.1015L40.6717 44.0682ZM24.696 45.7402C26.509 47.4306 26.8198 47.5181 32.0428 47.8088C34.5257 47.9471 36.5934 48.0289 36.6379 47.9906C36.8197 47.834 36.048 46.73 35.6111 46.5217C35.3218 46.3838 33.2622 46.1859 30.2569 46.0071C25.5178 45.7254 25.3471 45.7024 24.5034 45.2333L23.6338 44.7498L24.696 45.7402ZM20.1801 47.2413C20.1776 47.8876 19.1806 49.4849 18.5363 49.8749C18.2242 50.0638 17.6625 50.2186 17.2881 50.219L16.6076 50.2197L17.3492 50.8349C18.6275 51.8952 19.8966 51.5345 20.8804 49.8314C21.5861 48.6098 21.7226 47.9277 20.9528 47.1869C20.3408 46.598 20.1817 46.8167 20.1801 47.2413ZM3.18569 48.1486C2.55334 48.7228 1.57771 49.5539 1.01794 49.9958C0.222352 50.6234 0 50.9043 0 51.2815C0 51.7834 0.265725 51.9773 0.953672 51.9773C1.31765 51.9773 2.72205 50.927 4.27232 49.4954L4.91565 48.9015L4.6255 48.003L4.33534 47.1046L3.18569 48.1486ZM10.9689 48.9091C10.7363 49.155 10.0476 49.5996 9.43847 49.8972C8.47966 50.3659 8.18827 50.4281 7.26381 50.3619L6.1963 50.2851L6.59462 50.7085C7.87846 52.0736 10.1994 51.8762 12.0731 50.2429C12.4204 49.9401 12.7502 49.6924 12.8062 49.6924C12.8619 49.6924 13.21 49.8974 13.5794 50.1478C14.1243 50.5173 14.3966 50.5872 15.0217 50.5188C15.4455 50.4724 15.9076 50.3202 16.0483 50.1803C16.2717 49.9587 16.2434 49.8336 15.8261 49.201L15.348 48.4758L14.8302 48.9084C14.1376 49.487 13.1857 49.4843 12.3206 48.9015C11.5154 48.3591 11.4892 48.3593 10.9689 48.9091ZM54.3489 53.0042C54.3489 56.6727 54.3308 56.8772 53.9412 57.6086C53.2291 58.9454 51.7081 59.4656 50.1807 58.895C49.9903 58.8238 50.2727 59.173 50.8082 59.6709C51.3438 60.1688 52.0501 60.6675 52.378 60.7789C53.671 61.2188 55.2307 60.5499 55.8287 59.2985C56.0707 58.7921 56.1192 58.0432 56.1192 54.8068V50.9227H59.1287H62.1835V50.0439V49.1652H58.2436H54.3489V53.0042ZM49.746 71.5743C49.746 71.6227 49.7859 71.6622 49.8346 71.6622C49.8832 71.6622 49.9231 71.6227 49.9231 71.5743C49.9231 71.526 49.8832 71.4864 49.8346 71.4864C49.7859 71.4864 49.746 71.526 49.746 71.5743ZM27.44 72.1016C27.44 72.1499 27.4798 72.1895 27.5285 72.1895C27.5772 72.1895 27.617 72.1499 27.617 72.1016C27.617 72.0533 27.5772 72.0137 27.5285 72.0137C27.4798 72.0137 27.44 72.0533 27.44 72.1016Z" fill="#6F614F"/>
<path fill-rule="evenodd" clip-rule="evenodd" d="M35.6878 0.158928C35.6878 0.246339 35.5855 0.317857 35.4603 0.317857C35.015 0.317857 33.1957 1.20245 30.9294 2.52061C29.6645 3.25644 28.0942 4.16154 27.4399 4.532C26.7857 4.90263 25.608 5.58332 24.8228 6.04469C24.0377 6.50621 22.9314 7.14479 22.3643 7.46392C21.7973 7.78305 19.8702 8.89443 18.0818 9.93398C16.2935 10.9734 14.402 12.0643 13.8786 12.3583C13.3552 12.6521 12.6771 13.0404 12.3718 13.2209C12.0664 13.4016 11.1386 13.9434 10.3098 14.4251C9.48106 14.9069 8.41042 15.5299 7.93062 15.8097C7.45082 16.0894 6.55862 16.5932 5.94796 16.9291C5.22358 17.3273 4.36898 18.013 3.48947 18.9015C2.39457 20.0075 1.99979 20.5471 1.38802 21.7732C0.973722 22.6036 0.546578 23.6406 0.439039 24.0777C0.331341 24.5147 0.185259 24.9143 0.114518 24.9656C0.0436184 25.0169 0.00682033 25.5964 0.0325155 26.2536L0.0793062 27.4482L3.65411 25.3656C5.62027 24.2202 8.18979 22.7176 9.36416 22.0262C10.5385 21.335 12.3559 20.2716 13.4027 19.663C17.6513 17.193 20.2542 15.6653 20.8082 15.3163C21.13 15.1135 21.9508 14.6349 22.6322 14.2527C23.3136 13.8706 25.1202 12.8204 26.6469 11.9188C33.2203 8.03733 35.3761 6.83408 36.0267 6.68374C37.0109 6.45631 39.1244 6.47904 40.0798 6.72744C40.5269 6.84362 41.4169 7.24777 42.0573 7.62555C42.6978 8.00316 43.7215 8.59835 44.3322 8.94799C44.9428 9.29763 45.9064 9.85166 46.4734 10.1791C47.8573 10.978 51.9291 13.301 52.8179 13.7988C53.2105 14.0186 54.2998 14.6511 55.2387 15.2045C56.1777 15.7579 56.9796 16.2107 57.0207 16.2107C57.1894 16.2107 58.7803 17.2317 58.9642 17.4578C59.2555 17.8164 59.2065 18.2326 58.8287 18.6112C58.2788 19.1622 57.9896 19.0368 52.7386 15.9715C49.5951 14.1365 41.2605 9.39379 40.3669 8.93146C38.5961 8.01556 37.0003 8.09502 35.09 9.19449C33.9085 9.87439 29.9359 12.1798 27.5986 13.542C24.9351 15.0939 20.2675 17.8165 18.7163 18.7227C17.8875 19.207 16.8169 19.8292 16.3371 20.1054C12.7626 22.1642 10.2394 23.6692 7.53409 25.3564C2.37903 28.5714 0.759436 30.9747 0.375436 35.9785C0.317701 36.7319 0.209527 37.3482 0.135138 37.3482C0.0609072 37.3482 0 39.7865 0 42.7665V48.1849L0.753409 47.5504C1.1677 47.2016 2.09575 46.3311 2.81537 45.6163L4.12392 44.3163L4.12694 42.3818C4.13233 38.8196 4.87923 34.4683 6.02061 31.3474C6.77671 29.2803 7.77312 27.9422 8.70988 27.736C9.46234 27.5704 10.3832 27.9117 10.9596 28.5696C11.2456 28.8962 11.6269 29.2349 11.8068 29.3223C11.9867 29.4097 12.348 29.9103 12.6097 30.4348C13.0789 31.3752 13.0855 31.4237 13.0855 33.9312C13.0855 36.7718 12.8841 37.8458 11.983 39.8116C11.3336 41.2284 9.61001 43.768 8.28274 45.2633L7.25271 46.4238L7.35406 47.396C7.40989 47.9306 7.49126 48.4037 7.53488 48.4476C7.72538 48.6383 9.2747 47.7099 10.129 46.8926C10.927 46.1296 11.088 45.8774 11.2445 45.1457C11.9008 42.0793 14.0832 40.2577 15.8254 41.322C16.1111 41.4965 16.5209 41.6393 16.7361 41.6393C16.9557 41.6393 17.2144 41.7788 17.3255 41.9571C17.4345 42.1319 17.6072 42.275 17.7094 42.275C18.0062 42.275 18.7163 43.2187 18.7163 43.6132C18.7163 43.8113 18.584 44.3601 18.4222 44.8326C18.0729 45.8528 17.8509 47.2022 18.0325 47.2008C18.1032 47.2002 18.2828 46.9856 18.4312 46.724C18.853 45.9813 19.5401 46.0618 20.5827 46.9758C21.5981 47.8658 21.645 48.2802 20.8869 49.6651C20.4691 50.4285 20.2161 50.6936 19.6188 50.9938C18.5865 51.5125 17.8956 51.3717 17.0508 50.4708L16.4164 49.7942L15.9405 50.0865C15.232 50.5216 14.1382 50.4728 13.4037 49.9735L12.8054 49.5665L12.1943 50.0587C11.1465 50.9023 9.71057 51.4933 8.72368 51.4871C8.24388 51.4841 7.70269 51.3948 7.52092 51.2886C7.04493 51.0105 6.3445 50.4309 6.3445 50.315C6.3445 50.2607 6.01886 49.9034 5.62075 49.5212L4.897 48.8263L3.99497 49.6431C1.75933 51.6672 1.46653 51.8565 0.702018 51.7702L0 51.6909V55.8034C0 58.4393 0.0569419 59.916 0.158612 59.916C0.245849 59.916 0.317225 60.0559 0.317225 60.2267C0.317225 60.8051 1.07333 62.6288 1.8472 63.9166C2.77286 65.4574 4.50079 67.1412 6.00697 67.9705C6.58511 68.2889 7.45082 68.779 7.93062 69.0598C8.41042 69.3405 9.55243 70.0048 10.4684 70.5361C11.3844 71.0674 12.455 71.6885 12.8476 71.9164C13.2402 72.1442 14.3108 72.7633 15.2268 73.2921C16.1428 73.8209 17.3562 74.5216 17.9232 74.849C18.4902 75.1765 19.7393 75.895 20.6989 76.4457C21.6585 76.9964 23.086 77.8209 23.8712 78.2778C24.6563 78.7349 25.9054 79.4509 26.6469 79.8689C27.3884 80.287 28.2449 80.788 28.5502 80.982C29.1983 81.394 32.4221 83.2321 33.4859 83.7962C33.8888 84.0099 34.5491 84.2825 34.9531 84.402C35.3572 84.5215 35.6878 84.6752 35.6878 84.7435C35.6878 84.8119 36.9012 84.8678 38.3842 84.8678C40.0761 84.8678 41.0806 84.8085 41.0806 84.7089C41.0806 84.6215 41.1829 84.5499 41.3081 84.5499C41.7534 84.5499 43.5727 83.6654 45.839 82.3472C47.1039 81.6114 48.6742 80.7063 49.3285 80.3358C49.9827 79.9652 51.1604 79.2845 51.9456 78.8231C52.7307 78.3616 53.837 77.7221 54.404 77.4018C55.885 76.5655 58.5143 75.0514 60.352 73.9768C61.2244 73.4668 62.4021 72.7881 62.9691 72.4688C63.5362 72.1497 64.6425 71.5091 65.4276 71.0455C67.2348 69.9781 68.7204 69.1269 70.3971 68.1975C72.1902 67.2037 73.9456 65.5431 74.9212 63.9179C75.6952 62.6283 76.4512 60.8046 76.4512 60.2267C76.4512 60.0559 76.5225 59.916 76.6098 59.916C76.7146 59.916 76.7684 53.9828 76.7684 42.4339C76.7684 30.885 76.7146 24.9518 76.6098 24.9518C76.5225 24.9518 76.4512 24.8119 76.4512 24.6411C76.4512 24.0632 75.6952 22.2395 74.9212 20.95C73.9456 19.3248 72.1902 17.6641 70.3971 16.6703C68.7204 15.7409 67.2348 14.8897 65.4276 13.8223C64.6425 13.3587 63.5362 12.7181 62.9691 12.399C62.4021 12.0797 61.2244 11.4018 60.352 10.8928C59.4796 10.3836 57.7666 9.39617 56.5453 8.69863C55.324 8.00094 53.6824 7.0542 52.8972 6.59458C52.1121 6.13512 50.863 5.41692 50.1215 4.99894C49.38 4.5808 48.5235 4.07985 48.2182 3.8858C47.5701 3.47386 44.3463 1.63569 43.2825 1.07165C42.8796 0.857896 42.2193 0.585334 41.8153 0.465819C41.4112 0.346305 41.0806 0.192621 41.0806 0.124282C41.0806 0.0559428 39.8672 0 38.3842 0C36.6923 0 35.6878 0.0592803 35.6878 0.158928ZM67.1898 18.6828C67.2867 18.8092 67.4472 18.9125 67.5467 18.9125C67.6461 18.9125 67.7324 19.002 67.7384 19.1112C67.7445 19.2205 67.7768 19.521 67.8103 19.7793C67.894 20.4226 67.4632 21.668 67.0093 22.0952C66.4291 22.6414 65.6224 22.427 65.0926 21.586C64.7443 21.0331 64.6999 20.8292 64.7924 20.2031C64.9043 19.4436 65.2406 18.9125 65.6095 18.9125C65.7261 18.9125 65.9112 18.7668 66.0211 18.5884C66.2449 18.2251 66.8781 18.2763 67.1898 18.6828ZM62.6879 19.9082C62.7601 20.0161 62.7832 20.301 62.7394 20.5415C62.6743 20.8996 62.7174 20.9786 62.978 20.9786C63.4183 20.9786 63.5168 21.3458 63.2922 22.1495C63.0952 22.8549 62.5145 23.3625 61.9051 23.3625C61.4777 23.3625 60.6432 22.427 60.5117 21.8005C60.326 20.9158 60.5449 20.2076 61.114 19.8522C61.6539 19.5153 62.4441 19.5434 62.6879 19.9082ZM71.6595 19.9679C71.8593 20.0215 72.1269 20.2674 72.2543 20.514C72.6632 21.3064 72.4679 23.0446 71.9699 23.0446C71.8563 23.0446 71.6454 23.1697 71.5014 23.3228C70.9121 23.9481 70.7421 24.0177 70.057 23.9149C69.5044 23.8318 69.341 23.7261 69.1712 23.3414C68.8681 22.6556 69.067 21.6403 69.6348 20.9746C69.894 20.6709 70.106 20.3686 70.1064 20.3031C70.1065 20.2376 70.2451 20.1839 70.4145 20.1839C70.5839 20.1839 70.7665 20.1124 70.8204 20.025C70.9326 19.8433 71.1421 19.829 71.6595 19.9679ZM52.005 20.3244C53.4092 20.7623 54.1833 21.2753 55.5984 22.7053C56.2938 23.4079 57.0955 24.2086 57.3804 24.4847C58.1647 25.2447 58.9791 27.0835 59.1981 28.5895C59.3791 29.8337 59.2497 31.6703 58.9253 32.4611C58.8323 32.6878 58.8952 32.7393 59.2649 32.7393C59.5144 32.7393 60.1978 32.8766 60.7838 33.0444C62.7007 33.5938 64.3785 34.6993 65.6773 36.2687C66.1323 36.8186 66.617 37.2948 66.7542 37.3269C67.3735 37.4709 68.6796 39.5629 69.2486 41.3214C69.5005 42.0995 69.5384 43.0588 69.5953 50.0625C69.6397 55.5357 69.6047 58.1761 69.4803 58.7398C69.1147 60.3973 67.216 61.3369 65.6208 60.6498C65.0507 60.4043 63.7622 59.3361 63.7622 59.109C63.7622 59.0284 63.4738 58.6735 63.1214 58.3204C62.7689 57.9673 62.4121 57.4978 62.3283 57.277C62.2446 57.0563 62.1761 55.4842 62.1761 53.7835V50.6914L59.1228 50.7344L56.0695 50.7776L55.9902 54.9098C55.9153 58.8108 55.8918 59.0686 55.5711 59.5187C55.0368 60.2685 54.6926 60.5182 53.9003 60.7305C52.6606 61.0627 52.0385 60.7712 50.335 59.0594C49.2058 57.9247 48.8428 57.4498 48.7011 56.9226C48.572 56.4427 48.534 53.9631 48.5706 48.4255C48.6261 40.0527 48.5969 40.3968 49.4368 38.2037C49.5064 38.0219 49.0518 37.9839 46.8076 37.9839H44.0942V42.116C44.0942 45.3178 44.0497 46.2474 43.896 46.2445C43.512 46.2374 42.1909 44.8174 42.1909 44.4118C42.1909 44.198 42.1282 44.0232 42.0515 44.0232C41.9749 44.0232 41.8196 43.7991 41.7063 43.5253C41.4162 42.8236 40.7865 42.116 40.4522 42.116C39.6323 42.116 37.4335 40.6367 37.4328 40.0848C37.4327 39.9727 37.3255 39.8399 37.1946 39.7897C37.0078 39.7178 36.9567 39.3944 36.9567 38.2848V36.8714H33.0942C29.3492 36.8714 29.2156 36.8824 28.7087 37.229C27.9767 37.7298 27.5794 38.5371 27.6336 39.4143L27.6779 40.1294L31.6432 40.3265C37.3435 40.6099 37.7721 40.7569 40.377 43.3225C42.9613 45.8677 43.5196 47.0509 43.5204 49.983C43.5207 51.6812 43.4734 52.012 43.089 53.0027C42.2477 55.1696 40.6735 56.9344 38.7328 57.8856L37.6704 58.4062L31.2466 58.4545C27.7135 58.4811 24.6087 58.4628 24.347 58.4142C23.8099 58.314 22.0471 56.9514 22.0471 56.6362C22.0471 56.5232 21.9021 56.353 21.725 56.258C21.5476 56.1629 21.1908 55.7922 20.9319 55.4339C20.5362 54.8866 20.461 54.6326 20.461 53.8424C20.461 53.3254 20.5411 52.7461 20.639 52.5551C20.8693 52.1061 21.563 51.3576 21.9678 51.1216C22.1884 50.993 24.246 50.9124 28.7215 50.8571L35.158 50.7776L35.7569 50.3196C36.4096 49.8206 36.7981 49.0743 36.7981 48.3193C36.7981 47.9665 36.7238 47.8375 36.5205 47.8372C36.3678 47.837 34.3158 47.7281 31.9604 47.5949C28.9951 47.4274 27.4339 47.2731 26.8848 47.0931C26.2224 46.8758 25.7466 46.4885 23.9968 44.742C22.1017 42.8506 21.8368 42.5154 21.2214 41.2313C20.5655 39.8629 20.5389 39.7475 20.4845 38.0419C20.4421 36.7149 20.4949 36.041 20.6959 35.3484C21.4038 32.9087 22.9507 30.9766 25.032 29.9332L26.2503 29.3223H31.1941H36.1379L36.5373 29.6982L36.9365 30.074L36.9863 26.0428C37.0431 21.434 37.0763 21.2988 38.3447 20.4927L39.0808 20.025H45.0629C50.4766 20.025 51.1362 20.0534 52.005 20.3244ZM67.49 23.5219C67.6755 23.6964 67.9838 23.8393 68.1754 23.8393C68.3669 23.8393 68.7453 24.0516 69.0164 24.3113C69.2874 24.5708 69.6362 24.8235 69.7915 24.8729C70.0602 24.9584 70.5825 26.2141 70.5825 26.7748C70.5825 26.9144 70.7567 27.3727 70.9695 27.7936C71.318 28.4827 71.3377 28.6222 71.1678 29.198C70.9752 29.8503 69.8366 30.9911 69.3779 30.9911C69.2552 30.9911 69.155 31.0848 69.155 31.1996C69.155 31.5036 68.2232 32.1452 67.9399 32.0363C67.7895 31.9785 67.6702 32.0503 67.6242 32.2264C67.5752 32.4146 67.2777 32.5745 66.7374 32.703C66.0297 32.8715 65.8514 32.8607 65.3588 32.6193C64.9047 32.3966 64.7946 32.2533 64.8005 31.892C64.807 31.4882 64.787 31.4705 64.6047 31.7204C64.4219 31.9708 64.3739 31.9745 64.1216 31.7561C63.9676 31.623 63.4489 31.3811 62.9691 31.2188C61.708 30.7924 61.1795 30.3971 61.2658 29.9448C61.3043 29.7424 61.2555 29.5456 61.157 29.5078C61.0585 29.47 60.8461 28.9298 60.6851 28.3074C60.3078 26.8499 60.391 25.4975 60.8827 25.0986C61.0707 24.9461 61.2244 24.7588 61.2244 24.6824C61.2244 24.4805 62.0926 23.9982 62.456 23.9982C62.6267 23.9982 63.0216 23.8247 63.3336 23.6123C64.0374 23.1339 64.4778 23.0548 65.9731 23.1386C66.8719 23.1888 67.2333 23.2802 67.49 23.5219ZM74.7949 25.1822C75.0143 26.0903 74.5845 27.0449 73.9346 27.0929C73.763 27.1054 73.5103 27.2092 73.3731 27.3233C73.0334 27.6057 72.0958 27.4147 71.6922 26.9805C71.1903 26.4408 71.2837 25.7525 71.9524 25.0625C72.3536 24.6487 72.6185 24.4958 72.8216 24.5603C72.9823 24.6115 73.2358 24.585 73.3847 24.5014C73.7502 24.2965 74.6907 24.7506 74.7949 25.1822ZM44.2 26.9649C44.1418 27.0231 44.0942 27.9171 44.0942 28.9515V30.8321H46.939C48.569 30.8321 49.9743 30.7598 50.2302 30.6625C51.2446 30.2775 52.0152 29.0669 52.0214 27.8482C52.0244 27.2637 51.9681 27.1472 51.618 27.0139C51.1665 26.8419 44.3675 26.7969 44.2 26.9649ZM9.36019 32.6201C8.60789 34.2995 7.37262 39.5438 7.66129 39.833C7.79548 39.9675 9.15178 37.4478 9.56449 36.2972C9.78749 35.6755 10.0343 34.6742 10.113 34.0722C10.2644 32.9114 10.2007 31.4678 9.99781 31.4678C9.93104 31.4678 9.64411 31.9863 9.36019 32.6201ZM58.2306 41.1051C56.925 41.5868 55.9938 42.8845 55.9911 44.2253L55.9902 44.6657L59.0435 44.6227L62.0967 44.5794V42.9584C62.0967 41.9315 62.0287 41.269 61.911 41.1512C61.6006 40.8403 59.0351 40.8082 58.2306 41.1051Z" fill="#EB641A"/>
<path fill-rule="evenodd" clip-rule="evenodd" d="M97.501 35.7242C95.6214 38.7174 97.0253 42.0098 100.491 42.7334C103.339 43.3274 103.479 43.8591 101.722 47.4039C99.4212 52.045 95.1448 49.3129 96.6772 44.1807C97.186 42.4766 95.9545 39.7108 95.0885 40.6135C94.0525 41.6951 93.7434 47.8319 94.6078 50.1706C95.3255 52.1124 95.9984 52.5482 98.2792 52.5482C101.473 52.5482 103.498 50.6461 104.93 46.2998C106.427 41.7582 107.579 42.5095 107.266 47.8232C106.941 53.3427 108.297 54.2013 109.568 49.2792C110.032 47.4817 111 45.2442 111.721 44.3078C112.947 42.7135 113.008 42.8942 112.685 47.1705C112.342 51.7208 113.296 53.8399 114.668 51.5781C115.067 50.9228 115.398 48.3316 115.405 45.8208C115.418 40.9844 114.045 39.2682 111.751 41.2541C110.958 41.9406 110.424 41.9717 110.056 41.351C109.761 40.8521 108.835 40.444 108 40.444C107.035 40.444 106.273 39.5786 105.91 38.0716C105.088 34.6548 103.931 33.5273 101.247 33.5273C99.6275 33.5273 98.4457 34.2207 97.501 35.7242ZM149.115 34.168C148.897 34.5363 148.456 36.2975 148.134 38.0828C147.813 39.8673 147.314 41.4798 147.024 41.6657C146.733 41.8524 146.621 44.3476 146.773 47.212C147.078 52.9312 147.978 53.9324 151.23 52.1721C152.894 51.2712 153.544 51.2781 154.762 52.2067C155.72 52.9372 156.742 53.0738 157.613 52.5879C158.387 52.1556 159.525 52.1548 160.262 52.5845C160.973 52.9995 162.624 53.041 163.93 52.677C165.724 52.1764 166.486 51.2859 167.042 49.0388C168.626 42.6409 171.067 42.1282 170.362 48.342C169.957 51.9058 170.084 52.7029 171.008 52.3813C172.401 51.8971 173.758 45.3842 173.067 42.5104C172.571 40.4475 169.876 39.614 168.92 41.2273C168.665 41.6579 167.71 41.8075 166.799 41.5585C165.462 41.1945 165.143 41.5325 165.143 43.3127C165.143 46.2739 163.741 49.9544 162.614 49.9544C162.046 49.9544 161.793 48.4137 161.944 45.858C162.166 42.0928 162.005 41.6959 159.96 40.9455C157.448 40.0238 154.836 41.8075 153.877 45.0972C153.251 47.25 151.117 49.9544 150.047 49.9544C149.634 49.9544 149.412 48.4959 149.554 46.7122C149.76 44.1081 150.178 43.4156 151.675 43.1934C153.904 42.864 154.144 41.3112 152.055 40.7414C150.914 40.4302 150.644 39.6719 150.891 37.4664C151.189 34.8052 150.021 32.6377 149.115 34.168ZM177.615 35.1752C177.137 36.1081 176.745 37.6108 176.745 38.5143C176.745 39.4169 176.483 40.4284 176.164 40.7622C175.415 41.5429 174.997 48.0774 175.534 50.6029C175.818 51.9386 176.551 52.5482 177.875 52.5482C180.292 52.5482 182.925 49.6371 182.226 47.7376C181.776 46.5151 181.489 46.599 180.125 48.3541C178.108 50.9487 177.314 50.1152 178.027 46.152C178.435 43.8816 179.011 43.0378 180.152 43.0378C181.013 43.0378 181.717 42.4542 181.717 41.7409C181.717 41.0276 181.117 40.444 180.382 40.444C179.311 40.444 179.152 39.8596 179.579 37.4854C180.186 34.1101 178.924 32.6247 177.615 35.1752ZM195.398 34.3816C194.711 35.5418 197.228 38.7148 198.835 38.7148C200.497 38.7148 200.189 37.5217 197.965 35.3421C196.613 34.0158 195.795 33.7106 195.398 34.3816ZM295.793 36.7367C295.002 41.7322 295.157 48.2253 296.069 48.2253C297.165 48.2253 297.774 45.3635 297.983 39.2388C298.182 33.3856 296.609 31.5872 295.793 36.7367ZM244.682 36.6096C244.237 37.8295 243.874 39.3209 243.874 39.9235C243.874 41.6613 242.88 42.2415 241.682 41.204C241.06 40.6662 239.943 40.5408 239.119 40.9161C238.315 41.2818 237.192 41.5031 236.622 41.4072C236.027 41.3069 235.586 42.1446 235.586 43.3758C235.586 46.3387 234.167 49.9544 233.005 49.9544C232.336 49.9544 232.189 48.6463 232.525 45.6894C233.004 41.4659 232.983 41.4193 230.406 40.8287C228.224 40.329 227.493 40.6074 225.893 42.5475C222.025 47.2379 224.327 55.1324 228.829 52.6191C229.813 52.0692 230.645 52.0623 231.16 52.5992C231.6 53.0583 233.152 53.1854 234.609 52.8819C236.923 52.3986 237.323 51.8989 237.78 48.9221C238.333 45.309 239.909 43.0378 241.861 43.0378C242.744 43.0378 243.045 44.2516 243.045 47.8198C243.045 53.0712 244.098 54.2739 247.189 52.5482C248.171 51.9992 249.599 51.8383 250.361 52.1894C252.527 53.1888 259.549 53.3669 260.1 52.4366C260.408 51.917 261.036 51.9801 261.755 52.6026C262.392 53.1551 263.478 53.3808 264.167 53.1041C265.494 52.5732 265.87 54.6431 264.918 57.2325C264.197 59.1916 262.106 58.9227 262.106 56.8711C262.106 55.9105 261.553 55.1419 260.863 55.1419C259.587 55.1419 259.23 57.3993 260.123 59.8262C260.926 62.011 265.158 61.5528 266.687 59.1164C267.725 57.465 270.02 42.2726 269.324 41.6631C269.228 41.5792 267.95 41.242 266.482 40.9143C264.082 40.3783 263.643 40.6074 262.133 43.1908C261.21 44.7712 260.454 46.6967 260.452 47.4713C260.45 48.2451 259.858 49.3898 259.136 50.0149C257.961 51.0317 257.848 50.6573 258.062 46.4529C258.286 42.0426 258.165 41.7046 256.084 40.942C253.584 40.0238 250.969 41.8135 250.012 45.0972C249.386 47.25 247.252 49.9544 246.182 49.9544C245.769 49.9544 245.547 48.4959 245.689 46.7122C245.895 44.1081 246.313 43.4156 247.81 43.1934C250.039 42.864 250.279 41.3112 248.19 40.7414C247.036 40.4267 246.779 39.6737 247.037 37.3644C247.434 33.823 245.879 33.325 244.682 36.6096ZM103.312 37.4889C104.195 39.8881 103.862 40.5711 101.951 40.2884C99.4759 39.9209 98.7756 36.1211 101.182 36.1211C102.077 36.1211 103.035 36.7367 103.312 37.4889ZM127.081 42.7222C123.423 47.5734 125.854 55.0503 130.285 52.5758C131.354 51.9793 132.064 51.9689 132.405 52.5456C133.431 54.2773 136.107 53.3859 137.338 50.9029C138.445 48.6688 138.444 48.3385 137.327 47.8915C136.625 47.6105 135.866 47.9538 135.602 48.6722C135.342 49.3777 134.745 49.9544 134.275 49.9544C133.738 49.9544 133.598 48.3783 133.9 45.7188C134.336 41.8809 134.21 41.4357 132.565 40.9757C129.549 40.1319 128.87 40.348 127.081 42.7222ZM193.366 42.1248C192.48 43.0499 191.499 45.226 191.188 46.9612C190.727 49.5247 190.952 50.4628 192.393 51.9663C193.882 53.5182 194.427 53.647 195.777 52.7678C196.792 52.1072 197.572 52.032 197.889 52.5655C198.829 54.1528 201.566 53.4188 202.955 51.2072C204.038 49.4815 204.122 48.7751 203.336 47.965C202.556 47.1584 202.149 47.2682 201.505 48.4596C200.12 51.0213 198.956 49.2066 199.567 45.4361C199.973 42.9314 199.816 41.7513 199.004 41.2152C197.165 39.9987 195.082 40.3351 193.366 42.1248ZM213.65 44.2888C211.744 59.4406 211.722 59.8954 212.833 61.1127C214.085 62.4848 214.069 62.5384 215.544 52.2888C216.352 46.6759 217.532 43.9023 219.112 43.9023C220.588 43.9023 219.852 49.0674 218.225 50.1273C217.002 50.9236 216.831 51.4588 217.52 52.3251C218.259 53.2554 218.797 53.111 220.379 51.5617C221.824 50.1455 222.326 48.7155 222.326 46.0188C222.326 41.6657 221.264 40.5676 217.173 40.6921C214.215 40.7812 214.074 40.9256 213.65 44.2888ZM274.032 41.1054C273.525 41.4547 272.501 42.9833 271.755 44.5024C269.204 49.6968 273.481 54.9802 278.359 52.6614C279.932 51.9136 280.823 51.8911 281.616 52.5776C282.482 53.328 282.825 52.7055 283.277 49.561C283.675 46.7935 284.485 45.0747 285.964 43.8608C287.485 42.6133 287.828 41.8593 287.182 41.1858C286.663 40.6437 285.818 40.5538 285.176 40.9731C284.567 41.3717 283.415 41.5861 282.618 41.4487C281.437 41.2463 281.167 41.8481 281.167 44.6926C281.167 47.4454 280.737 48.4794 279.136 49.574C277.856 50.449 276.426 50.7377 275.268 50.3547C273.522 49.7763 273.559 49.6907 276.028 48.6083C278.963 47.32 280.317 43.7977 278.672 41.7296C277.576 40.3506 275.524 40.0748 274.032 41.1054ZM130.36 47.7247C129.913 48.9506 129.165 49.9544 128.698 49.9544C127.514 49.9544 127.633 45.3384 128.849 44.0692C130.349 42.5043 131.366 44.964 130.36 47.7247ZM158.537 47.7247C158.091 48.9506 157.342 49.9544 156.876 49.9544C155.692 49.9544 155.81 45.3384 157.027 44.0692C158.527 42.5043 159.544 44.964 158.537 47.7247ZM196.635 45.9583C196.635 49.0302 194.746 51.662 193.749 49.9795C193.065 48.8244 194.833 43.0378 195.871 43.0378C196.291 43.0378 196.635 44.3519 196.635 45.9583ZM229.153 46.9578C228.944 48.1016 228.254 49.4858 227.621 50.034C226.677 50.8519 226.47 50.4991 226.47 48.0714C226.47 44.9087 228.039 42.353 228.992 43.9629C229.29 44.4669 229.363 45.8139 229.153 46.9578ZM253.466 49.8291C252.279 51.0671 252.161 50.915 252.161 48.1509C252.161 46.4797 252.628 44.6217 253.197 44.0208C254.028 43.145 254.286 43.477 254.501 45.6989C254.665 47.3866 254.26 48.9999 253.466 49.8291ZM266.25 45.9497C266.25 47.0192 265.717 48.6498 265.066 49.5731C263.956 51.1467 263.846 51.1562 263.314 49.7227C262.645 47.9227 264.452 42.845 265.517 43.5323C265.92 43.7917 266.25 44.8793 266.25 45.9497ZM277.024 43.7294C277.024 44.639 275.224 46.4961 274.343 46.4961C273.961 46.4961 274.049 45.718 274.537 44.7669C275.413 43.0594 277.024 42.3876 277.024 43.7294ZM294.071 50.7213C293.821 51.1424 294.122 51.9257 294.741 52.4608C295.585 53.1923 296.096 53.143 296.797 52.2629C297.309 51.6187 297.483 50.8363 297.183 50.5233C296.401 49.708 294.604 49.8221 294.071 50.7213Z" fill="white"/>
</svg>
