<svg width="683" height="201" viewBox="0 0 683 201" fill="none" xmlns="http://www.w3.org/2000/svg">
<path fill-rule="evenodd" clip-rule="evenodd" d="M117.79 0.116026C114.422 0.354168 108.184 1.32227 105.057 2.09163C101.616 2.93795 94.1924 5.37249 92.8676 6.08908C91.0793 7.05574 91.0963 6.98961 92.0256 9.37031C93.1572 12.2688 93.301 12.6089 94.5829 15.4268C95.1705 16.7187 96.4166 19.8084 97.3521 22.2928C98.2876 24.7773 99.442 27.623 99.9173 28.6168C101.361 31.6346 103.997 38.2978 104.256 39.5843C104.39 40.2503 104.977 41.5028 105.56 42.3683C106.684 44.0342 106.966 44.0815 108.76 42.9028C109.257 42.5764 110.354 42.0091 111.198 41.642C113.074 40.826 113.172 40.0555 111.716 37.5766C111.156 36.6236 110.408 34.9498 110.055 33.8566C109.387 31.7939 108.677 30.1063 107.33 27.3809C106.896 26.5024 106.15 24.7454 105.673 23.4763C105.195 22.2076 104.571 20.731 104.286 20.1951C102.558 16.946 101.957 14.6705 102.679 14.1046C102.944 13.8964 104.624 13.3714 106.412 12.9381C108.2 12.5045 110.313 11.9826 111.108 11.7777C113.719 11.1052 125.179 10.832 129.484 11.3398C134.036 11.8764 138.817 12.8116 139.091 13.2189C139.263 13.4747 140.392 13.8347 143.675 14.681C144.304 14.8429 145.861 15.4836 147.135 16.1048C148.409 16.7256 149.578 17.2337 149.732 17.2337C149.886 17.2337 150.495 17.6402 151.085 18.1371C151.675 18.634 152.544 19.0405 153.015 19.0405C153.485 19.0405 154.944 19.8536 156.257 20.8474C157.569 21.8411 158.796 22.6542 158.984 22.6542C159.171 22.6542 159.935 23.1999 160.68 23.867C161.426 24.5337 162.401 25.2712 162.848 25.5058C164.389 26.3134 163.915 27.6375 161.09 30.4236C159.679 31.8149 158.177 33.3373 157.752 33.8064C156.642 35.0318 149.898 41.7392 148.061 43.4452C147.205 44.2395 145.833 45.6188 145.012 46.5099C144.191 47.4014 143.356 48.2933 143.155 48.4921C141.463 50.1677 139.1 52.8238 139.1 53.0507C139.1 53.205 138.661 53.5433 138.125 53.8024C137.589 54.0618 136.831 54.8221 136.441 55.4921C135.747 56.6843 135.746 56.7363 136.403 57.9563C136.772 58.6414 137.4 59.3768 137.798 59.5904C138.197 59.8036 140.319 61.8569 142.514 64.1534C145.828 67.6207 147.79 69.5985 150.025 71.7244C150.732 72.3966 153.36 75.0349 154.729 76.4464C156.885 78.6688 162.584 84.3474 164.444 86.126C165.305 86.9492 166.546 88.291 167.203 89.1073C167.86 89.9237 168.632 90.5915 168.919 90.5915C169.205 90.5915 169.44 90.7581 169.44 90.9619C169.44 91.2633 176.826 98.7024 179.305 100.898C179.665 101.216 179.909 101.787 179.846 102.166C179.737 102.839 178.734 102.862 140.725 103.09C119.271 103.218 100.813 103.297 99.7074 103.265C98.6026 103.232 97.2257 103.386 96.6482 103.605C95.5108 104.038 92.5064 106.892 92.5064 107.54C92.5064 107.758 92.381 107.937 92.2279 107.937C91.8104 107.937 87.0885 112.603 87.0885 113.016C87.0885 113.212 86.6822 113.558 86.1855 113.785C85.6889 114.011 85.2825 114.333 85.2825 114.499C85.2825 114.932 83.1139 117.084 81.9415 117.815C81.3954 118.155 80.9482 118.598 80.9482 118.798C80.9482 118.999 80.3848 119.728 79.696 120.416C78.2635 121.85 76.6631 122.116 76.3636 120.971C76.2632 120.586 75.5668 119.866 74.8159 119.369C74.0654 118.871 72.9843 117.705 72.414 116.777C71.8433 115.848 70.9346 114.599 70.3942 114C69.8542 113.402 69.3038 112.565 69.1716 112.141C69.0398 111.717 68.4871 110.86 67.9439 110.237C67.401 109.614 66.5161 107.951 65.9779 106.542C65.4398 105.133 64.6058 103.399 64.1247 102.69C63.6435 101.981 63.2498 101.231 63.2498 101.023C63.2498 100.816 62.7799 99.63 62.2056 98.3887C61.631 97.147 60.9642 95.1693 60.7237 93.9938C60.4831 92.8182 60.1544 91.531 59.9933 91.1335C59.8323 90.736 59.5144 89.1099 59.2865 87.5198C59.0589 85.9298 58.6967 83.5881 58.4818 82.3158C57.9371 79.0924 58.3514 68.9213 59.2197 64.2116C59.9926 60.0179 60.4484 58.1782 61.4764 55.0986C61.856 53.9617 62.1652 52.9047 62.1634 52.7497C62.1587 52.2644 59.3595 50.8409 58.4106 50.8409C57.9132 50.8409 57.3769 50.6191 57.218 50.3477C56.4302 49.003 52.192 48.0277 51.2464 48.9738C51.0156 49.2047 50.7187 50.4344 50.5872 51.7057C50.4557 52.977 50.0165 54.7257 49.6116 55.5911C49.2064 56.4566 48.7 58.3032 48.4861 59.6945C48.2723 61.0857 47.853 63.2811 47.5535 64.5729C47.1682 66.2385 47.0071 69.0243 47.0002 74.1492C46.9872 83.7945 47.6012 88.7781 49.9399 97.9995C50.1415 98.7945 50.7808 100.462 51.3601 101.705C51.9399 102.947 52.4148 104.086 52.4152 104.234C52.4181 104.794 54.638 109.931 55.105 110.458C55.3733 110.761 55.8617 111.659 56.1896 112.454C56.518 113.249 57.1667 114.306 57.6308 114.803C58.0949 115.3 58.8328 116.421 59.2702 117.293C59.7076 118.166 60.3899 119.223 60.7862 119.642C61.1824 120.061 61.8412 121.055 62.2497 121.85C62.6582 122.645 63.295 123.509 63.6649 123.769C65.1486 124.814 68.6677 129.3 68.6677 130.146C68.6677 130.732 67.8995 131.796 66.32 133.4C65.0287 134.711 63.9722 135.866 63.9722 135.966C63.9722 136.259 59.4974 140.723 59.0571 140.869C58.8368 140.942 57.6247 142.204 56.3634 143.672C55.1021 145.14 53.5378 146.564 52.8873 146.836C52.0977 147.166 51.6238 147.661 51.462 148.322C51.3284 148.868 51.0651 149.415 50.8769 149.539C50.6887 149.662 51.4042 149.859 52.4676 149.976C55.062 150.262 133.913 150.63 185.829 150.6L227.681 150.575L229.401 149.312C230.346 148.617 231.301 148.049 231.523 148.049C231.745 148.049 231.926 147.916 231.926 147.753C231.926 147.508 233.312 146.053 237.666 141.725C240.239 139.168 242.762 136.388 242.762 136.111C242.762 135.919 242.92 135.763 243.113 135.763C243.306 135.763 246.76 132.451 250.788 128.402C254.817 124.354 258.479 120.852 258.925 120.62C259.372 120.388 259.738 120.018 259.738 119.798C259.738 119.578 262.63 116.511 266.165 112.982C269.7 109.453 273.049 105.905 273.609 105.097L274.625 103.629L273.774 102.505C272.552 100.894 260.88 89.146 260.5 89.146C260.325 89.146 259.934 88.7666 259.63 88.3026C258.785 87.0128 251.179 79.389 250.736 79.389C250.522 79.389 250.347 79.2192 250.347 79.0118C250.347 78.6992 245.046 73.287 239.831 68.2762C239.159 67.6301 238.202 66.5915 237.705 65.9682C237.209 65.3452 236.171 64.2477 235.4 63.5297C231.335 59.7443 230.797 59.121 230.909 58.3296L231.023 57.5263L272.019 57.441C294.566 57.394 313.526 57.2679 314.153 57.1602C314.779 57.0525 315.536 56.6033 315.834 56.1614C316.446 55.2554 351.921 19.5728 352.422 19.3589C352.6 19.283 353.21 18.6521 353.779 17.9564C354.347 17.2608 356.013 15.4388 357.481 13.9077C358.948 12.3762 360.149 10.9307 360.149 10.6951C360.149 9.36778 361.338 9.38404 272.953 9.5145C225.656 9.5846 185.783 9.73746 184.347 9.85418L181.736 10.0667L177.974 13.8307C174.573 17.233 174.084 17.5951 172.894 17.5951C171.831 17.5951 171.241 17.2814 169.839 15.9689C168.883 15.0745 167.984 14.3427 167.841 14.3427C167.697 14.3427 166.388 13.4451 164.931 12.348C163.474 11.2505 161.739 10.1664 161.075 9.93874C160.411 9.71108 159.381 9.16433 158.785 8.72346C158.189 8.28259 157.303 7.80052 156.815 7.65164C156.328 7.50312 155.707 7.1591 155.435 6.88699C155.163 6.61524 154.668 6.39191 154.335 6.39119C154.001 6.39047 153.167 6.04753 152.481 5.62906C150.814 4.61217 146.834 3.24259 143.073 2.39084C141.385 2.00851 139.272 1.53042 138.378 1.32842C134.108 0.363563 123.294 -0.273168 117.79 0.116026ZM175.761 22.2126C176.158 22.7496 177.158 23.8727 177.982 24.7089C178.806 25.5455 179.538 26.36 179.607 26.5198C179.677 26.6795 181.319 28.2655 183.256 30.0442C185.193 31.8232 186.777 33.4898 186.777 33.7482C186.777 34.0066 186.949 34.218 187.159 34.218C187.663 34.218 191.982 38.5548 192.295 39.3758C192.43 39.7281 192.828 40.1199 193.18 40.2463C194.058 40.5615 200.119 46.5746 200.131 47.1423C200.137 47.3935 200.642 47.9041 201.255 48.2767C201.867 48.6493 202.767 49.5411 203.255 50.2588C203.742 50.9765 204.293 51.5637 204.48 51.5637C204.808 51.5637 208.066 54.7423 211.97 58.8709C213.014 59.9738 214.273 61.1428 214.77 61.4681C215.266 61.7937 215.673 62.2945 215.673 62.5811C215.673 62.8677 216.038 63.293 216.485 63.5268C217.518 64.0663 229.198 75.8176 229.51 76.6304C229.638 76.9643 229.996 77.3343 230.305 77.4532C231.168 77.7846 233.01 79.4982 233.01 79.9701C233.01 80.201 233.383 80.6347 233.839 80.9335C234.948 81.6606 244.207 90.9658 244.207 91.3536C244.207 91.5216 244.654 91.943 245.2 92.2906C246.717 93.2555 251.792 98.4599 251.792 99.0507C251.792 99.338 252.383 100.06 253.105 100.656C255.434 102.577 254.852 102.823 247.955 102.828C244.4 102.83 241.599 102.675 241.161 102.449C240.046 101.878 238.428 100.278 238.428 99.7471C238.428 99.4909 237.981 99.0012 237.435 98.6594C236.888 98.3175 235.116 96.7282 233.496 95.1277C231.875 93.5272 230.331 92.0022 230.064 91.7392C229.551 91.2333 224.706 86.4209 224.261 85.975C224.117 85.8308 220.273 81.8915 215.718 77.2208C211.163 72.5502 207.174 68.4848 206.853 68.1866C205.397 66.8322 199.454 60.8935 198.129 59.469C197.32 58.5992 196.378 57.6437 196.036 57.3456C194.399 55.9203 175.473 36.5575 174.978 35.803C174.668 35.3288 174.3 34.9407 174.162 34.9407C173.488 34.9407 166.912 27.9627 166.912 27.2479C166.912 26.4641 169.591 23.4308 170.614 23.0557C171.16 22.8555 171.607 22.4721 171.607 22.2032C171.607 20.5388 174.527 20.5453 175.761 22.2126ZM184.61 36.0248C184.61 36.2897 184.719 36.3981 184.851 36.2659C184.983 36.1333 184.983 35.9164 184.851 35.7838C184.719 35.6515 184.61 35.76 184.61 36.0248ZM86.0049 58.6313C86.0049 58.7603 86.7771 59.5402 87.7206 60.3637C88.664 61.1876 91.6048 64.0168 94.2553 66.6504C96.9057 69.2841 99.2419 71.4389 99.447 71.4389C99.6522 71.4389 101.075 72.6994 102.609 74.2396C104.143 75.7797 106.825 78.3411 108.571 79.9311C110.317 81.5211 112.106 83.1567 112.547 83.5657C113.706 84.6397 116.375 85.5656 118.448 85.6129C119.803 85.644 120.804 85.3708 122.538 84.4977C123.8 83.8617 125.119 83.1242 125.468 82.8593C126.918 81.7575 127.698 75.9239 126.757 73.2212C126.524 72.552 125.833 71.4473 125.222 70.7657C123.967 69.3672 119.538 67.1838 117.067 66.7459C116.173 66.5876 114.06 66.0148 112.372 65.4731C110.683 64.9314 108.083 64.2495 106.593 63.9575C105.103 63.6655 103.73 63.2782 103.541 63.0964C103.352 62.9146 102.783 62.7607 102.277 62.7542C101.77 62.7477 100.462 62.4083 99.369 62.0004C98.2764 61.592 96.326 61.0366 95.0347 60.7659C93.7435 60.4956 91.793 59.9594 90.7004 59.5749C88.4217 58.7726 86.0049 58.2873 86.0049 58.6313ZM320.904 103.867C320.383 104.248 318.162 104.347 310.667 104.322C305.402 104.305 296.279 104.298 290.393 104.307L279.692 104.323L276.488 107.563C272.768 111.324 273.114 110.976 268.23 115.887C266.154 117.974 263.029 121.103 261.284 122.839C259.54 124.576 258.005 126.12 257.874 126.272C257.743 126.424 257.119 127.063 256.489 127.692C255.859 128.322 254.937 129.243 254.441 129.74C253.944 130.237 253.047 131.128 252.446 131.719C251.846 132.311 251.087 133.063 250.76 133.389C250.434 133.716 249.778 134.343 249.303 134.783C248.828 135.222 248.097 135.965 247.678 136.433C247.259 136.901 246.591 137.602 246.193 137.99C242.548 141.55 240.234 143.867 240.234 143.954C240.234 144.012 239.48 144.754 238.558 145.602C236.865 147.162 234.975 149.774 235.303 150.102C235.792 150.591 238.22 150.816 239.761 150.515C240.717 150.329 242.268 150.272 243.209 150.389C245.2 150.637 246.344 150.159 248.074 148.354C250.102 146.237 253.359 142.962 255.686 140.699C256.536 139.872 258.272 138.122 259.544 136.809C260.816 135.497 262.395 134.189 263.055 133.904C264.059 133.47 266.827 133.418 280.145 133.581L296.038 133.775L298.115 132.388C299.455 131.493 300.192 130.752 300.192 130.299C300.192 129.913 300.454 129.496 300.776 129.372C301.589 129.06 304.526 126.158 304.526 125.667C304.526 125.446 304.916 125.117 305.393 124.935C305.871 124.753 306.724 123.985 307.289 123.227C307.855 122.47 308.562 121.664 308.86 121.436C309.158 121.209 310.296 120.113 311.388 119.001C314.236 116.103 315.127 115.209 316.37 114.005C316.975 113.418 317.605 112.799 317.77 112.63C319.391 110.968 320.113 110.242 321.583 108.799C322.523 107.877 323.587 106.615 323.949 105.994L324.607 104.866L323.089 104.123C321.787 103.486 321.475 103.45 320.904 103.867ZM330.755 104.664C330.334 104.95 329.909 105.28 329.809 105.395C329.71 105.511 329.182 105.89 328.635 106.237C328.089 106.585 327.642 107.106 327.642 107.394C327.642 107.683 327.195 108.158 326.649 108.451C326.102 108.744 324.843 109.909 323.85 111.041C321.858 113.31 321.2 113.984 316.768 118.293C315.1 119.915 311.944 123.086 309.754 125.34C307.563 127.594 304.77 130.375 303.546 131.52C302.323 132.665 301.219 133.925 301.093 134.32C300.968 134.716 300.74 135.04 300.587 135.04C300.202 135.04 289.356 145.833 289.356 146.216C289.356 146.386 288.952 146.627 288.458 146.751C287.914 146.887 287.475 147.319 287.342 147.848C287.222 148.327 286.894 148.808 286.614 148.915C285.781 149.235 286.03 149.685 287.279 150.119C288.096 150.404 295.013 150.541 310.018 150.57C331.506 150.611 331.585 150.609 332.231 149.852C332.588 149.435 334.516 147.435 336.517 145.409C338.518 143.383 340.497 141.127 340.914 140.396L341.674 139.067L340.564 138.679C339.849 138.43 334.489 138.292 325.493 138.292C311.271 138.292 310.666 138.237 310.666 136.944C310.666 136.679 310.931 136.361 311.255 136.237C311.579 136.112 312.356 135.451 312.982 134.768L314.119 133.526L330.849 133.576L347.578 133.626L348.898 132.621C349.623 132.069 351.377 130.476 352.795 129.082C355.402 126.52 355.705 126.226 357.17 124.839C357.616 124.415 357.982 123.793 357.982 123.455C357.982 123.118 358.224 122.641 358.52 122.395C358.816 122.149 358.969 121.804 358.86 121.628C358.751 121.452 352.874 121.307 345.771 121.305C331.725 121.302 328.043 121.108 327.754 120.354C327.652 120.09 328.013 119.342 328.556 118.693C330.305 116.604 331.124 116.513 348.618 116.469L364.356 116.429L365.836 115.449C366.65 114.91 367.596 114.016 367.938 113.462C368.488 112.572 373.4 107.917 375.022 106.748C375.356 106.508 375.681 105.904 375.745 105.408C375.856 104.547 375.751 104.492 373.513 104.24C372.222 104.095 362.245 104.014 351.343 104.06C334.77 104.129 331.395 104.228 330.755 104.664ZM380.953 105.137C380.316 105.783 379.558 106.636 379.267 107.034C378.763 107.723 375.032 111.258 373.142 112.839C372.651 113.249 369.567 116.401 366.29 119.843C359.225 127.26 355.571 130.904 354.468 131.627C354.025 131.918 353.391 132.683 353.058 133.327C352.356 134.686 351.693 135.285 350.296 135.819C349.743 136.03 349.058 136.654 348.772 137.207C348.486 137.76 347.491 138.921 346.561 139.788C342.81 143.282 337.394 148.989 337.394 149.449C337.394 150.43 340.239 150.569 360.806 150.588C381.71 150.606 381.983 150.597 382.89 149.857C383.395 149.444 384.218 148.845 384.721 148.526C385.224 148.208 386.029 147.427 386.51 146.792C386.992 146.158 388.003 145.194 388.757 144.652C389.511 144.109 390.128 143.486 390.128 143.266C390.128 143.046 390.86 142.165 391.754 141.308C393.466 139.666 393.663 139.241 392.927 138.765C392.679 138.604 385.652 138.391 377.311 138.292C360.355 138.09 360.89 138.191 363.117 135.634C363.915 134.717 364.776 134.164 365.748 133.942C366.542 133.76 374.212 133.608 382.791 133.603C391.65 133.598 398.775 133.447 399.283 133.254C400.42 132.821 409.832 123.409 410.082 122.456C410.231 121.886 410.04 121.695 409.138 121.511C408.516 121.383 401.605 121.245 393.78 121.203C380.687 121.133 379.52 121.077 379.155 120.497C378.823 119.971 379.038 119.584 380.437 118.184L382.118 116.503L398.539 116.58C412.202 116.645 415.164 116.57 416.179 116.134C416.85 115.846 419.633 113.413 422.365 110.727C427.234 105.938 428.075 104.686 426.76 104.181C426.445 104.061 416.271 103.962 404.149 103.962H382.11L380.953 105.137ZM432.026 104.685C431.629 105.082 431.304 105.569 431.304 105.766C431.304 105.964 427.003 110.395 421.746 115.614C416.488 120.832 411.95 125.346 411.661 125.644C411.372 125.942 409.294 128.113 407.043 130.469C404.792 132.824 402.646 135.02 402.275 135.347C401.903 135.675 401.024 136.553 400.32 137.298C399.617 138.044 398.821 138.653 398.551 138.653C398.28 138.653 397.859 139.097 397.615 139.639C397.371 140.18 395.434 142.368 393.31 144.501C391.186 146.633 389.274 148.703 389.062 149.101C388.314 150.498 390.214 150.65 406.382 150.48C423.06 150.304 422.651 150.354 431.19 147.44C433.958 146.495 435.283 145.863 435.399 145.431C435.493 145.084 436.317 144.48 437.229 144.089C438.142 143.697 438.889 143.216 438.889 143.02C438.889 142.823 439.831 142.229 440.983 141.7C442.305 141.093 443.299 140.353 443.677 139.693C444.007 139.117 444.66 138.501 445.127 138.324C445.595 138.146 446.446 137.413 447.017 136.696C447.589 135.978 448.595 135.074 449.252 134.686C449.909 134.298 450.447 133.819 450.447 133.622C450.447 133.192 458.702 124.921 459.131 124.921C459.295 124.921 459.887 124.244 460.446 123.415C461.006 122.587 461.971 121.651 462.592 121.337C463.212 121.023 463.889 120.319 464.095 119.773C464.301 119.228 464.971 118.496 465.585 118.147C466.235 117.777 467.017 116.836 467.463 115.887C467.882 114.993 468.708 113.855 469.296 113.358C470.209 112.588 470.393 112.134 470.543 110.286C470.677 108.639 470.562 107.814 470.065 106.853C469.485 105.734 469.097 105.497 466.701 104.797C464.105 104.039 463.34 104.005 448.37 103.984C433.215 103.963 432.727 103.984 432.026 104.685ZM482.415 106.176C481.058 107.443 479.484 109.117 478.918 109.895C478.351 110.675 477.402 111.607 476.809 111.968C476.216 112.329 475.731 112.802 475.731 113.019C475.731 113.471 473.764 115.526 473.332 115.526C472.994 115.526 468.507 120.251 468.507 120.607C468.507 120.739 467.897 121.283 467.152 121.814C466.408 122.345 465.473 123.2 465.075 123.713C464.678 124.226 464.059 124.911 463.699 125.235C463.34 125.56 462.609 126.285 462.074 126.846C461.54 127.409 459.68 129.291 457.942 131.03C456.204 132.769 454.782 134.378 454.782 134.606C454.782 134.835 454.269 135.287 453.642 135.611C452.147 136.384 451.317 137.201 451.01 138.202C450.872 138.649 450.632 139.015 450.476 139.015C450.06 139.015 448.477 140.547 447.756 141.647C447.413 142.171 446.833 142.695 446.468 142.811C446.103 142.927 445.478 143.575 445.079 144.251C444.68 144.927 443.687 145.902 442.872 146.417C442.056 146.932 441.243 147.738 441.065 148.208C440.886 148.678 440.555 149.177 440.33 149.316C440.057 149.485 440.181 149.754 440.702 150.118C441.312 150.545 442.093 150.618 444.25 150.447C445.771 150.326 454.167 150.214 462.908 150.197C471.649 150.181 480.209 150.077 481.931 149.967L485.062 149.767L488.252 146.554C490.007 144.787 492.637 142.164 494.097 140.726C495.557 139.288 497.833 136.995 499.154 135.631C500.475 134.267 502.507 132.234 503.67 131.114C504.833 129.994 507.793 127.045 510.248 124.56C512.703 122.076 514.881 119.88 515.088 119.682C515.586 119.201 523.84 110.867 524.342 110.338C524.557 110.111 525.179 109.599 525.724 109.202C527.108 108.192 529.629 104.979 529.288 104.659C529.133 104.513 519.079 104.276 506.944 104.133L484.883 103.872L482.415 106.176ZM615.864 104.091C615.76 104.196 609.225 104.332 601.341 104.394L587.008 104.507L585.487 106.132C582.229 109.609 579.374 112.547 577.173 114.685C575.911 115.912 572.539 119.287 569.681 122.184C566.822 125.081 564.344 127.451 564.173 127.451C564.002 127.451 563.861 127.652 563.861 127.896C563.861 128.141 562.853 129.273 561.619 130.411C560.386 131.549 559.494 132.597 559.637 132.74C559.779 132.883 566.673 133.056 574.955 133.124C586.362 133.218 590.083 133.355 590.296 133.692C590.824 134.522 590.592 135.284 589.687 135.697C589.19 135.923 588.784 136.349 588.784 136.644C588.784 136.939 588.428 137.512 587.993 137.917C587.221 138.636 586.812 138.653 570.139 138.653H553.075L551.335 140.513C550.377 141.535 549.372 142.552 549.101 142.771C548.83 142.991 548.18 143.65 547.656 144.236C547.133 144.822 545.755 146.284 544.595 147.485L542.485 149.669L543.692 149.955C544.356 150.112 554.144 150.31 565.443 150.395C588.033 150.564 587.261 150.63 589.081 148.369C589.542 147.795 590.111 147.321 590.345 147.315C590.579 147.309 591.211 146.577 591.75 145.689C592.288 144.801 592.951 144.074 593.224 144.074C593.496 144.074 593.936 143.667 594.201 143.171C594.467 142.674 594.791 142.267 594.921 142.267C595.307 142.267 613.941 123.663 614.384 122.836C614.693 122.258 614.684 122.008 614.348 121.8C613.422 121.228 599.208 120.872 594.563 121.306C590.191 121.714 584.932 121.623 583.637 121.116C583.289 120.98 583.005 120.665 583.005 120.414C583.005 119.727 584.431 118.055 585.017 118.055C585.301 118.055 585.533 117.851 585.533 117.6C585.533 117.35 585.899 116.903 586.346 116.607C587.037 116.148 589.717 116.068 604.315 116.068H621.471L625.083 112.367C627.07 110.332 628.899 108.665 629.147 108.663C629.395 108.661 629.598 108.416 629.598 108.118C629.598 107.82 629.842 107.576 630.14 107.576C630.438 107.576 630.682 107.383 630.682 107.147C630.682 106.912 631.022 106.357 631.438 105.913C632.176 105.127 632.178 105.099 631.503 104.738C631.117 104.531 628.418 104.372 625.38 104.378C622.393 104.383 619.072 104.279 618.001 104.145C616.93 104.011 615.968 103.987 615.864 104.091ZM535.418 105.084C534.573 105.502 533.882 106.061 533.882 106.324C533.882 106.589 533.598 106.9 533.25 107.017C532.903 107.134 532.212 107.782 531.715 108.457C531.219 109.132 530.043 110.389 529.102 111.25C528.161 112.111 526.293 113.954 524.951 115.345C523.609 116.736 518.121 122.293 512.756 127.693C507.391 133.093 501.846 138.704 500.435 140.16C499.024 141.617 497.561 143.082 497.184 143.414C496.425 144.085 492.915 147.785 491.838 149.048L491.15 149.856H496.481H501.813L514.064 137.569C520.803 130.812 526.535 125.283 526.803 125.283C527.614 125.283 527.742 127.08 527.742 138.497C527.742 146.865 527.849 149.521 528.194 149.742C528.676 150.053 535.443 149.971 536.501 149.642C536.849 149.534 537.133 149.213 537.133 148.928C537.133 148.643 537.3 148.41 537.504 148.41C537.709 148.41 538.724 147.476 539.761 146.333C540.798 145.19 550.099 135.735 560.429 125.322C582.933 102.64 580.551 105.135 580.012 104.8C579.77 104.65 577.479 104.462 574.919 104.381L570.264 104.235L557.943 116.752C551.166 123.636 545.346 129.266 545.01 129.263C544.675 129.26 544.269 129.055 544.11 128.806C543.951 128.558 543.878 123.189 543.949 116.877C544.046 108.143 543.97 105.27 543.631 104.861C542.895 103.974 537.356 104.124 535.418 105.084ZM299.493 116.623C299.877 116.829 300.192 117.159 300.192 117.358C300.192 117.785 298.361 119.625 297.14 120.425C295.944 121.21 291.19 121.457 283.486 121.136C276.14 120.83 276.013 120.753 278.533 118.128L279.992 116.61H287.207C292.309 116.61 294.632 116.741 295.137 117.057C295.725 117.424 296.03 117.393 296.848 116.886C298.012 116.163 298.538 116.111 299.493 116.623ZM450.357 116.862C451.506 116.989 452.253 117.248 452.253 117.518C452.253 118.223 450.371 121.453 449.747 121.819C449.198 122.142 442.73 128.609 439.751 131.815C437.33 134.42 434.113 136.685 431.653 137.517C429.606 138.208 428.569 138.292 422.053 138.292C414.647 138.292 413.606 138.186 413.606 137.434C413.606 136.805 416.47 133.453 417.264 133.151C417.645 133.007 418.054 132.632 418.174 132.319C418.295 132.006 421.783 128.383 425.926 124.27L433.459 116.791L439.335 116.579C445.006 116.374 446.262 116.407 450.357 116.862ZM504.556 117.385C504.651 118.206 503.274 119.753 494.749 128.407L484.831 138.473L475.376 138.56C465.785 138.649 464.534 138.506 464.534 137.319C464.534 136.996 466.443 134.889 468.778 132.636C471.112 130.382 473.231 128.335 473.487 128.085C473.743 127.836 475.231 126.331 476.792 124.741C481.583 119.862 484.915 116.698 485.483 116.488C485.781 116.377 490.169 116.319 495.235 116.358L504.445 116.429L504.556 117.385Z" fill="url(#paint0_linear)"/>
<g filter="url(#filter0_d)">
<path fill-rule="evenodd" clip-rule="evenodd" d="M274.442 103.32H96.6429L50.9922 149.112C51.2379 149.214 51.7809 149.323 52.47 149.399C55.0644 149.684 133.915 150.053 185.831 150.022L227.684 149.997L229.403 148.735C230.349 148.04 231.304 147.472 231.526 147.472C231.747 147.472 231.929 147.338 231.929 147.175C231.929 146.931 233.315 145.476 237.668 141.148C240.242 138.59 242.764 135.811 242.764 135.534C242.764 135.342 242.922 135.185 243.116 135.185C243.308 135.185 246.762 131.873 250.791 127.825C254.819 123.777 258.481 120.275 258.928 120.043C259.375 119.811 259.74 119.441 259.74 119.221C259.74 119.001 262.633 115.934 266.167 112.405C269.702 108.875 273.052 105.328 273.611 104.52L274.442 103.32ZM484.858 103.32H487.013L506.947 103.556C519.081 103.699 529.136 103.936 529.291 104.082C529.632 104.402 527.111 107.615 525.727 108.625C525.182 109.022 524.56 109.533 524.344 109.761C523.843 110.29 515.588 118.624 515.09 119.104C514.883 119.303 512.706 121.498 510.251 123.983C507.795 126.467 504.835 129.417 503.672 130.537C502.51 131.657 500.477 133.69 499.156 135.054C497.835 136.418 495.56 138.711 494.1 140.149C492.639 141.587 490.009 144.209 488.254 145.977L485.064 149.19L481.934 149.39C480.212 149.5 471.652 149.603 462.911 149.62C454.17 149.637 445.774 149.749 444.252 149.87C442.095 150.041 441.314 149.968 440.704 149.541C440.184 149.176 440.059 148.908 440.332 148.739C440.558 148.6 440.888 148.101 441.067 147.631C441.246 147.161 442.059 146.354 442.874 145.839C443.69 145.324 444.683 144.35 445.082 143.674C445.48 142.998 446.105 142.35 446.47 142.234C446.836 142.118 447.415 141.594 447.758 141.07C448.479 139.97 450.062 138.438 450.478 138.438C450.634 138.438 450.874 138.072 451.012 137.624C451.319 136.624 452.149 135.807 453.644 135.034C454.271 134.709 454.784 134.257 454.784 134.029C454.784 133.801 456.206 132.192 457.944 130.453C459.683 128.714 461.542 126.831 462.076 126.269C462.611 125.707 463.342 124.982 463.702 124.658C464.061 124.334 464.681 123.649 465.078 123.136C465.475 122.623 466.41 121.768 467.155 121.237C467.9 120.706 468.509 120.162 468.509 120.029C468.509 119.674 472.996 114.949 473.334 114.949C473.767 114.949 475.733 112.894 475.733 112.441C475.733 112.225 476.218 111.752 476.812 111.391C477.405 111.03 478.353 110.097 478.92 109.318C479.487 108.539 481.061 106.866 482.418 105.599L484.858 103.32ZM320.86 103.32H322.615C322.758 103.385 322.915 103.46 323.091 103.546L324.61 104.288L323.951 105.417C323.589 106.038 322.525 107.3 321.586 108.221C320.115 109.665 319.393 110.39 317.773 112.053C317.608 112.222 316.977 112.841 316.372 113.428C315.13 114.632 314.238 115.526 311.391 118.424C310.298 119.535 309.161 120.631 308.862 120.859C308.564 121.086 307.857 121.892 307.292 122.65C306.726 123.408 305.873 124.176 305.396 124.358C304.919 124.539 304.528 124.869 304.528 125.09C304.528 125.581 301.591 128.483 300.778 128.795C300.457 128.918 300.194 129.335 300.194 129.722C300.194 130.175 299.457 130.916 298.117 131.811L296.04 133.198L280.148 133.003C266.83 132.84 264.061 132.893 263.057 133.327C262.398 133.612 260.818 134.919 259.547 136.232C258.275 137.544 256.539 139.295 255.688 140.122C253.362 142.385 250.105 145.66 248.076 147.776C246.346 149.581 245.203 150.06 243.211 149.812C242.27 149.695 240.719 149.752 239.764 149.938C238.223 150.239 235.794 150.014 235.306 149.525C234.977 149.197 236.867 146.584 238.56 145.025C239.482 144.176 240.236 143.435 240.236 143.377C240.236 143.289 242.551 140.973 246.196 137.412C246.593 137.024 247.261 136.324 247.68 135.856C248.099 135.388 248.831 134.645 249.306 134.206C249.78 133.766 250.436 133.139 250.763 132.812C251.09 132.485 251.848 131.734 252.448 131.142C253.049 130.55 253.947 129.66 254.443 129.163C254.94 128.666 255.862 127.744 256.492 127.115C257.122 126.485 257.745 125.846 257.876 125.695C258.007 125.543 259.543 123.998 261.287 122.262C263.031 120.525 266.157 117.397 268.232 115.31C270.977 112.549 272.07 111.45 273.162 110.35C274.012 109.492 274.861 108.633 276.49 106.986L279.695 103.746L290.396 103.73C296.282 103.721 305.404 103.728 310.669 103.745C317.958 103.769 320.259 103.676 320.86 103.32ZM329.812 104.818C329.911 104.702 330.336 104.373 330.757 104.087C331.397 103.651 334.773 103.552 351.345 103.482C362.248 103.436 372.225 103.518 373.516 103.663C375.753 103.915 375.858 103.969 375.747 104.83C375.683 105.327 375.358 105.93 375.025 106.17C373.402 107.339 368.49 111.995 367.941 112.884C367.598 113.439 366.652 114.333 365.838 114.872L364.358 115.852L348.62 115.892C331.126 115.936 330.308 116.027 328.559 118.116C328.016 118.765 327.654 119.512 327.756 119.777C328.045 120.531 331.728 120.725 345.773 120.728C352.876 120.729 358.753 120.874 358.862 121.051C358.971 121.227 358.818 121.572 358.522 121.818C358.227 122.064 357.985 122.541 357.985 122.878C357.985 123.215 357.619 123.838 357.172 124.261C355.707 125.649 355.405 125.943 352.798 128.505C351.379 129.899 349.626 131.491 348.9 132.044L347.581 133.049L330.851 132.999L314.122 132.949L312.984 134.191C312.358 134.874 311.581 135.535 311.257 135.659C310.934 135.784 310.668 136.102 310.668 136.367C310.668 137.66 311.274 137.715 325.496 137.715C334.491 137.715 339.851 137.852 340.566 138.102L341.676 138.489L340.917 139.818C340.499 140.55 338.521 142.805 336.52 144.832C334.519 146.858 332.59 148.857 332.233 149.275C331.587 150.031 331.509 150.034 310.02 149.992C295.015 149.963 288.098 149.826 287.281 149.542C286.032 149.107 285.784 148.657 286.617 148.338C286.897 148.23 287.224 147.75 287.345 147.27C287.477 146.742 287.917 146.31 288.461 146.173C288.954 146.049 289.358 145.809 289.358 145.639C289.358 145.256 300.204 134.462 300.589 134.462C300.742 134.462 300.971 134.139 301.096 133.743C301.222 133.348 302.325 132.087 303.549 130.942C304.772 129.798 307.565 127.017 309.756 124.763C311.946 122.508 315.103 119.337 316.77 117.716C321.203 113.407 321.86 112.733 323.852 110.464C324.845 109.332 326.105 108.166 326.651 107.874C327.198 107.581 327.645 107.105 327.645 106.817C327.645 106.528 328.091 106.008 328.638 105.66C329.184 105.312 329.712 104.933 329.812 104.818ZM379.27 106.456C379.56 106.059 380.319 105.205 380.955 104.559L382.112 103.385H404.151C416.273 103.385 426.448 103.483 426.762 103.604C428.077 104.109 427.237 105.36 422.367 110.149C419.636 112.835 416.852 115.269 416.181 115.557C415.167 115.993 412.204 116.067 398.541 116.003L382.12 115.926L380.44 117.607C379.041 119.007 378.826 119.394 379.157 119.919C379.523 120.5 380.689 120.556 393.782 120.626C401.607 120.668 408.518 120.806 409.14 120.933C410.042 121.118 410.233 121.309 410.084 121.879C409.835 122.832 400.423 132.244 399.286 132.677C398.778 132.87 391.652 133.021 382.793 133.026C374.214 133.03 366.545 133.183 365.75 133.364C364.779 133.587 363.917 134.14 363.119 135.056C362.433 135.845 361.907 136.381 362.005 136.75C362.226 137.58 365.586 137.575 377.313 137.715C385.654 137.814 392.682 138.027 392.93 138.188C393.665 138.664 393.469 139.089 391.756 140.73C390.862 141.588 390.131 142.469 390.131 142.689C390.131 142.908 389.514 143.532 388.76 144.075C388.005 144.617 386.994 145.58 386.513 146.215C386.031 146.85 385.226 147.63 384.723 147.949C384.221 148.268 383.397 148.867 382.892 149.279C381.986 150.02 381.712 150.029 360.808 150.01C340.242 149.992 337.397 149.853 337.397 148.872C337.397 148.412 342.813 142.704 346.563 139.211C347.494 138.344 348.489 137.183 348.775 136.63C349.06 136.077 349.746 135.452 350.298 135.241C351.695 134.707 352.358 134.109 353.06 132.749C353.393 132.105 354.028 131.341 354.471 131.05C355.573 130.327 359.228 126.683 366.292 119.266C369.57 115.823 372.653 112.672 373.144 112.261C375.035 110.681 378.765 107.146 379.27 106.456ZM431.306 105.189C431.306 104.992 431.632 104.505 432.029 104.108C432.73 103.406 433.218 103.386 448.373 103.407C463.343 103.428 464.107 103.462 466.703 104.22C469.099 104.92 469.488 105.157 470.067 106.276C470.564 107.237 470.679 108.061 470.546 109.709C470.395 111.557 470.211 112.01 469.299 112.78C468.71 113.277 467.885 114.416 467.465 115.31C467.02 116.259 466.238 117.2 465.587 117.57C464.974 117.919 464.303 118.65 464.097 119.196C463.891 119.742 463.215 120.446 462.594 120.76C461.974 121.074 461.008 122.009 460.449 122.838C459.889 123.666 459.297 124.344 459.133 124.344C458.704 124.344 450.45 132.615 450.45 133.044C450.45 133.241 449.912 133.72 449.254 134.108C448.597 134.496 447.592 135.401 447.02 136.118C446.448 136.836 445.597 137.568 445.13 137.746C444.662 137.924 444.01 138.54 443.68 139.115C443.301 139.775 442.308 140.516 440.986 141.123C439.834 141.652 438.892 142.245 438.892 142.442C438.892 142.639 438.145 143.12 437.232 143.512C436.319 143.903 435.496 144.507 435.402 144.854C435.285 145.286 433.961 145.918 431.192 146.863C428.127 147.909 426.215 148.573 424.252 149.002C420.745 149.77 417.075 149.79 406.384 149.902C390.216 150.073 388.317 149.921 389.064 148.524C389.277 148.126 391.189 146.056 393.312 143.923C395.436 141.791 397.374 139.603 397.618 139.061C397.862 138.52 398.282 138.076 398.553 138.076C398.823 138.076 399.62 137.467 400.323 136.721C401.026 135.976 401.906 135.098 402.277 134.77C402.649 134.442 404.795 132.247 407.046 129.892C409.297 127.536 411.375 125.365 411.664 125.067C411.953 124.769 416.491 120.255 421.748 115.036C427.005 109.818 431.306 105.386 431.306 105.189ZM601.344 103.817C609.227 103.755 615.762 103.619 615.866 103.514C615.971 103.41 616.932 103.434 618.003 103.568C619.074 103.701 622.395 103.806 625.382 103.801C628.42 103.795 631.119 103.954 631.506 104.161C632.181 104.522 632.179 104.55 631.441 105.336C631.024 105.779 630.684 106.334 630.684 106.57C630.684 106.806 630.44 106.998 630.142 106.998C629.844 106.998 629.601 107.242 629.601 107.541C629.601 107.839 629.398 108.084 629.149 108.086C628.901 108.088 627.072 109.755 625.086 111.79L621.474 115.491H604.317C589.72 115.491 587.039 115.571 586.348 116.029C585.901 116.325 585.535 116.773 585.535 117.023C585.535 117.273 585.303 117.478 585.02 117.478C584.433 117.478 583.007 119.15 583.007 119.837C583.007 120.087 583.291 120.403 583.639 120.539C584.935 121.045 590.194 121.136 594.565 120.728C599.211 120.295 613.424 120.65 614.35 121.223C614.687 121.431 614.696 121.681 614.387 122.258C613.944 123.086 595.309 141.69 594.923 141.69C594.793 141.69 594.47 142.096 594.204 142.593C593.938 143.09 593.498 143.497 593.226 143.497C592.954 143.497 592.291 144.223 591.752 145.111C591.213 146 590.581 146.731 590.347 146.737C590.113 146.744 589.544 147.218 589.083 147.792C588.776 148.173 588.543 148.488 588.259 148.748C586.859 150.028 584.225 149.958 565.446 149.817C554.146 149.732 544.358 149.534 543.694 149.377L542.487 149.092L544.597 146.908C545.758 145.707 547.135 144.245 547.659 143.659C548.182 143.073 548.832 142.414 549.103 142.194C549.375 141.974 550.38 140.958 551.337 139.935L553.078 138.076H570.141C586.814 138.076 587.223 138.059 587.995 137.339C588.43 136.934 588.786 136.361 588.786 136.067C588.786 135.772 589.192 135.346 589.689 135.119C590.594 134.707 590.826 133.945 590.299 133.115C590.085 132.778 586.364 132.64 574.957 132.547C566.675 132.478 559.782 132.305 559.639 132.163C559.496 132.02 560.388 130.972 561.622 129.834C562.855 128.696 563.864 127.564 563.864 127.319C563.864 127.074 564.004 126.874 564.175 126.874C564.346 126.874 566.825 124.504 569.683 121.606C572.541 118.709 575.913 115.335 577.176 114.108C579.377 111.969 582.232 109.032 585.489 105.554L587.011 103.93L601.344 103.817ZM533.885 105.747C533.885 105.483 534.575 104.925 535.42 104.507C537.358 103.547 542.897 103.396 543.633 104.284C543.973 104.693 544.049 107.566 543.951 116.299C543.88 122.612 543.953 127.981 544.112 128.229C544.272 128.477 544.677 128.683 545.013 128.686C545.349 128.689 551.168 123.058 557.945 116.174L570.267 103.658L574.921 103.804C577.481 103.884 579.773 104.073 580.014 104.223C580.12 104.289 580.296 104.246 580.342 104.305C580.532 104.547 578.527 106.506 560.432 124.745C550.101 135.158 540.801 144.612 539.764 145.755C538.727 146.898 537.711 147.833 537.507 147.833C537.303 147.833 537.136 148.066 537.136 148.351C537.136 148.636 536.851 148.957 536.504 149.065C535.446 149.394 528.678 149.476 528.196 149.165C527.851 148.943 527.745 146.288 527.745 137.919C527.745 126.503 527.617 124.706 526.806 124.706C526.538 124.706 520.805 130.234 514.067 136.992L501.815 149.279H496.484H491.152L491.84 148.471C492.917 147.207 496.428 143.508 497.187 142.837C497.563 142.504 499.026 141.04 500.437 139.583C501.849 138.126 507.393 132.516 512.758 127.116C518.124 121.716 523.612 116.159 524.953 114.768C526.296 113.377 528.163 111.534 529.104 110.673C530.045 109.812 531.221 108.555 531.718 107.88C532.214 107.204 532.905 106.557 533.253 106.44C533.601 106.323 533.885 106.011 533.885 105.747ZM300.194 116.78C300.194 116.582 299.88 116.251 299.495 116.045C298.54 115.534 298.015 115.586 296.85 116.308C296.032 116.816 295.727 116.846 295.139 116.479C294.634 116.164 292.312 116.033 287.209 116.033H279.994L278.536 117.551C276.015 120.175 276.142 120.252 283.488 120.558C291.193 120.88 295.946 120.633 297.143 119.848C298.364 119.048 300.194 117.208 300.194 116.78ZM452.256 116.941C452.256 116.671 451.509 116.412 450.359 116.285C446.264 115.829 445.009 115.797 439.337 116.002L433.462 116.213L425.929 123.693C421.785 127.806 418.297 131.428 418.177 131.742C418.057 132.055 417.647 132.43 417.267 132.574C416.472 132.875 413.608 136.228 413.608 136.857C413.608 137.609 414.65 137.715 422.056 137.715C428.572 137.715 429.608 137.631 431.655 136.94C434.115 136.108 437.332 133.843 439.754 131.238C442.733 128.032 449.2 121.565 449.75 121.242C450.373 120.876 452.256 117.645 452.256 116.941ZM494.751 127.829C503.277 119.176 504.653 117.629 504.558 116.807L504.448 115.852L495.237 115.781C490.172 115.741 485.783 115.8 485.485 115.911C484.917 116.121 481.586 119.285 476.795 124.163C475.233 125.754 473.746 127.259 473.49 127.508C473.234 127.758 471.114 129.805 468.78 132.058C466.446 134.311 464.536 136.419 464.536 136.741C464.536 137.928 465.787 138.072 475.378 137.983L484.833 137.895L494.751 127.829Z" fill="url(#paint1_linear)"/>
</g>
<defs>
<filter id="filter0_d" x="0.992188" y="53.3203" width="681.011" height="146.754" filterUnits="userSpaceOnUse" color-interpolation-filters="sRGB">
<feFlood flood-opacity="0" result="BackgroundImageFix"/>
<feColorMatrix in="SourceAlpha" type="matrix" values="0 0 0 0 0 0 0 0 0 0 0 0 0 0 0 0 0 0 127 0"/>
<feOffset/>
<feGaussianBlur stdDeviation="25"/>
<feColorMatrix type="matrix" values="0 0 0 0 0 0 0 0 0 0 0 0 0 0 0 0 0 0 0.25 0"/>
<feBlend mode="normal" in2="BackgroundImageFix" result="effect1_dropShadow"/>
<feBlend mode="normal" in="SourceGraphic" in2="effect1_dropShadow" result="shape"/>
</filter>
<linearGradient id="paint0_linear" x1="56.2353" y1="41.9919" x2="621.034" y2="144.446" gradientUnits="userSpaceOnUse">
<stop stop-color="#703CAB"/>
<stop stop-color="#703CAB"/>
<stop offset="0.1875" stop-color="#C41BA8"/>
<stop offset="0.364583" stop-color="#EC3877"/>
<stop offset="0.477328" stop-color="#FEAD12"/>
<stop offset="0.770833" stop-color="#E95F56"/>
<stop offset="1" stop-color="#7845B1"/>
</linearGradient>
<linearGradient id="paint1_linear" x1="-25.4372" y1="100.146" x2="469.473" y2="399.144" gradientUnits="userSpaceOnUse">
<stop stop-color="#703CAB"/>
<stop stop-color="#703CAB"/>
<stop offset="0.1875" stop-color="#C41BA8"/>
<stop offset="0.364583" stop-color="#EC3877"/>
<stop offset="0.550826" stop-color="#FEAD12"/>
<stop offset="0.770833" stop-color="#E95F56"/>
<stop offset="1" stop-color="#7845B1"/>
</linearGradient>
</defs>
</svg>
