<svg width="163" height="179" viewBox="0 0 163 179" fill="none" xmlns="http://www.w3.org/2000/svg">
<path fill-rule="evenodd" clip-rule="evenodd" d="M129.591 0.136264C121.288 1.10055 114.356 7.36927 112.784 15.3354C112.483 16.8579 112.449 20.3051 112.72 21.808C113.263 24.8245 114.653 27.8089 116.671 30.293C119.411 33.6643 123.581 36.1488 128.061 37.0779C130.226 37.5269 133.817 37.5269 135.982 37.0779C139.854 36.2747 143.275 34.4432 146.059 31.6834C154.978 22.839 152.723 8.3779 141.488 2.36935C137.888 0.444126 133.703 -0.341265 129.591 0.136264ZM71.8598 26.7165C70.7433 26.8798 69.1562 27.681 68.3341 28.4961C67.7566 29.0687 45.0613 58.9615 43.4599 61.2588C43.1261 61.7379 42.7072 62.603 42.4948 63.2523C42.178 64.2212 42.119 64.6496 42.1148 66.0081C42.1105 67.4439 42.1549 67.7449 42.5293 68.8117C43.9444 72.8446 47.5707 74.8383 51.1047 73.5266C52.1088 73.1538 52.832 72.6499 53.6925 71.7229C54.0768 71.3089 59.1707 64.6013 65.0121 56.817L75.633 42.6637L81.8251 42.6565C85.2307 42.6526 87.9856 42.7004 87.947 42.7629C87.9083 42.8254 77.3151 56.9662 64.4066 74.1869L40.9365 105.497L23.9767 105.51L7.01671 105.522L6.03848 105.927C4.68068 106.489 3.76422 107.125 2.72715 108.225C-1.77763 113.005 -0.50718 121.856 5.10636 124.802C6.99687 125.794 5.54307 125.734 27.9292 125.733C49.5542 125.732 49.4382 125.736 51.7361 125.028C53.0374 124.628 54.6446 123.782 55.6486 122.969C56.2572 122.476 58.8242 119.282 65.7001 110.462C70.7788 103.947 74.9741 98.5778 75.0226 98.5308C75.1401 98.417 96.1639 121.929 96.2176 122.234C96.2405 122.365 94.2997 132.474 91.9047 144.699C89.2007 158.501 87.5224 167.385 87.4774 168.135C87.139 173.761 90.9101 178.661 95.8266 178.984C99.6635 179.236 103.306 176.471 104.613 172.312C104.77 171.812 107.258 159.286 110.142 144.477C113.027 129.668 115.517 116.985 115.677 116.293C116.044 114.707 116.194 111.287 115.962 109.797C115.74 108.375 115.202 106.82 114.555 105.732C114.242 105.206 110.525 100.812 105.742 95.3116C101.192 90.0804 96.9394 85.1904 96.2914 84.4449L95.1133 83.0895L100.967 75.2831C104.187 70.9897 108.773 64.8827 111.159 61.7123L115.498 55.9477L121.995 63.4607C125.569 67.5927 128.816 71.2763 129.212 71.6463C129.607 72.0162 130.385 72.5331 130.941 72.7949C133.712 74.1005 136.404 73.5217 139.063 71.0494C140.255 69.9409 161.418 45.3241 161.893 44.4936C163.675 41.3775 163.265 36.9043 160.952 34.2319C158.678 31.6046 154.886 31.1324 152.106 33.1304C151.782 33.3638 147.523 38.1467 142.642 43.7588C137.761 49.371 133.728 53.9507 133.679 53.9359C133.63 53.9212 128.707 48.2924 122.741 41.4278C116.066 33.7489 111.611 28.7362 111.161 28.4C110.759 28.0994 110.084 27.6796 109.662 27.4673C107.921 26.5928 109.144 26.6458 90.0969 26.6186C80.5276 26.6048 72.3209 26.6489 71.8598 26.7165Z" fill="#F8B62A"/>
</svg>
