<svg width="1167" height="1280" viewBox="0 0 1167 1280" fill="none" xmlns="http://www.w3.org/2000/svg">
<path fill-rule="evenodd" clip-rule="evenodd" d="M927.319 0.974194C867.906 7.86819 818.303 52.6852 807.05 109.637C804.899 120.522 804.656 145.167 806.592 155.912C810.48 177.478 820.426 198.814 834.87 216.574C854.472 240.676 884.317 258.439 916.371 265.081C931.863 268.291 957.557 268.291 973.049 265.081C1000.76 259.339 1025.24 246.245 1045.16 226.514C1108.98 163.283 1092.85 59.8962 1012.45 16.9392C986.692 3.17519 956.747 -2.43981 927.319 0.974194ZM514.21 191.004C506.221 192.172 494.864 197.9 488.981 203.727C484.849 207.821 322.447 421.534 310.988 437.958C308.599 441.383 305.602 447.568 304.082 452.21C301.815 459.137 301.393 462.2 301.363 471.912C301.332 482.177 301.65 484.329 304.329 491.956C314.455 520.788 340.404 535.042 365.692 525.664C372.877 522.999 378.052 519.396 384.21 512.769C386.96 509.809 423.41 461.854 465.21 406.202L541.21 305.016L585.519 304.964C609.889 304.936 629.602 305.278 629.326 305.725C629.049 306.172 553.247 407.269 460.877 530.385L292.931 754.233L171.571 754.322L50.2098 754.412L43.2098 757.306C33.4938 761.322 26.9357 765.869 19.5147 773.735C-12.7203 807.907 -3.62925 871.187 36.5398 892.245C50.0678 899.337 39.6647 898.913 199.854 898.906C354.597 898.9 353.767 898.924 370.21 893.866C379.522 891.001 391.023 884.953 398.207 879.142C402.562 875.62 420.931 852.784 470.133 789.726C506.475 743.148 536.495 704.763 536.842 704.427C537.683 703.613 688.124 871.709 688.508 873.89C688.672 874.823 674.784 947.096 657.646 1034.5C638.297 1133.18 626.288 1196.69 625.966 1202.05C623.544 1242.27 650.529 1277.3 685.71 1279.61C713.166 1281.42 739.228 1261.64 748.583 1231.91C749.708 1228.34 767.514 1138.79 788.151 1032.91C808.789 927.037 826.612 836.362 827.758 831.412C830.382 820.075 831.453 795.627 829.793 784.975C828.208 774.808 824.356 763.691 819.723 755.912C817.484 752.153 790.889 720.736 756.659 681.412C724.103 644.012 693.673 609.052 689.036 603.722L680.606 594.032L722.494 538.222C745.533 507.527 778.353 463.866 795.428 441.2L826.473 399.987L872.966 453.7C898.537 483.241 921.774 509.576 924.604 512.221C927.434 514.866 933.004 518.561 936.98 520.433C956.805 529.767 976.074 525.629 995.098 507.954C1003.63 500.029 1155.06 324.036 1158.46 318.098C1171.22 295.82 1168.28 263.84 1151.73 244.734C1135.46 225.951 1108.32 222.575 1088.43 236.859C1086.11 238.528 1055.63 272.722 1020.71 312.845C985.784 352.968 956.922 385.71 956.57 385.604C956.218 385.499 920.997 345.257 878.3 296.18C830.54 241.281 798.658 205.444 795.44 203.04C792.564 200.891 787.735 197.89 784.71 196.372C772.254 190.12 781.006 190.499 644.71 190.304C576.235 190.206 517.51 190.521 514.21 191.004Z" fill="black"/>
</svg>
