<svg width="1200" height="400" viewBox="0 0 1200 400" fill="none" xmlns="http://www.w3.org/2000/svg">
<path fill-rule="evenodd" clip-rule="evenodd" d="M0 126.253V252.505L73.753 326.253L147.505 400H220.753H294V379.559C294 368.316 294.367 358.892 294.815 358.615C295.262 358.338 305.046 367.536 316.556 379.056L337.482 400H479.241H621V378.759V357.517L642.259 378.759L663.517 400H731.759H800V378.759V357.517L821.259 378.759L842.517 400H973.505H1104.49L1152.25 352.254L1200 304.508V215.497V126.486L1173.75 100.257L1147.5 74.027L1121 73.764L1094.5 73.5L1094.24 36.75L1093.97 0H1036.7H979.417L952.923 36.75L926.429 73.5L878.966 73.76L831.503 74.02L815.751 89.748L800 105.477V89.738V74H763H726V37V0H610.5H495V37.003V74.006L331.786 73.753L168.572 73.5L142.077 36.75L115.583 0H57.791H0V126.253ZM106 57.5V94H142.5H179V136.5V179H142.5H106V189.5V200H142.5H179V242V284H120.759H62.517L41.759 263.259L21 242.518V131.759V21H63.5H106V57.5ZM600 47.5V74H558H516V47.5V21H558H600V47.5ZM706 57.5V94H742.5H779V136.5V179H742.5H706V189.5V200H742.5H779V242V284H720.759H662.517L641.759 263.259L621 242.518V131.759V21H663.5H706V57.5ZM1074 57.5V94H1105.24H1136.48L1157.74 115.241L1179 136.483V210.241V284H1136.5H1094V231.5V179H1084H1074V231.5V284H1031.5H989V152.5V21H1031.5H1074V57.5ZM284 147V200H294.491H304.982L305.241 147.25L305.5 94.5H347.5H389.5L389.759 147.25L390.018 200H400H409.982L410.241 147.25L410.5 94.5H452.5H494.5L494.755 189.25L495.01 284H368.246H241.482L220.741 263.241L200 242.483V168.241V94H242H284V147ZM600 189V284H558H516V189V94H558H600V189ZM968.761 136.75L969.022 179H926.511H884V189.5V200H926.5H969V242V284H905.241H841.482L820.741 263.241L800 242.483V189.5V136.517L821.249 115.251L842.497 93.985L905.499 94.243L968.5 94.5L968.761 136.75Z" fill="#232323"/>
</svg>
