<svg width="295" height="164" viewBox="0 0 295 164" fill="none" xmlns="http://www.w3.org/2000/svg">
<path d="M92 64.5L141.5 67.5L148.5 95L166.5 67.5L178.5 61.5V69.5L204 67.5L212 72H225L230 94L245 74L276.5 69.5L291 70.5L292 77.5L274.5 84.5L250 130L243.5 121L254.5 93L247.5 89.5L236.5 124.5L228 133L222 128.5L216.5 110L205 126.5L199.5 120L163.5 125.5L156.5 117.5L152 125.5L92 137V64.5Z" fill="white"/>
<path d="M19 21.5L39.5 22.5L37 15L148.5 2L161.5 10.5L163.5 22.5L148.5 40.5L120.5 67L108.5 70L105.5 75.5L99.5 89L65 120.5L91 118L95.5 124H137.5L155 130.5L166.5 137L142 145.5L12.5 159L1.5 145.5L6 132L65 75.5L99.5 40.5H80L25.5 30L19 21.5Z" fill="#4BBA31"/>
<path fill-rule="evenodd" clip-rule="evenodd" d="M129.337 1.94246C111.948 4.72343 84.9505 8.05028 65.0267 9.86658C59.5102 10.3691 54.0675 10.9162 52.9317 11.0819C51.796 11.2471 47.6223 11.5704 43.6569 11.8006C35.5545 12.2698 34.6689 12.695 34.3845 16.252C34.2818 17.5365 33.7621 18.7355 33.0995 19.2169C31.6074 20.3005 25.0159 20.0229 22.0323 18.7501C20.7756 18.2148 19.2899 17.7761 18.7312 17.7761C16.9553 17.7761 15.7617 19.7283 15.7617 22.6328C15.7617 25.0512 16.0296 25.6024 18.2161 27.6881C25.2714 34.4186 39.134 38.5227 58.9568 39.7515C64.5294 40.0965 65.3206 40.2792 65.6451 41.2931C66.0787 42.6502 68.1679 43.5475 70.8931 43.5475C71.9681 43.5475 73.1581 43.9194 73.5387 44.3745C74.7877 45.8687 79.8753 46.6576 85.6113 46.2471L90.9867 45.8628L85.0785 51.587C28.4332 106.473 4.77417 129.674 3.34224 131.74C-0.434347 137.189 -1.09456 145.876 1.79231 152.135C4.619 158.266 9.34195 161.803 16.3565 163.044C19.864 163.665 21.4547 163.523 35.2317 161.362C59.2624 157.594 70.6123 156.302 116.062 152.154C121.74 151.636 128.378 150.951 130.812 150.632C133.245 150.313 138.215 149.876 141.856 149.661C149.249 149.223 150.409 148.652 150.64 145.335C150.724 144.146 151.243 143.115 152.019 142.604C153.762 141.455 160.168 141.541 162.515 142.745C166.855 144.973 169.838 143.272 169.446 138.791C169.159 135.507 165.444 131.936 159.241 128.984C156.544 127.701 154.422 126.468 154.527 126.245C154.632 126.023 155.366 124.147 156.157 122.077C157.551 118.429 157.61 118.366 158.075 120.027C158.339 120.97 158.584 122.663 158.62 123.79C158.708 126.598 159.88 128.244 162.372 129.06C164.216 129.664 165.229 129.528 170.616 127.951C177.777 125.854 185.786 124.067 190.442 123.527C192.248 123.318 194.485 122.757 195.411 122.28C197.146 121.386 198.04 121.842 198.063 123.63C198.068 124.026 198.736 124.781 199.547 125.309C200.358 125.836 201.022 126.724 201.022 127.281C201.022 127.839 201.507 128.731 202.101 129.264C204.72 131.617 207.785 129.496 209.896 123.869C210.577 122.054 211.764 119.91 212.535 119.105C213.306 118.299 214.33 116.718 214.81 115.59C215.782 113.31 215.918 113.498 216.936 118.512C218.467 126.046 220.476 131.269 222.533 133.062C225.28 135.457 228.505 135.927 231.914 134.43C235.635 132.796 237.11 130.2 239.961 120.276C244.622 104.044 248.203 93.4656 249.161 93.1007C249.671 92.9062 250.63 92.7475 251.292 92.7475C252.202 92.7475 252.343 92.9302 251.87 93.496C250.741 94.8467 243.466 112.755 242.67 116.144C242.242 117.966 242.005 121.025 242.144 122.941C242.382 126.233 242.56 126.582 245.35 129.235C247.667 131.436 248.583 131.96 249.591 131.658C251.192 131.179 253.997 128.618 254.44 127.231C254.623 126.66 255.296 126.028 255.938 125.826C257.695 125.272 264.061 112.224 272.827 91.2059L274.325 87.6137L278.76 86.9038C281.199 86.5132 284.538 85.7974 286.18 85.3136C289.407 84.3624 293.049 81.2833 293.081 79.4811C293.091 78.8848 293.469 77.9131 293.921 77.3204C295.12 75.7501 294.6 71.6138 293.046 70.3627C292.36 69.8092 290.821 69.1954 289.627 68.998C288.433 68.8012 286.462 68.2682 285.247 67.8136C283.518 67.1676 282.102 67.1102 278.757 67.5507C276.403 67.8605 272.563 68.2307 270.225 68.373C267.886 68.5159 265.64 68.8375 265.231 69.0876C263.53 70.1313 250.283 72.7155 249.303 72.1948C248.751 71.9019 247.353 71.6618 246.197 71.6618C243.668 71.6618 239.939 74.7057 238.111 78.2622C237.464 79.5209 236.085 81.2909 235.046 82.1964C233.961 83.1418 232.672 85.176 232.015 86.977L230.872 90.1118L229.476 82.2386C228.559 77.0662 227.674 73.7985 226.895 72.712C224.477 69.3412 219.619 68.2043 215.774 70.1091C213.919 71.0275 213.799 71.0105 212.114 69.603C211.155 68.8023 210.102 68.1475 209.772 68.1475C209.442 68.1475 208.498 67.6204 207.673 66.9761C205.606 65.3624 196.666 65.3507 190.449 66.9532C187.291 67.7674 185.76 67.9173 184.957 67.4903C184.344 67.1647 183.128 67.054 182.254 67.2449C180.679 67.5887 180.669 67.5688 180.868 64.6965C181.047 62.1129 180.903 61.6935 179.528 60.7991C176.222 58.6484 170.276 61.2542 166.25 66.6182C165.134 68.1036 163.926 69.3189 163.563 69.3189C162.127 69.3189 159.014 73.4834 155.026 80.7404C152.724 84.9282 150.686 88.9474 150.498 89.6725C150.059 91.3529 149.102 91.3881 149.102 89.724C149.102 89.0276 148.164 85.7318 147.017 82.4003C145.41 77.7315 145.072 76.0845 145.542 75.2124C147.224 72.0935 145.794 68.0919 142.373 66.3441C141.044 65.6652 139.293 64.7345 138.482 64.2771C137.401 63.6674 135.991 63.5467 133.211 63.8261L129.416 64.2068L145.45 48.5378C159.443 34.8649 161.729 32.3779 163.398 29.0112C165.082 25.6159 165.31 24.5879 165.297 20.4393C165.289 17.8469 164.957 14.629 164.559 13.2877C163.494 9.70668 160.328 5.44561 157.132 3.29546C151.141 -0.735431 147.262 -0.924031 129.337 1.94246ZM151.61 4.55474C157.326 6.57956 160.895 11.3953 161.349 17.6952C161.862 24.821 161.564 25.2223 140.079 46.243C129.685 56.4133 120.559 64.9688 119.801 65.2552C118.962 65.5721 117.816 65.5469 116.873 65.1914C115.679 64.7404 114.878 64.8441 113.375 65.6447C106.262 69.4326 102.112 73.973 102.789 77.2261C103.712 81.667 103.761 81.5949 92.0428 92.8728C71.1987 112.934 62.1116 121.97 62.4473 122.303C62.6319 122.487 67.5354 122.116 73.3446 121.481C79.1537 120.845 85.4337 120.249 87.2998 120.154C90.4375 119.996 90.6935 120.079 90.6923 121.249C90.6923 121.956 91.5307 123.215 92.5939 124.104C94.3332 125.557 94.7999 125.665 98.0514 125.365C103.753 124.839 132.279 125.965 139.367 126.995C146.297 128.003 151.262 129.413 157.253 132.077C159.689 133.159 160.833 133.97 160.555 134.416C160.287 134.847 160.386 134.942 160.823 134.675C161.211 134.436 162.309 134.911 163.319 135.755C164.311 136.584 165.013 137.262 164.88 137.262C164.746 137.262 162.027 136.208 158.837 134.919C152.377 132.31 152.642 132.389 152.642 133.073C152.642 133.346 153.751 134.002 155.106 134.531C156.462 135.06 157.44 135.622 157.281 135.781C157.121 135.939 154.569 135.68 151.61 135.205C148.65 134.729 145.868 134.478 145.427 134.646C144.986 134.814 142.832 134.579 140.641 134.122C137.802 133.531 136.721 133.485 136.879 133.96C137.001 134.326 138.009 134.789 139.118 134.988L141.137 135.351L139.072 135.447L137.007 135.544L138.334 136.643C139.065 137.248 139.662 138.014 139.662 138.347C139.662 138.679 141.255 139.793 143.202 140.824C145.149 141.854 146.742 142.923 146.742 143.2C146.742 143.818 137.432 143.8 131.402 143.17C128.968 142.916 126.729 142.846 126.426 143.015C125.692 143.423 127.718 144.18 129.927 144.323C132.065 144.461 121.41 145.664 106.917 146.92C77.2539 149.49 57.7072 151.764 36.197 155.147C29.1022 156.263 21.5355 157.17 19.382 157.163C10.3414 157.133 3.97354 150.966 3.97354 142.24C3.97354 135.52 3.78533 135.741 36.174 104.15C52.3671 88.3552 74.0461 67.3041 84.3492 57.3704C94.6524 47.4366 103.082 39.0767 103.082 38.7927C103.082 38.1443 102.726 38.1478 97.885 38.8425C95.7132 39.1546 90.7915 39.5049 86.9464 39.6215C80.5921 39.8136 80.103 39.7568 81.5715 38.993C82.8288 38.3393 83.0046 38.0389 82.3663 37.6376C81.8376 37.3055 82.7185 37.1193 84.8513 37.1134C88.6203 37.1035 92.0322 36.1177 91.7018 35.1343C91.5484 34.678 88.343 34.4373 81.4978 34.3676C59.315 34.1415 41.9737 32.5349 34.5721 30.0198C29.884 28.4267 23.7026 25.3054 21.3667 23.3509L19.5967 21.8702L22.0877 22.8343C23.4577 23.3644 24.4123 24.0655 24.2094 24.3917C23.9922 24.7402 24.1344 24.8046 24.5533 24.5475C24.9463 24.3068 26.7228 24.6957 28.501 25.412C30.2793 26.1289 31.9024 26.5483 32.1077 26.3445C32.313 26.1401 31.3767 25.5128 30.0274 24.9499C28.678 24.387 27.5712 23.7738 27.5676 23.5869C27.5647 23.4007 29.7518 23.6028 32.4292 24.0368C35.1067 24.4702 37.8065 24.7016 38.429 24.5504C39.052 24.3999 41.3925 24.6594 43.6304 25.1262C48.4448 26.1319 48.2117 26.1161 48.2117 25.4349C48.2117 25.1373 46.8182 24.6196 45.1142 24.2839L42.0167 23.6736L44.8192 23.9349C47.7409 24.2078 48.4743 23.5418 46.4417 22.4618C45.7927 22.1168 45.2617 21.5094 45.2617 21.1123C45.2617 20.7146 43.6404 19.5045 41.6592 18.4233C39.0278 16.9871 38.2726 16.3182 38.8567 15.9399C39.6025 15.4578 45.3095 15.6101 54.91 16.368C59.3645 16.72 59.9138 15.8965 55.7472 15.1128C53.4055 14.6724 53.6038 14.6097 58.5367 14.2272C74.8691 12.9615 98.2272 10.6632 99.2467 10.2221C99.8957 9.94097 105.073 9.12331 110.752 8.40464C116.43 7.68597 125.59 6.37221 131.107 5.48427C142.379 3.67148 148.352 3.4003 151.61 4.55474ZM40.6892 23.4352C40.2839 23.5981 39.6202 23.5981 39.2142 23.4352C38.8089 23.273 39.1405 23.14 39.9517 23.14C40.763 23.14 41.0952 23.273 40.6892 23.4352ZM176.106 64.1939C174.902 65.1199 172.676 69.0981 173.116 69.5351C173.298 69.7155 173.943 69.6001 174.549 69.2779C175.864 68.5792 175.921 68.9148 174.84 70.9859C169.941 80.369 158.332 105.261 154.913 113.714C150.728 124.059 150.525 124.419 149.102 124.097C148.29 123.913 145.974 123.601 143.954 123.404C139.77 122.997 139.982 123.3 139.105 116.469C138.774 113.892 137.859 107.434 137.07 102.119C136.282 96.8036 135.323 89.2918 134.94 85.4261C134.556 81.5604 134.154 78.0953 134.044 77.7257C133.844 77.0509 129.625 77.6173 122.257 79.3083C119.408 79.9619 119.26 80.0984 117.95 83.2911C117.205 85.1098 116.446 86.9273 116.265 87.3296C116.017 87.8796 117.051 88.0618 120.424 88.0618C123.023 88.0618 124.912 88.3084 124.912 88.6475C124.912 88.9696 124.63 89.2332 124.287 89.2332C123.944 89.2332 123.826 89.4968 124.027 89.8189C124.227 90.1411 124.924 90.4046 125.576 90.4046C126.226 90.4046 127.298 90.6905 127.956 91.0401C129.149 91.6745 129.149 91.6797 127.855 93.0468C127.142 93.8012 126.743 94.7149 126.969 95.0781C127.699 96.2507 124.909 98.0189 122.328 98.0189C121.005 98.0189 117.899 98.4512 115.424 98.9789L110.924 99.9389L109.039 103.734C108.002 105.821 107.246 107.619 107.358 107.731C107.47 107.842 108.975 107.563 110.702 107.11C113.971 106.254 123.477 105.771 124.139 106.428C124.348 106.635 124.208 106.805 123.83 106.805C123.451 106.805 123.142 107.068 123.142 107.39C123.142 107.713 124.27 107.98 125.649 107.985C127.029 107.99 128.544 108.237 129.018 108.535C129.753 108.996 129.709 109.264 128.723 110.346C128.087 111.045 127.647 112.1 127.746 112.691C127.99 114.161 125.823 115.419 122.257 115.88C116.298 116.649 107.37 118.621 102.267 120.297C99.3447 121.256 96.4407 121.871 95.702 121.687C94.5055 121.389 94.4253 121.148 94.876 119.205C95.2713 117.502 95.1769 116.906 94.4211 116.341C93.7474 115.837 93.6417 115.406 94.0624 114.876C94.3899 114.464 94.807 113.163 94.9887 111.986C95.3421 109.697 99.5742 98.9309 104.316 88.2574C107.873 80.2519 108.335 78.3278 106.942 77.3169C106.019 76.6474 106.012 76.5074 106.857 75.811C107.369 75.3887 107.656 74.8299 107.493 74.5687C107.184 74.0714 110.242 71.6618 111.182 71.6618C111.482 71.6618 112.349 71.0029 113.112 70.1975C114.466 68.7666 115.901 68.1557 115.177 69.3189C114.643 70.1758 116.191 70.0423 121.273 68.7918C126.662 67.4657 136.712 66.6557 136.712 67.5471C136.712 67.8775 136.43 68.1475 136.087 68.1475C135.744 68.1475 135.594 68.3584 135.754 68.6167C135.915 68.8744 137.181 69.152 138.568 69.2334C141.937 69.4308 143.075 70.351 141.394 71.5201C140.614 72.0624 140.259 72.7957 140.441 73.488C140.638 74.2372 140.134 75.0583 138.869 76.0488C137.845 76.85 137.339 77.509 137.744 77.5125C138.15 77.516 138.482 78.1937 138.482 79.0178C138.482 80.8001 139.483 80.4047 140.287 78.3055C141.024 76.3815 141.83 77.0006 142.317 79.8647C142.536 81.1515 142.929 82.2046 143.189 82.2046C143.755 82.2046 145.831 89.7598 146.729 95.0904C147.082 97.1843 147.516 99.622 147.693 100.508C147.968 101.88 148.907 100.364 154.044 90.2576C157.359 83.7345 160.555 77.6724 161.145 76.7868C162.393 74.9119 163.617 74.5945 162.645 76.3979C162.282 77.0697 162.099 77.7316 162.238 77.8692C162.376 78.0062 163.708 76.2983 165.199 74.0738C168.596 69.0021 171.311 65.9159 173.587 64.5378C175.674 63.2738 177.652 63.0038 176.106 64.1939ZM204.267 69.9046C203.939 70.9291 204.161 71.0761 206.036 71.0761C207.215 71.0761 208.718 71.3625 209.377 71.7122C210.574 72.3488 210.574 72.3494 209.313 73.5156C208.573 74.2003 208.184 75.0952 208.371 75.6815C208.881 77.2747 205.969 78.5404 199.504 79.5367C196.282 80.0334 192.207 80.7726 190.447 81.1796L187.246 81.9194L185.626 85.8443L184.006 89.7697L188.236 89.9408C191.767 90.0837 192.441 90.2699 192.309 91.0694C192.197 91.7465 192.748 92.1384 194.184 92.406C196.614 92.8588 197.058 93.7538 195.58 95.2216C194.98 95.8172 194.657 96.5751 194.863 96.9055C195.569 98.0394 193.26 99.7761 191.048 99.7755C189.881 99.7755 186.741 100.206 184.07 100.732L179.214 101.689L177.11 105.489C175.953 107.578 175.127 109.407 175.274 109.553C175.421 109.699 176.562 109.534 177.809 109.186C179.056 108.838 182.865 108.38 186.272 108.169C191.794 107.827 192.386 107.882 191.722 108.682C191.075 109.46 191.337 109.62 193.69 109.883C197.076 110.262 198.006 111.053 196.647 112.402C196.101 112.945 195.74 113.819 195.847 114.343C196.177 115.968 193.679 117.306 189.137 117.939C182.718 118.834 176.368 120.175 172.702 121.411C167.23 123.256 164.436 123.868 163.224 123.486C162.586 123.285 162.22 122.871 162.409 122.567C163.327 121.093 163.284 118.812 162.324 118.115C161.606 117.594 161.489 117.169 161.917 116.634C162.248 116.221 162.709 114.829 162.943 113.54C163.416 110.93 168.254 98.9104 173.317 87.7689C173.61 87.1246 174.368 85.2533 175.002 83.6098C176.151 80.6314 176.151 80.618 174.967 79.4418L173.778 78.2622L176.127 75.9867C178.782 73.4142 182.417 70.4904 182.96 70.4904C183.159 70.4904 183.322 70.9033 183.322 71.4082C183.322 72.0946 183.657 72.22 184.649 71.9054C189.77 70.2807 192.626 69.7383 198.072 69.3552C201.479 69.1163 204.351 68.8779 204.454 68.8269C204.557 68.7754 204.473 69.2604 204.267 69.9046ZM283.032 71.0761C283.032 71.3982 282.766 71.6618 282.442 71.6618C282.117 71.6618 281.852 71.8762 281.852 72.1386C281.852 72.4004 283.437 72.5011 285.375 72.3623C287.312 72.2229 289.344 72.2791 289.888 72.4865C290.77 72.8227 290.731 73.0201 289.524 74.2957C288.447 75.4332 288.312 75.8988 288.866 76.5625C290.096 78.0326 286.122 79.8266 278.757 81.1263C275.105 81.7712 271.942 82.4752 271.729 82.6908C271.515 82.9069 270.547 85.06 269.577 87.4761C264.176 100.934 255.4 119.685 254.501 119.689C254.223 119.69 254.148 119.295 254.335 118.812C254.522 118.329 254.45 117.933 254.176 117.933C253.902 117.933 253.084 119.317 252.359 121.008C250.12 126.235 248.257 127.274 248.231 123.312C248.224 122.254 247.978 122.031 247.118 122.302C245.701 122.748 245.124 120.309 245.871 117.02C246.347 114.922 252.793 99.0252 254.073 96.7901C255.083 95.0271 258.895 85.5772 258.682 85.3652C258.565 85.2486 255.558 85.8478 252.001 86.6965L245.533 88.2387L243.259 95.3252C242.009 99.2232 239.585 107.187 237.872 113.021C234.353 125.008 233.057 127.942 230.836 128.946C227.116 130.629 224.651 129.308 222.915 124.703C221.701 121.48 218.02 106.866 217.25 102.209C217.018 100.809 216.633 99.8868 216.394 100.159C216.154 100.431 214.955 103.352 213.729 106.649C212.503 109.946 211.291 112.516 211.036 112.36C210.782 112.203 210.717 111.482 210.892 110.758C211.113 109.847 211.02 109.621 210.591 110.026C210.249 110.348 209.006 113.379 207.828 116.762C206.65 120.144 205.367 123.232 204.977 123.622C204.26 124.34 204.075 123.756 203.777 119.837C203.671 118.447 203.107 118.124 202.497 119.105C200.576 122.19 201.006 113.448 203.097 106.894C205.555 99.1921 214.535 76.1249 215.658 74.6273C218.036 71.458 222.761 71.8849 224.38 75.4162C224.837 76.4113 225.873 81.1796 226.683 86.0118C229.013 99.9213 229.557 102.705 229.944 102.705C230.143 102.705 230.785 101.189 231.37 99.3368C233.602 92.2666 235.962 86.3158 236.422 86.5981C236.685 86.7592 236.785 87.4843 236.642 88.2088C236.5 88.9333 237.673 86.8874 239.248 83.6625C241.943 78.1433 244.87 74.5611 246.645 74.6091C247.056 74.6202 246.963 74.9166 246.415 75.3412C245.522 76.0324 244.449 78.1046 244.983 78.1046C245.129 78.1046 246.249 77.7128 247.472 77.2337C248.696 76.7546 253.238 75.5697 257.567 74.6003C261.895 73.631 265.702 72.6751 266.028 72.4753C266.353 72.2756 268.387 71.988 270.548 71.8363C272.709 71.684 275.937 71.3514 277.722 71.0966C282.415 70.4265 283.032 70.4242 283.032 71.0761ZM144.234 135.908C143.666 136.056 142.737 136.056 142.169 135.908C141.601 135.761 142.066 135.641 143.202 135.641C144.337 135.641 144.802 135.761 144.234 135.908Z" fill="black"/>
</svg>
